<svg width="17" height="17" viewBox="0 0 17 17" fill="none" xmlns="http://www.w3.org/2000/svg">
<path d="M8.65085 4.19131C6.31261 4.19131 4.42658 6.04787 4.42658 8.34957C4.42658 10.6513 6.31261 12.5078 8.65085 12.5078C10.9891 12.5078 12.8751 10.6513 12.8751 8.34957C12.8751 6.04787 10.9891 4.19131 8.65085 4.19131ZM8.65085 11.053C7.13982 11.053 5.90452 9.84061 5.90452 8.34957C5.90452 6.85853 7.13614 5.64616 8.65085 5.64616C10.1656 5.64616 11.3972 6.85853 11.3972 8.34957C11.3972 9.84061 10.1619 11.053 8.65085 11.053ZM14.0332 4.02121C14.0332 4.56045 13.592 4.99111 13.0479 4.99111C12.5001 4.99111 12.0626 4.55683 12.0626 4.02121C12.0626 3.4856 12.5038 3.05131 13.0479 3.05131C13.592 3.05131 14.0332 3.4856 14.0332 4.02121ZM16.831 5.00559C16.7685 3.70636 16.467 2.55551 15.5001 1.60732C14.5369 0.659137 13.3678 0.362377 12.0479 0.297234C10.6876 0.221234 6.61041 0.221234 5.25011 0.297234C3.93394 0.358758 2.76482 0.655518 1.79791 1.6037C0.830994 2.55189 0.5332 3.70274 0.467023 5.00197C0.389817 6.34101 0.389817 10.3545 0.467023 11.6935C0.529523 12.9928 0.830994 14.1436 1.79791 15.0918C2.76482 16.04 3.93026 16.3368 5.25011 16.4019C6.61041 16.4779 10.6876 16.4779 12.0479 16.4019C13.3678 16.3404 14.5369 16.0436 15.5001 15.0918C16.4633 14.1436 16.7648 12.9928 16.831 11.6935C16.9082 10.3545 16.9082 6.34463 16.831 5.00559ZM15.0736 13.1303C14.7869 13.8396 14.2317 14.3861 13.5075 14.672C12.4229 15.0954 9.84938 14.9977 8.65085 14.9977C7.45232 14.9977 4.87511 15.0918 3.79423 14.672C3.07364 14.3897 2.51849 13.8433 2.22805 13.1303C1.79791 12.0627 1.89717 9.52937 1.89717 8.34957C1.89717 7.16977 1.80158 4.63283 2.22805 3.56883C2.51482 2.85951 3.06996 2.31303 3.79423 2.02713C4.87879 1.6037 7.45232 1.70142 8.65085 1.70142C9.84938 1.70142 12.4266 1.60732 13.5075 2.02713C14.2281 2.30941 14.7832 2.85589 15.0736 3.56883C15.5038 4.63645 15.4045 7.16977 15.4045 8.34957C15.4045 9.52937 15.5038 12.0663 15.0736 13.1303Z" fill="#691803"/>
</svg>
