<svg width="17" height="16" viewBox="0 0 17 16" fill="none" xmlns="http://www.w3.org/2000/svg">
<path d="M4.00412 15.5591V5.14097H0.472926L0.472926 15.5591H4.00412ZM2.23898 3.71769C3.47037 3.71769 4.23685 2.9177 4.23685 1.91798C4.21391 0.895708 3.47042 0.11792 2.26235 0.11792C1.05447 0.11792 0.264587 0.895723 0.264587 1.91798C0.264587 2.91775 1.03088 3.71769 2.21593 3.71769H2.23887H2.23898ZM5.95863 15.5591H9.48982V9.74112C9.48982 9.42975 9.51277 9.1187 9.60602 8.89611C9.8613 8.274 10.4423 7.62967 11.4178 7.62967C12.6956 7.62967 13.2068 8.58505 13.2068 9.98557V15.559H16.7377V9.58538C16.7377 6.38533 14.9956 4.89638 12.6723 4.89638C10.7674 4.89638 9.93099 5.94055 9.46633 6.65172H9.4899V5.14075H5.95871C6.00505 6.11834 5.95871 15.5589 5.95871 15.5589L5.95863 15.5591Z" fill="#691803"/>
</svg>
