<svg width="33" height="33" viewBox="0 0 33 33" fill="none" xmlns="http://www.w3.org/2000/svg">
<g clip-path="url(#clip0_0_1160)">
<path d="M15.7358 10.482L9.79411 12.0741C9.47977 12.1583 9.26031 12.4443 9.26031 12.7696C9.26031 13.095 9.47977 13.3809 9.79398 13.4651L11.7604 13.992V16.683C11.7604 16.8415 11.8436 16.9883 11.9794 17.0699C12.3239 17.2767 12.6892 17.4568 13.0697 17.6095C12.7805 18.1247 12.6149 18.7182 12.6149 19.3499C12.6149 21.3173 14.2156 22.918 16.183 22.918C18.1505 22.918 19.7511 21.3173 19.7511 19.3499C19.7511 18.7182 19.5854 18.1247 19.2963 17.6096C19.6768 17.4569 20.0421 17.2767 20.3867 17.0699C20.5225 16.9883 20.6057 16.8415 20.6057 16.683V13.9919L22.0041 13.6172V15.362L21.3031 16.0631C21.2185 16.1476 21.1709 16.2624 21.1709 16.3821V18.894C21.1709 19.1129 21.3014 19.3084 21.5036 19.3921C21.5707 19.4199 21.6409 19.4335 21.7105 19.4335C21.8505 19.4335 21.9877 19.3787 22.0912 19.2753L22.4552 18.9113L22.8193 19.2753C22.974 19.43 23.2047 19.4761 23.4068 19.3921C23.6089 19.3084 23.7396 19.1129 23.7396 18.894V16.3821C23.7396 16.2624 23.6921 16.1476 23.6074 16.0631L22.9063 15.362V13.2657C23.0307 13.135 23.1056 12.9592 23.1056 12.7696C23.1056 12.4442 22.8861 12.1582 22.5719 12.0741L16.6301 10.4819C16.3291 10.4014 16.0366 10.4014 15.7356 10.4819L15.7358 10.482ZM16.183 22.0157C14.713 22.0157 13.5172 20.8198 13.5172 19.3499C13.5172 17.88 14.7131 16.6841 16.183 16.6841C17.6529 16.6841 18.8488 17.88 18.8488 19.3499C18.8488 20.8198 17.6529 22.0157 16.183 22.0157ZM19.7033 16.422C19.3959 16.5908 19.0714 16.7368 18.7342 16.8587C18.0859 16.1949 17.182 15.7817 16.183 15.7817C15.1841 15.7817 14.2802 16.1949 13.6319 16.8587C13.2947 16.7367 12.9702 16.5908 12.6628 16.4219V14.2338L15.7358 15.0572C15.8863 15.0975 16.0347 15.1177 16.183 15.1177C16.3314 15.1177 16.4798 15.0976 16.6303 15.0572L19.7033 14.2338V16.422ZM22.8374 18.0172L22.7743 17.9541C22.6897 17.8695 22.5749 17.8219 22.4553 17.8219C22.3357 17.8219 22.2209 17.8694 22.1362 17.9541L22.0733 18.0171V16.569L22.4553 16.1869L22.8374 16.569V18.0172ZM16.3967 14.1856C16.247 14.2258 16.119 14.2258 15.9692 14.1856L10.6848 12.7696L15.9692 11.3536C16.119 11.3135 16.247 11.3135 16.3967 11.3536L21.6812 12.7696L16.3967 14.1856ZM17.5434 20.1511C17.5015 20.4945 17.2869 20.7939 16.9694 20.9519C16.8668 21.003 16.7535 21.0421 16.634 21.0692V21.2022C16.634 21.4514 16.432 21.6534 16.1828 21.6534C15.9337 21.6534 15.7317 21.4514 15.7317 21.2022V21.0552C15.3672 20.9629 15.0418 20.7624 14.8703 20.4492C14.7507 20.2307 14.8309 19.9565 15.0494 19.8369C15.2678 19.7173 15.542 19.7974 15.6617 20.0159C15.7542 20.1846 16.2839 20.285 16.5674 20.1441C16.6326 20.1116 16.6453 20.0618 16.6477 20.0419C16.6509 20.0157 16.6542 19.9887 16.5541 19.9299C16.4224 19.8527 16.2555 19.8129 16.0623 19.7669C15.9812 19.7475 15.8972 19.7276 15.8106 19.7034C15.5353 19.6266 15.1921 19.4951 14.9805 19.1562C14.7458 18.7806 14.8 18.3076 15.1154 17.9792C15.2841 17.8034 15.5036 17.6968 15.7317 17.64V17.4977C15.7317 17.2485 15.9337 17.0465 16.1828 17.0465C16.432 17.0465 16.634 17.2485 16.634 17.4977V17.6437C17.0019 17.7374 17.29 17.9416 17.4405 18.221C17.5587 18.4403 17.4767 18.714 17.2573 18.8321C17.0381 18.9504 16.7645 18.8683 16.6462 18.6489C16.6217 18.6036 16.5122 18.5261 16.3105 18.4986C16.0687 18.4658 15.8396 18.5277 15.7663 18.6041C15.7259 18.6462 15.7374 18.6647 15.7458 18.6781C15.7821 18.7363 15.8798 18.7859 16.0531 18.8342C16.1231 18.8538 16.1951 18.8709 16.2715 18.8891C16.5018 18.944 16.7629 19.0061 17.0112 19.1519C17.4049 19.3833 17.5939 19.7381 17.5436 20.1511H17.5434ZM27.9845 16.9512C28.1962 18.0598 29.1724 18.9004 30.3417 18.9004C31.6653 18.9004 32.7421 17.8236 32.7421 16.5001C32.7421 15.1765 31.6653 14.0996 30.3417 14.0996C29.1724 14.0996 28.1962 14.9403 27.9845 16.0489H25.8592C25.7625 14.0197 25.0172 12.1578 23.8268 10.6658H30.0347C30.2839 10.6658 30.4859 10.4638 30.4859 10.2147V5.63449C31.7646 5.41896 32.7422 4.30444 32.7422 2.96536C32.7422 1.47243 31.5276 0.257812 30.0347 0.257812C28.5418 0.257812 27.3272 1.47243 27.3272 2.96536C27.3272 4.3045 28.3047 5.41903 29.5835 5.63449V9.76349H23.006C21.4204 8.23163 19.2976 7.25265 16.9511 7.14083V5.01548C18.0597 4.80369 18.9004 3.82755 18.9004 2.65824C18.9004 1.33463 17.8235 0.257812 16.4999 0.257812C15.1763 0.257812 14.0995 1.33463 14.0995 2.65824C14.0995 3.82755 14.9402 4.80376 16.0488 5.01548V7.14083C13.7024 7.25265 11.5795 8.23157 9.99385 9.76349H3.41647V5.63449C4.69522 5.41896 5.67278 4.30444 5.67278 2.96536C5.67278 1.47243 4.45816 0.257812 2.9653 0.257812C1.47243 0.257812 0.257816 1.47237 0.257816 2.96529C0.257816 4.30444 1.23538 5.41896 2.51419 5.63443V10.2146C2.51419 10.4638 2.71619 10.6658 2.96536 10.6658H9.17329C7.98278 12.1577 7.23751 14.0196 7.14089 16.0488H5.01562C4.80382 14.9402 3.82768 14.0996 2.65831 14.0996C1.33476 14.0996 0.257945 15.1764 0.257945 16.5C0.257945 17.8236 1.33476 18.9004 2.65831 18.9004C3.82768 18.9004 4.80382 18.0597 5.01562 16.9512H7.14096C7.23764 18.9803 7.98291 20.8422 9.17342 22.3342H2.9653C2.71612 22.3342 2.51413 22.5362 2.51413 22.7853V27.3654C1.23531 27.581 0.257751 28.6955 0.257751 30.0346C0.257751 31.5275 1.47237 32.7421 2.9653 32.7421C4.45823 32.7421 5.67278 31.5275 5.67278 30.0346C5.67278 28.6955 4.69528 27.5809 3.41647 27.3654V23.2365H9.99398C11.5796 24.7684 13.7024 25.7473 16.0488 25.8592V27.9845C14.9402 28.1962 14.0996 29.1725 14.0996 30.3418C14.0996 31.6654 15.1764 32.7423 16.5 32.7423C17.8236 32.7423 18.9004 31.6654 18.9004 30.3418C18.9004 29.1725 18.0598 28.1962 16.9512 27.9845V25.8592C19.2976 25.7473 21.4204 24.7684 23.006 23.2365H29.5835V27.3654C28.3047 27.581 27.3272 28.6955 27.3272 30.0346C27.3272 31.5275 28.5418 32.7421 30.0347 32.7421C31.5276 32.7421 32.7422 31.5275 32.7422 30.0346C32.7422 28.6955 31.7647 27.5809 30.4859 27.3654V22.7853C30.4859 22.5362 30.2839 22.3342 30.0347 22.3342H23.8267C25.0172 20.8422 25.7625 18.9803 25.8592 16.9512H27.9845L27.9845 16.9512ZM30.3417 15.002C31.1677 15.002 31.8398 15.674 31.8398 16.5001C31.8398 17.3261 31.1677 17.9981 30.3417 17.9981C29.5157 17.9981 28.8437 17.326 28.8437 16.5001C28.8437 15.6741 29.5157 15.002 30.3417 15.002ZM28.2295 2.96536C28.2295 1.97001 29.0393 1.16016 30.0347 1.16016C31.0301 1.16016 31.8398 1.96995 31.8398 2.96536C31.8398 3.96077 31.0301 4.7705 30.0347 4.7705C29.0393 4.7705 28.2295 3.96077 28.2295 2.96536ZM1.1601 2.96536C1.1601 1.97001 1.96988 1.16016 2.9653 1.16016C3.96071 1.16016 4.77044 1.96995 4.77044 2.96536C4.77044 3.96077 3.96071 4.7705 2.9653 4.7705C1.96988 4.7705 1.1601 3.96077 1.1601 2.96536ZM2.65818 17.9981C1.83221 17.9981 1.16016 17.326 1.16016 16.5001C1.16016 15.6741 1.83221 15.002 2.65818 15.002C3.48415 15.002 4.15626 15.674 4.15626 16.5001C4.15626 17.3261 3.48421 17.9981 2.65818 17.9981ZM4.77037 30.0347C4.77037 31.0301 3.96065 31.8398 2.96523 31.8398C1.96982 31.8398 1.16003 31.0301 1.16003 30.0347C1.16003 29.0393 1.96982 28.2295 2.96523 28.2295C3.96065 28.2295 4.77037 29.0393 4.77037 30.0347ZM31.8398 30.0347C31.8398 31.0301 31.0301 31.8398 30.0346 31.8398C29.0392 31.8398 28.2294 31.0301 28.2294 30.0347C28.2294 29.0393 29.0392 28.2295 30.0346 28.2295C31.0301 28.2295 31.8398 29.0393 31.8398 30.0347ZM15.0019 2.65824C15.0019 1.83221 15.674 1.16016 16.5 1.16016C17.326 1.16016 17.9981 1.83221 17.9981 2.65824C17.9981 3.48427 17.326 4.15626 16.5 4.15626C15.674 4.15626 15.0019 3.48421 15.0019 2.65824ZM17.9981 30.3418C17.9981 31.1679 17.326 31.8399 16.5 31.8399C15.674 31.8399 15.0019 31.1679 15.0019 30.3418C15.0019 29.5158 15.674 28.8437 16.5 28.8437C17.326 28.8437 17.9981 29.5158 17.9981 30.3418ZM16.5 24.9679C11.8308 24.9679 8.03209 21.1692 8.03209 16.5C8.03209 11.8308 11.8308 8.03215 16.5 8.03215C21.1692 8.03215 24.9679 11.8308 24.9679 16.5C24.9679 21.1692 21.1692 24.9679 16.5 24.9679Z" fill="white"/>
</g>
<defs>
<clipPath id="clip0_0_1160">
<rect width="33" height="33" fill="white"/>
</clipPath>
</defs>
</svg>
