<svg width="43" height="36" viewBox="0 0 43 36" fill="none" xmlns="http://www.w3.org/2000/svg">
<g clip-path="url(#clip0_1_472)">
<path d="M40.7195 10.7271C40.6595 10.9514 40.6595 11.1039 40.5867 11.1965C39.7059 12.3127 40.551 13.2737 40.8829 14.2568C40.9582 14.4811 41.3757 14.618 41.6591 14.7328C42.6523 15.1331 42.6728 15.1461 42.6728 16.2466C42.6728 16.8334 42.6536 17.4202 42.6779 18.0056C42.7021 18.5859 42.5055 19.0084 41.9234 19.1062C40.5612 19.3343 40.6123 20.6435 40.1552 21.5406C40.0518 21.744 40.3353 22.1795 40.4872 22.4846C40.7655 23.0414 40.7297 23.4952 40.2446 23.932C39.7199 24.4053 39.2373 24.9295 38.7522 25.4472C38.4305 25.7901 38.0501 25.9335 37.6735 25.648C36.5462 24.79 35.627 25.6623 34.6759 26.0313C34.4346 26.1252 34.3108 26.6324 34.2061 26.9741C34.0172 27.5843 33.6572 27.8438 33.0252 27.8086C32.3257 27.7695 31.6222 27.7956 30.9214 27.8008C30.4618 27.8047 30.0915 27.6195 30.029 27.1436C29.8413 25.704 28.5545 25.7001 27.6417 25.2581C27.3991 25.1407 26.928 25.4394 26.5948 25.6141C26.0778 25.8853 25.6859 25.7992 25.2965 25.3624C24.8114 24.8174 24.288 24.3062 23.7658 23.7951C23.4275 23.4639 23.2999 23.074 23.5871 22.6933C24.4527 21.5458 23.5437 20.6109 23.2194 19.6369C23.1339 19.38 22.5926 19.2366 22.2351 19.1309C21.6581 18.9614 21.473 18.6028 21.4998 18.02C21.533 17.2833 21.5253 16.5426 21.5024 15.8059C21.487 15.3195 21.6658 14.9623 22.1292 14.8958C23.5258 14.6937 23.545 13.3871 23.9777 12.4561C24.0977 12.1992 23.776 11.6933 23.5948 11.3347C23.3471 10.8471 23.439 10.4833 23.8194 10.1208C24.3467 9.61745 24.8586 9.09588 25.3501 8.55605C25.7089 8.16226 26.125 8.03578 26.5387 8.34481C27.68 9.19889 28.5685 8.24832 29.5234 7.91582C29.7405 7.84019 29.8528 7.33557 29.9409 7.00828C30.1196 6.3498 30.5116 6.11248 31.1677 6.15943C31.8022 6.20506 32.4444 6.19854 33.0801 6.15943C33.6636 6.12422 34.0721 6.35241 34.1589 6.92353C34.3734 8.33438 35.6755 8.25093 36.5398 8.73599C36.7403 8.84944 37.2024 8.53649 37.5164 8.36568C38.0514 8.0762 38.4675 8.16878 38.8722 8.62516C39.342 9.15586 39.8667 9.63571 40.348 10.156C40.5127 10.3346 40.6187 10.5706 40.7208 10.731L40.7195 10.7271ZM22.8901 17.8518C23.1186 17.9483 23.2884 18.0487 23.4722 18.0943C24.1399 18.2573 24.4948 18.6641 24.6607 19.3604C24.7935 19.9198 25.1408 20.4218 25.3169 20.9747C25.4178 21.2928 25.4663 21.6997 25.3603 21.9996C24.9965 23.0271 24.9914 22.9919 25.7152 23.7964C26.0765 24.198 26.3855 24.2423 26.8106 23.9633C27.3634 23.5995 27.8919 23.6165 28.4613 24.0076C28.8404 24.2684 29.2988 24.4601 29.7481 24.5514C30.449 24.6935 30.8435 25.0873 30.9762 25.7719C31.1511 26.6703 31.8405 26.2856 32.3461 26.3756C32.8631 26.4668 33.0712 26.1813 33.1823 25.7327C33.3342 25.1173 33.6687 24.7326 34.3198 24.5788C34.8483 24.4536 35.3602 24.198 35.8402 23.9268C36.2909 23.6712 36.7007 23.5695 37.1437 23.8825C37.7501 24.3101 38.2339 24.1745 38.6399 23.5747C38.7229 23.4522 38.8875 23.3752 38.9424 23.2448C39.0139 23.0727 39.1059 22.8106 39.0305 22.6894C38.5033 21.8431 38.6207 21.0634 39.1531 20.2797C39.2833 20.088 39.3854 19.8481 39.4135 19.6199C39.5322 18.6276 40.1527 18.1712 41.0285 17.96C41.1089 17.9404 41.1829 17.8948 41.2966 17.8453C41.2966 17.5493 41.2583 17.2402 41.3042 16.9455C41.4076 16.291 41.1638 15.9363 40.528 15.8046C39.9472 15.6846 39.6548 15.2869 39.5118 14.6937C39.3905 14.1942 39.2067 13.687 38.9373 13.2554C38.5812 12.6843 38.5454 12.1497 38.9118 11.6242C39.425 10.8875 38.7573 10.6202 38.4407 10.1834C38.0973 9.70873 37.7296 9.73611 37.302 10.0099C36.7568 10.3607 36.2551 10.3137 35.7023 9.95908C35.2785 9.68656 34.7844 9.48967 34.2942 9.37231C33.7325 9.23801 33.3572 8.95505 33.2423 8.39045C33.1031 7.70458 32.7125 7.47248 32.0665 7.58723C31.9222 7.61331 31.7499 7.5455 31.6248 7.60157C31.4243 7.69024 31.1333 7.81281 31.086 7.97971C30.855 8.81162 30.4196 9.36058 29.5324 9.46098C29.3498 9.48184 29.1558 9.5666 29.0026 9.67482C28.0745 10.3268 27.1425 10.4689 26.1838 9.64483C25.9208 9.93691 25.7357 10.216 25.4842 10.405C24.9991 10.7701 24.9288 11.16 25.2582 11.6672C25.6003 12.1927 25.5391 12.6921 25.225 13.245C24.9314 13.7626 24.8037 14.3781 24.5356 14.9153C24.385 15.2152 24.1386 15.6012 23.8641 15.6768C23.0267 15.9063 22.7292 16.3835 22.8837 17.2272C22.922 17.4345 22.8888 17.6549 22.8888 17.8557L22.8901 17.8518Z" fill="#858484"/>
<path d="M5.66185 17.2336C2.99496 14.8083 3.65881 11.5081 5.26865 9.94207C7.08402 8.17654 9.90666 8.14264 11.7335 9.89382C13.7812 11.8562 13.6778 14.5241 11.4348 17.2219C11.911 17.4644 12.3974 17.6744 12.8493 17.9469C15.1855 19.3591 16.5528 21.4636 17.0315 24.1771C17.1911 25.0794 16.9396 25.3532 16.0192 25.3532C11.0224 25.3545 6.02569 25.3545 1.02895 25.3532C0.10211 25.3532 -0.113641 25.1068 0.0484913 24.1693C0.596167 21.0033 2.32218 18.7671 5.18694 17.4449C5.33886 17.3745 5.49206 17.3093 5.66057 17.2336H5.66185ZM1.5613 23.902H15.4843C15.2557 21.5718 12.6974 18.3381 8.86109 18.1751C4.7248 17.9991 1.90982 21.285 1.5613 23.902ZM11.8242 13.3779C11.8242 11.5029 10.3113 9.96032 8.50236 9.99031C6.70103 10.019 5.2329 11.5381 5.2329 13.3753C5.2329 15.2556 6.71252 16.7512 8.56364 16.7408C10.3803 16.7303 11.8242 15.2412 11.8254 13.3792L11.8242 13.3779Z" fill="#858484"/>
<path d="M21.6709 3.53973C18.7512 3.53973 15.6694 3.53973 12.5876 3.53973C12.3757 3.53973 12.1587 3.55538 11.9518 3.52017C11.5497 3.45237 11.2191 3.20332 11.3352 2.78215C11.408 2.52136 11.7399 2.31012 11.994 2.1367C12.1127 2.05586 12.3259 2.11845 12.4957 2.11845C15.3873 2.11845 18.2801 2.11845 21.1717 2.11845H21.8777C21.833 1.8707 21.7602 1.66077 21.7666 1.45474C21.7819 0.888838 22.3449 0.611101 22.8313 0.955339C23.4058 1.36347 23.9599 1.80681 24.4922 2.27101C24.8931 2.62176 24.8637 3.04554 24.4782 3.39108C24.0479 3.77705 23.5756 4.11476 23.13 4.48378C22.8032 4.75369 22.419 5.06142 22.0653 4.70284C21.8368 4.47204 21.8228 4.02088 21.6721 3.53843L21.6709 3.53973Z" fill="#858484"/>
<path d="M14.4209 32.4087C16.0141 32.4087 17.7988 32.4087 19.5836 32.4087C21.03 32.4087 22.4751 32.4048 23.9216 32.4126C24.3697 32.4153 24.745 32.5769 24.7501 33.105C24.7552 33.6618 24.3926 33.8313 23.8986 33.8313C20.8998 33.8274 17.9022 33.83 14.9034 33.83C14.6749 33.83 14.4451 33.83 14.186 33.83C14.2447 34.0908 14.3392 34.2981 14.3302 34.5015C14.306 35.0427 13.7059 35.3217 13.2387 34.9892C12.6642 34.5811 12.1127 34.1338 11.5791 33.6709C11.1769 33.3215 11.1897 32.9068 11.5893 32.5574C12.0412 32.1636 12.5289 31.8115 12.9898 31.4269C13.3051 31.1648 13.6842 30.9079 14.006 31.2352C14.2332 31.466 14.2549 31.9067 14.4196 32.4087H14.4209Z" fill="#858484"/>
<path d="M20.1516 28.9937C18.1831 28.9937 16.2324 28.9937 14.283 28.9937C14.0915 28.9937 13.9 29.0055 13.7097 28.9859C13.2872 28.9442 12.9846 28.6769 13.0714 28.2701C13.1276 28.008 13.4302 27.7263 13.6906 27.6051C13.9383 27.4903 14.274 27.5712 14.5715 27.5712C16.4175 27.5712 18.2635 27.5712 20.1682 27.5712C20.1274 27.4225 20.0559 27.3065 20.0738 27.2074C20.1274 26.9335 20.1427 26.5802 20.3163 26.4237C20.467 26.2881 20.8832 26.2698 21.0606 26.3885C21.6785 26.8044 22.2657 27.2752 22.8198 27.7785C23.1888 28.1136 23.1249 28.5295 22.756 28.8477C22.2696 29.2663 21.7845 29.6966 21.2483 30.0395C21.0083 30.1934 20.5997 30.2612 20.347 30.1595C19.9589 30.0043 19.9257 29.6053 20.121 29.218C20.1465 29.1672 20.1389 29.0981 20.1516 28.9937Z" fill="#858484"/>
<path d="M16.0907 8.37727C15.9732 8.82843 15.9834 9.28481 15.7651 9.51951C15.3949 9.91852 14.9915 9.59775 14.6481 9.3174C14.2664 9.00576 13.8783 8.70325 13.4966 8.39292C12.8736 7.88569 12.8774 7.45278 13.5132 6.93382C13.9115 6.60914 14.3174 6.29489 14.717 5.97152C15.0247 5.72116 15.3324 5.47602 15.7409 5.7668C16.1686 6.07062 16.0754 6.4631 15.8596 6.95598C16.1277 6.95598 16.346 6.95598 16.5643 6.95598C18.455 6.95598 20.3457 6.95598 22.2364 6.95598C22.7126 6.95598 23.033 7.18026 23.0356 7.67836C23.0381 8.15299 22.7126 8.35249 22.2747 8.37336C22.1266 8.38118 21.9772 8.37597 21.8291 8.37597C20.0661 8.37597 18.3031 8.37597 16.5401 8.37597H16.092L16.0907 8.37727Z" fill="#858484"/>
<path d="M32.115 11.5108C35.0513 11.5212 37.4603 14.0169 37.436 17.0238C37.4118 20.0189 34.9542 22.4964 32.0333 22.4703C29.0894 22.4442 26.7046 19.9616 26.7251 16.939C26.7455 13.9126 29.1405 11.5003 32.115 11.5108ZM28.1191 16.8973C28.0757 19.1609 29.7979 20.9969 31.995 21.0308C34.1972 21.0647 36.0241 19.2783 36.0573 17.059C36.0904 14.8254 34.3261 12.9568 32.1533 12.9229C29.9345 12.8877 28.1625 14.6337 28.1191 16.896V16.8973Z" fill="#858484"/>
</g>
<defs>
<clipPath id="clip0_1_472">
<rect width="42.6804" height="34.3299" fill="white" transform="translate(0 0.804077)"/>
</clipPath>
</defs>
</svg>
