<svg width="29" height="29" viewBox="0 0 29 29" fill="none" xmlns="http://www.w3.org/2000/svg">
<g clip-path="url(#clip0_1_775)">
<path d="M3.75869 15.0683C3.81239 15.1631 3.8904 15.2418 3.98469 15.2964C4.07898 15.351 4.18612 15.3794 4.29506 15.3787H6.73531V18.6512C6.73583 19.1072 6.91719 19.5444 7.23961 19.8668C7.56203 20.1892 7.99918 20.3706 8.45515 20.3711H11.5425V22.3573C11.5428 22.5887 11.6348 22.8105 11.7984 22.9741C11.962 23.1377 12.1838 23.2298 12.4152 23.23H20.7101C20.9414 23.2298 21.1632 23.1377 21.3268 22.9741C21.4904 22.8105 21.5825 22.5887 21.5827 22.3573V18.1133C21.5793 17.9132 21.6242 17.7151 21.7136 17.536C21.803 17.3569 21.9343 17.202 22.0964 17.0845C24.2281 15.4809 25.4535 12.8613 25.4585 9.89766C25.4605 8.36365 25.1348 6.84692 24.5031 5.449C23.8462 4.00577 22.8728 2.76875 21.6885 1.87189C20.2948 0.816488 18.554 0.180517 16.6544 0.0327527C14.8429 -0.109653 13.0241 0.197072 11.3595 0.925739C8.36038 2.24765 6.48076 4.72787 6.20297 7.73009C6.20168 7.74384 6.20101 7.75771 6.20101 7.77152V10.2682L3.76093 14.4484C3.70544 14.5422 3.67598 14.6491 3.67558 14.7581C3.67519 14.867 3.70387 14.9741 3.75869 15.0683ZM7.03808 10.6163C7.07815 10.5475 7.09926 10.4694 7.09927 10.3898V7.7928C7.35303 5.13377 9.03683 2.93095 11.7218 1.74771C14.8654 0.362023 18.6527 0.699714 21.1462 2.58803C23.2565 4.1861 24.5646 6.98633 24.56 9.89592C24.5556 12.5755 23.4609 14.9341 21.5564 16.3667C21.2829 16.5678 21.0612 16.8311 20.9096 17.1348C20.758 17.4385 20.6808 17.7739 20.6844 18.1133V22.3318H12.4407V20.3456C12.4404 20.1142 12.3484 19.8924 12.1848 19.7288C12.0212 19.5652 11.7994 19.4732 11.568 19.4729H8.45503C8.23722 19.4726 8.0284 19.386 7.8744 19.2319C7.72041 19.0779 7.63379 18.8691 7.63357 18.6512V15.3534C7.6333 15.122 7.54127 14.9002 7.37766 14.7366C7.21405 14.573 6.99223 14.4809 6.76085 14.4807H4.7822L7.03808 10.6163ZM13.0749 12.6251C13.1906 12.7099 13.2682 12.837 13.2907 12.9788L13.4795 13.9965C13.5106 14.1643 13.5814 14.3221 13.6861 14.4568C13.7908 14.5915 13.9262 14.6992 14.081 14.7707C14.127 15.1531 14.3115 15.5053 14.5997 15.7608C14.8878 16.0163 15.2595 16.1574 15.6446 16.1574C16.0297 16.1574 16.4014 16.0163 16.6895 15.7608C16.9776 15.5053 17.1621 15.1531 17.2081 14.7707C17.363 14.6992 17.4984 14.5915 17.6031 14.4568C17.7078 14.3221 17.7787 14.1643 17.8098 13.9965L17.9985 12.9787C18.0211 12.837 18.0986 12.7099 18.2143 12.625C18.9076 12.0889 19.4158 11.3494 19.6679 10.5101C19.9199 9.67071 19.9031 8.77355 19.6199 7.94422C19.3366 7.11489 18.8011 6.39492 18.0882 5.88512C17.3754 5.37533 16.521 5.10124 15.6446 5.10124C14.7682 5.10124 13.9138 5.37533 13.201 5.88512C12.4881 6.39492 11.9526 7.11489 11.6693 7.94422C11.3861 8.77355 11.3693 9.67071 11.6213 10.5101C11.8734 11.3494 12.3816 12.089 13.0749 12.6251ZM15.3129 8.94089C15.3129 8.87527 15.3323 8.81112 15.3688 8.75655C15.4053 8.70199 15.4571 8.65946 15.5177 8.63435C15.5784 8.60924 15.6451 8.60267 15.7094 8.61548C15.7738 8.62828 15.8329 8.65989 15.8793 8.7063C15.9257 8.7527 15.9573 8.81183 15.9701 8.8762C15.9829 8.94056 15.9763 9.00728 15.9512 9.0679C15.9261 9.12853 15.8835 9.18035 15.829 9.2168C15.7744 9.25325 15.7103 9.2727 15.6446 9.27269C15.5566 9.27258 15.4723 9.23756 15.4101 9.17531C15.3479 9.11306 15.3129 9.02867 15.3129 8.94067V8.94089ZM17.0341 13.2535L16.9266 13.8329C16.9201 13.8722 16.8997 13.9078 16.8692 13.9332C16.8386 13.9586 16.7999 13.9722 16.7601 13.9713H14.5292C14.4894 13.9722 14.4507 13.9586 14.4201 13.9332C14.3895 13.9078 14.3691 13.8722 14.3627 13.8329L14.2552 13.2535H17.0341ZM16.0113 15.152C15.9301 15.2043 15.8387 15.2387 15.7431 15.2528C15.6475 15.2668 15.55 15.2602 15.4572 15.2335C15.3644 15.2067 15.2783 15.1604 15.2049 15.0977C15.1314 15.0349 15.0723 14.9571 15.0314 14.8696H16.2579C16.2039 14.985 16.1184 15.0828 16.0113 15.1518V15.152ZM15.6446 5.99964C16.3337 5.99961 17.0054 6.2151 17.5659 6.61593C18.1263 7.01676 18.5474 7.58285 18.77 8.23491C18.9927 8.88698 19.0058 9.59235 18.8075 10.2522C18.6093 10.9121 18.2096 11.4935 17.6644 11.9149C17.5084 12.0344 17.3781 12.1841 17.2813 12.3552H16.0938V10.0854C16.3605 9.98081 16.5824 9.78631 16.7211 9.53552C16.8597 9.28473 16.9065 8.99341 16.8532 8.71183C16.8 8.43026 16.6501 8.17611 16.4294 7.99327C16.2088 7.81043 15.9312 7.71037 15.6446 7.71037C15.3581 7.71037 15.0805 7.81043 14.8598 7.99327C14.6392 8.17611 14.4893 8.43026 14.436 8.71183C14.3828 8.99341 14.4295 9.28473 14.5682 9.53552C14.7068 9.78631 14.9287 9.98081 15.1955 10.0854V12.355H14.0079C13.9111 12.1839 13.7808 12.0342 13.6248 11.9147C13.0797 11.4932 12.68 10.9119 12.4818 10.252C12.2836 9.59213 12.2967 8.88677 12.5194 8.23473C12.742 7.58268 13.163 7.0166 13.7234 6.61577C14.2839 6.21493 14.9556 5.99942 15.6446 5.99941V5.99964ZM15.1955 4.36901V3.16809C15.1955 3.04897 15.2428 2.93473 15.327 2.8505C15.4113 2.76627 15.5255 2.71895 15.6446 2.71895C15.7637 2.71895 15.878 2.76627 15.9622 2.8505C16.0464 2.93473 16.0938 3.04897 16.0938 3.16809V4.36879C16.0938 4.4879 16.0464 4.60214 15.9622 4.68637C15.878 4.7706 15.7637 4.81792 15.6446 4.81792C15.5255 4.81792 15.4113 4.7706 15.327 4.68637C15.2428 4.60214 15.1955 4.4879 15.1955 4.36879V4.36901ZM18.7974 6.12394C18.7557 6.08223 18.7226 6.03272 18.7001 5.97823C18.6775 5.92373 18.6659 5.86533 18.6659 5.80634C18.6659 5.74736 18.6775 5.68896 18.7001 5.63446C18.7226 5.57997 18.7557 5.53046 18.7974 5.48875L19.6465 4.63972C19.7309 4.55634 19.8448 4.50975 19.9635 4.51011C20.0821 4.51048 20.1958 4.55778 20.2797 4.64167C20.3636 4.72557 20.4109 4.83926 20.4112 4.9579C20.4116 5.07655 20.365 5.19051 20.2816 5.27491L19.4326 6.12394C19.3483 6.20815 19.2341 6.25546 19.115 6.25546C18.9959 6.25546 18.8816 6.20815 18.7974 6.12394ZM20.5525 8.82743H21.7532C21.8723 8.82743 21.9865 8.87475 22.0707 8.95898C22.155 9.04321 22.2023 9.15744 22.2023 9.27656C22.2023 9.39568 22.155 9.50992 22.0707 9.59415C21.9865 9.67838 21.8723 9.72569 21.7532 9.72569H20.5525C20.4333 9.72569 20.3191 9.67838 20.2349 9.59415C20.1506 9.50992 20.1033 9.39568 20.1033 9.27656C20.1033 9.15744 20.1506 9.04321 20.2349 8.95898C20.3191 8.87475 20.4333 8.82743 20.5525 8.82743ZM20.2817 13.2784C20.3239 13.32 20.3573 13.3695 20.3803 13.4241C20.4032 13.4787 20.4151 13.5373 20.4152 13.5965C20.4154 13.6557 20.4039 13.7144 20.3813 13.7691C20.3587 13.8239 20.3256 13.8736 20.2837 13.9155C20.2418 13.9573 20.1921 13.9905 20.1374 14.0131C20.0826 14.0357 20.024 14.0472 19.9648 14.047C19.9056 14.0469 19.847 14.035 19.7924 14.0121C19.7378 13.9892 19.6882 13.9557 19.6466 13.9136L18.7975 13.0645C18.7558 13.0228 18.7227 12.9733 18.7002 12.9188C18.6776 12.8643 18.666 12.8059 18.666 12.7469C18.666 12.688 18.6776 12.6296 18.7002 12.5751C18.7227 12.5206 18.7558 12.4711 18.7975 12.4294C18.8392 12.3876 18.8888 12.3546 18.9432 12.332C18.9977 12.3094 19.0561 12.2978 19.1151 12.2978C19.1741 12.2978 19.2325 12.3094 19.287 12.332C19.3415 12.3546 19.391 12.3876 19.4327 12.4294L20.2817 13.2784ZM12.4922 12.4295C12.5339 12.4712 12.567 12.5207 12.5895 12.5752C12.6121 12.6297 12.6237 12.6881 12.6237 12.7471C12.6237 12.8061 12.6121 12.8645 12.5895 12.919C12.567 12.9735 12.5339 13.023 12.4922 13.0647L11.6431 13.9137C11.5587 13.9971 11.4447 14.0437 11.3261 14.0433C11.2074 14.043 11.0937 13.9957 11.0099 13.9118C10.926 13.8279 10.8787 13.7142 10.8783 13.5956C10.878 13.4769 10.9246 13.363 11.008 13.2786L11.857 12.4295C11.8987 12.3878 11.9482 12.3547 12.0027 12.3321C12.0571 12.3095 12.1155 12.2979 12.1745 12.2979C12.2335 12.2978 12.2919 12.3094 12.3464 12.332C12.4009 12.3545 12.4504 12.3876 12.4922 12.4293V12.4295ZM9.08719 9.27684C9.08719 9.15773 9.13451 9.04349 9.21874 8.95926C9.30296 8.87503 9.4172 8.82771 9.53632 8.82771H10.737C10.8561 8.82771 10.9704 8.87503 11.0546 8.95926C11.1388 9.04349 11.1862 9.15773 11.1862 9.27684C11.1862 9.39596 11.1388 9.5102 11.0546 9.59443C10.9704 9.67866 10.8561 9.72598 10.737 9.72598H9.53632C9.47732 9.72598 9.4189 9.71435 9.36439 9.69177C9.30989 9.66918 9.26036 9.63608 9.21866 9.59435C9.17695 9.55262 9.14387 9.50308 9.12131 9.44856C9.09875 9.39405 9.08716 9.33562 9.08719 9.27662V9.27684ZM11.0078 5.27508C10.9244 5.19068 10.8778 5.07671 10.8782 4.95807C10.8785 4.83942 10.9258 4.72574 11.0097 4.64184C11.0936 4.55794 11.2073 4.51065 11.3259 4.51028C11.4445 4.50992 11.5585 4.55651 11.6429 4.63989L12.492 5.48903C12.5345 5.53057 12.5683 5.58012 12.5915 5.63481C12.6147 5.6895 12.6268 5.74825 12.6271 5.80765C12.6274 5.86705 12.616 5.92593 12.5934 5.98087C12.5708 6.03582 12.5375 6.08573 12.4955 6.12774C12.4535 6.16974 12.4036 6.20299 12.3486 6.22556C12.2937 6.24814 12.2348 6.25959 12.1754 6.25925C12.116 6.25891 12.0573 6.24679 12.0026 6.22359C11.9479 6.2004 11.8983 6.16658 11.8568 6.1241L11.0078 5.27508ZM2.7821 26.1297C2.7821 26.1987 2.79797 26.2667 2.82849 26.3285C2.859 26.3903 2.90333 26.4443 2.95805 26.4862L5.78433 28.6518C5.86274 28.7118 5.95875 28.7443 6.05751 28.7444H25.2275C25.5257 28.744 25.8115 28.6254 26.0223 28.4146C26.2331 28.2038 26.3516 27.918 26.352 27.6199V24.6395C26.3516 24.3414 26.2331 24.0556 26.0223 23.8448C25.8115 23.6339 25.5257 23.5154 25.2275 23.515H6.05751C5.95875 23.515 5.86274 23.5476 5.78433 23.6076L2.95805 25.7732C2.90332 25.8151 2.85899 25.8691 2.82847 25.9309C2.79796 25.9928 2.7821 26.0608 2.7821 26.1297ZM6.82951 26.5789H21.393V27.8461H6.82951V26.5789ZM22.2913 24.4133H22.7475V27.8461H22.2913V24.4133ZM21.393 25.6806H6.82951V24.4133H21.393V25.6806ZM25.4537 24.6395V27.6199C25.4537 27.6799 25.4298 27.7374 25.3874 27.7798C25.345 27.8222 25.2875 27.846 25.2275 27.8461H23.6458V24.4133H25.2275C25.2875 24.4134 25.345 24.4372 25.3874 24.4796C25.4298 24.522 25.4537 24.5795 25.4537 24.6395ZM5.93125 24.6267V27.6328L3.96967 26.1298L5.93125 24.6267Z" fill="#B82426"/>
</g>
<defs>
<clipPath id="clip0_1_775">
<rect width="28.7444" height="28.7444" fill="white" transform="translate(0.194824)"/>
</clipPath>
</defs>
</svg>
