<?xml version="1.0" encoding="UTF-8" standalone="no"?>
<svg
   xmlns="http://www.w3.org/2000/svg"
   width="319"
   height="319"
   viewBox="0 0 239.25 239.25">
  <g
     transform="matrix(0.0262008,0,0,-0.02619465,2.6272612,237.2955)"
     id="g94"
     style="fill:#000000;stroke:none;stroke-width:3.81712556">
    <path
       d="m 4055,8984 c -8,-12 -37,-18 -120,-24 -61,-4 -126,-13 -145,-19 -19,-6 -53,-11 -75,-11 -22,0 -58,-7 -80,-15 -22,-8 -58,-14 -80,-15 -22,0 -51,-7 -65,-15 -14,-8 -43,-15 -65,-15 -22,0 -51,-7 -65,-15 -14,-8 -38,-15 -55,-15 -16,0 -39,-7 -49,-15 -11,-8 -34,-15 -51,-15 -17,0 -35,-4 -40,-9 -6,-6 -28,-14 -50,-20 -37,-9 -55,-14 -145,-46 -83,-30 -194,-74 -270,-107 -51,-23 -358,-175 -398,-198 -15,-8 -49,-28 -77,-43 -27,-15 -63,-36 -80,-47 -16,-11 -43,-27 -60,-36 -16,-9 -41,-25 -55,-36 -38,-29 -92,-65 -124,-84 -16,-9 -52,-34 -80,-55 -28,-21 -82,-62 -120,-91 -38,-29 -102,-83 -141,-120 -39,-38 -75,-68 -79,-68 -20,0 -356,-336 -356,-356 0,-4 -30,-40 -68,-79 -37,-39 -91,-103 -120,-141 -29,-38 -70,-92 -91,-120 -21,-28 -46,-64 -55,-80 -19,-32 -55,-86 -84,-124 -11,-14 -27,-38 -36,-55 -9,-16 -25,-43 -36,-60 -11,-16 -32,-52 -47,-80 -15,-27 -35,-62 -43,-77 -23,-40 -175,-347 -198,-398 -33,-76 -77,-187 -107,-270 -32,-90 -37,-108 -46,-145 -6,-22 -14,-44 -20,-49 -5,-6 -9,-24 -9,-41 0,-17 -7,-40 -15,-51 -8,-10 -15,-32 -15,-49 0,-16 -7,-41 -15,-55 -8,-14 -15,-43 -15,-65 0,-22 -7,-51 -15,-65 -8,-14 -15,-43 -15,-65 -1,-22 -7,-58 -15,-80 -8,-22 -15,-58 -15,-80 0,-22 -5,-56 -11,-75 -24,-75 -33,-271 -33,-695 0,-427 9,-628 33,-688 6,-16 11,-49 11,-75 1,-26 7,-65 15,-87 8,-22 15,-54 15,-72 0,-17 5,-44 11,-60 7,-15 15,-48 20,-73 10,-61 29,-128 45,-168 8,-18 14,-43 14,-56 0,-13 7,-37 15,-52 8,-16 15,-36 15,-45 0,-9 7,-30 15,-45 8,-16 15,-36 15,-45 0,-9 7,-30 15,-45 8,-16 15,-37 15,-46 0,-9 4,-19 9,-22 5,-3 12,-18 16,-33 3,-16 20,-56 36,-91 16,-34 29,-67 29,-72 0,-6 4,-18 9,-28 5,-9 51,-100 101,-202 50,-101 105,-204 121,-228 16,-23 29,-46 29,-50 0,-4 21,-38 46,-77 25,-38 52,-82 60,-97 7,-14 20,-32 27,-40 8,-8 22,-28 31,-46 9,-17 25,-36 36,-42 11,-6 20,-18 20,-27 0,-18 73,-117 189,-258 94,-114 481,-506 541,-548 25,-17 70,-54 101,-82 99,-88 406,-304 457,-322 10,-3 25,-13 35,-22 29,-25 137,-83 347,-187 107,-52 204,-100 215,-104 39,-17 91,-38 135,-55 25,-9 59,-23 75,-30 17,-7 45,-16 62,-19 18,-4 35,-12 38,-17 4,-5 16,-9 28,-9 12,0 35,-7 51,-15 15,-8 38,-15 50,-15 11,-1 32,-7 46,-15 14,-8 39,-15 55,-15 17,0 39,-7 49,-15 11,-8 36,-15 55,-15 20,-1 47,-7 61,-15 14,-8 43,-15 65,-15 22,0 51,-7 65,-15 14,-8 46,-14 71,-15 26,0 66,-7 89,-15 23,-8 66,-15 96,-15 29,0 65,-5 81,-11 108,-43 1111,-43 1190,0 12,6 49,11 83,11 33,0 77,7 97,15 19,8 55,15 78,15 23,0 59,7 78,15 20,8 50,15 67,15 17,0 40,5 51,11 11,6 41,14 67,19 57,11 125,28 172,45 19,7 51,18 70,24 19,7 49,16 65,21 48,13 98,31 128,46 16,8 35,14 43,14 8,0 22,4 32,10 19,10 54,25 152,65 101,42 326,152 423,209 49,28 101,57 115,65 93,49 416,275 456,320 11,12 25,21 32,21 7,0 48,33 91,73 43,40 101,90 128,112 77,60 230,212 293,290 31,39 89,105 129,148 40,43 73,84 73,91 0,7 9,21 21,32 45,40 271,363 320,456 8,14 37,66 65,115 57,97 167,322 209,423 40,98 55,133 65,152 6,10 10,24 10,32 0,8 6,27 14,43 15,30 33,80 46,128 5,17 14,46 21,65 6,19 17,51 24,70 17,47 34,115 45,172 5,26 13,56 19,67 6,11 11,34 11,51 0,17 7,47 15,67 8,19 15,55 15,78 0,23 7,59 15,78 8,20 15,64 15,97 0,34 5,71 11,83 10,17 26,223 29,355 0,13 6,22 15,22 13,0 15,31 15,215 0,174 -3,215 -14,215 -14,0 -26,103 -26,235 0,39 -7,95 -15,125 -8,30 -15,78 -15,106 0,28 -7,71 -15,94 -8,23 -15,63 -15,89 -1,25 -7,57 -15,71 -8,14 -15,43 -15,65 0,22 -7,51 -15,65 -8,14 -14,41 -15,61 0,19 -7,44 -15,55 -8,10 -15,33 -15,49 0,17 -7,41 -15,55 -8,14 -14,35 -15,46 0,12 -7,35 -15,50 -8,16 -15,39 -15,51 0,12 -4,24 -9,28 -5,3 -13,20 -17,38 -3,17 -12,45 -19,62 -7,16 -21,50 -30,75 -17,44 -38,96 -55,135 -4,11 -52,108 -104,215 -104,210 -162,318 -187,347 -9,10 -19,25 -22,35 -18,51 -234,358 -322,457 -28,31 -65,76 -82,101 -42,60 -434,447 -548,541 -141,116 -240,189 -258,189 -9,0 -21,9 -27,20 -6,11 -25,27 -43,36 -18,9 -43,26 -57,36 -36,28 -194,128 -202,128 -4,0 -27,13 -50,29 -24,16 -127,71 -228,121 -102,50 -193,96 -202,101 -10,5 -22,9 -28,9 -5,0 -38,13 -72,29 -35,16 -75,33 -91,36 -15,4 -30,11 -33,16 -3,5 -13,9 -22,9 -9,0 -30,7 -46,15 -15,8 -36,15 -45,15 -9,0 -29,7 -45,15 -15,8 -36,15 -45,15 -9,0 -29,7 -45,15 -15,8 -39,15 -52,15 -13,0 -38,6 -56,14 -40,16 -107,35 -168,45 -25,5 -58,13 -73,20 -16,6 -43,11 -60,11 -18,0 -50,7 -72,15 -22,8 -60,14 -85,15 -25,0 -67,7 -94,15 -27,8 -79,16 -115,16 -82,2 -127,11 -124,27 2,9 -98,12 -425,12 -378,0 -428,-2 -437,-16 z m 888,-160 c 38,-8 92,-14 120,-14 29,0 77,-7 107,-15 30,-8 72,-15 93,-15 21,0 48,-5 59,-11 12,-7 47,-15 77,-20 54,-7 86,-15 201,-46 128,-35 167,-47 197,-60 17,-7 38,-13 46,-13 8,0 28,-7 43,-15 16,-8 36,-15 45,-15 9,0 30,-7 45,-15 16,-8 36,-15 45,-15 8,0 19,-4 25,-8 5,-5 32,-17 59,-27 187,-67 563,-264 785,-410 77,-51 103,-70 226,-162 39,-29 76,-53 82,-53 6,0 16,-8 21,-18 6,-10 50,-51 99,-90 109,-87 389,-365 451,-447 24,-33 66,-82 91,-110 26,-27 59,-68 74,-90 15,-22 45,-65 67,-95 71,-98 185,-273 244,-375 112,-193 261,-510 320,-680 9,-27 21,-59 25,-70 18,-45 39,-112 45,-142 4,-18 11,-35 16,-38 5,-4 9,-18 9,-33 0,-15 7,-40 15,-56 8,-15 15,-39 15,-52 0,-13 6,-41 14,-61 8,-21 17,-60 20,-88 4,-27 11,-54 16,-59 6,-6 10,-28 10,-50 1,-23 7,-59 15,-81 8,-22 15,-60 15,-85 0,-25 5,-61 10,-80 6,-19 15,-89 20,-155 6,-66 14,-163 20,-215 12,-124 12,-369 -1,-495 -5,-55 -14,-147 -19,-205 -9,-116 -24,-212 -46,-310 -8,-36 -14,-78 -14,-93 0,-15 -7,-44 -15,-64 -8,-19 -15,-50 -15,-68 0,-18 -7,-46 -15,-61 -8,-16 -15,-43 -15,-61 0,-17 -4,-34 -9,-38 -6,-3 -13,-26 -17,-52 -4,-25 -13,-58 -20,-72 -8,-14 -14,-33 -14,-41 -1,-14 -24,-83 -48,-143 -7,-16 -12,-32 -12,-37 0,-5 -7,-26 -16,-47 -9,-21 -20,-47 -25,-58 -48,-118 -96,-228 -115,-265 -13,-25 -24,-48 -24,-51 0,-4 -21,-44 -46,-90 -26,-46 -60,-109 -76,-139 -42,-80 -164,-279 -186,-304 -10,-11 -52,-67 -93,-124 -41,-57 -91,-126 -112,-155 -106,-147 -517,-558 -664,-664 -29,-21 -98,-71 -155,-112 -57,-41 -113,-83 -124,-93 -41,-37 -466,-283 -529,-307 -5,-2 -46,-21 -90,-41 -44,-21 -109,-50 -145,-64 -36,-15 -74,-31 -85,-35 -11,-5 -37,-16 -58,-25 -21,-9 -42,-16 -47,-16 -5,0 -21,-5 -37,-12 -60,-24 -129,-47 -143,-48 -8,0 -27,-6 -41,-14 -14,-7 -47,-16 -72,-20 -26,-4 -49,-11 -52,-17 -4,-5 -21,-9 -38,-9 -18,0 -45,-7 -61,-15 -15,-8 -43,-15 -61,-15 -18,0 -49,-7 -68,-15 -20,-8 -49,-15 -64,-15 -15,0 -57,-6 -93,-14 -98,-22 -194,-37 -310,-46 -58,-5 -150,-14 -205,-19 -126,-13 -371,-13 -495,-1 -52,6 -149,14 -215,20 -66,5 -136,14 -155,20 -19,5 -55,10 -80,10 -25,0 -63,7 -85,15 -22,8 -58,14 -80,15 -23,0 -45,4 -51,10 -5,5 -32,12 -59,16 -28,3 -67,12 -88,20 -20,8 -48,14 -61,14 -13,0 -37,7 -52,15 -16,8 -39,15 -50,15 -12,0 -35,7 -50,15 -16,8 -36,15 -44,15 -16,1 -108,31 -125,42 -5,3 -26,9 -45,13 -19,4 -41,11 -50,16 -8,5 -76,34 -150,65 -305,127 -615,300 -880,493 -30,22 -73,52 -95,67 -22,15 -62,48 -90,74 -27,25 -77,67 -110,91 -82,62 -360,342 -447,451 -39,49 -80,93 -90,99 -10,5 -18,15 -18,21 0,6 -24,43 -53,82 -92,123 -111,149 -162,226 -146,222 -343,598 -410,785 -10,28 -22,54 -27,60 -4,5 -8,16 -8,25 0,8 -7,28 -15,44 -8,15 -15,36 -15,45 0,9 -7,29 -15,45 -8,15 -15,35 -15,43 0,8 -6,29 -13,46 -13,30 -25,69 -60,197 -31,115 -39,147 -46,201 -5,30 -13,65 -20,77 -6,11 -11,38 -11,59 0,21 -7,63 -15,93 -8,30 -15,78 -15,107 0,28 -7,85 -16,125 -24,107 -24,795 0,913 9,44 16,103 16,130 0,28 7,72 15,99 8,27 15,66 15,86 0,21 7,57 15,80 8,23 15,55 15,70 0,15 7,44 15,63 8,20 15,51 15,70 0,18 4,37 10,43 5,5 14,30 19,54 16,72 33,133 47,167 8,17 14,40 14,50 0,10 4,23 9,29 5,5 14,25 19,44 12,41 58,166 71,195 23,48 51,114 51,120 0,4 39,84 86,178 88,176 182,339 263,460 25,38 57,86 71,106 43,64 94,133 126,170 17,20 45,56 63,81 91,129 504,542 616,617 22,14 58,42 80,62 78,69 246,183 449,306 130,78 400,216 506,259 36,15 74,31 85,36 28,14 153,60 195,72 19,5 39,14 45,19 5,5 18,9 28,9 10,0 33,6 50,14 34,14 95,31 167,47 24,5 49,14 54,19 6,6 25,10 43,10 19,0 50,7 70,15 19,8 48,15 63,15 15,0 47,7 70,15 23,8 59,15 80,15 20,0 59,7 86,15 27,8 74,15 104,15 30,0 73,5 95,11 111,29 811,32 948,3 z"
       id="path12"
       
       style="stroke-width:3.81712556" />
    <path
       d="m 4323,8521 c -20,-17 -23,-28 -22,-93 0,-69 10,-171 25,-265 10,-67 -16,-55 -77,34 -29,42 -66,96 -83,119 -17,23 -55,76 -85,118 -58,80 -66,84 -146,78 -61,-6 -78,-35 -65,-109 6,-32 15,-146 20,-253 4,-107 11,-202 15,-212 3,-9 10,-47 13,-85 l 7,-68 34,-3 c 59,-6 98,6 103,31 4,26 -6,223 -17,320 -5,41 -4,67 2,67 5,0 27,-25 49,-56 21,-31 51,-69 67,-85 15,-16 27,-33 27,-38 0,-12 95,-141 132,-178 27,-28 39,-33 78,-33 38,0 51,5 74,28 l 27,29 -10,89 c -5,49 -13,145 -16,214 -3,69 -12,179 -18,245 l -12,120 -50,2 c -37,2 -56,-2 -72,-16 z"
       id="path14"
       
       style="stroke-width:3.81712556" />
    <path
       d="m 4733,8515 c -13,-9 -23,-27 -23,-40 0,-13 -7,-50 -15,-82 -8,-31 -15,-78 -15,-103 -1,-25 -7,-72 -15,-105 -8,-33 -15,-82 -15,-110 0,-27 -7,-77 -15,-110 -18,-74 -19,-129 -2,-142 6,-6 30,-13 52,-16 22,-4 63,-11 90,-17 28,-6 104,-11 170,-12 102,-2 126,1 155,17 115,64 181,203 182,385 0,53 -19,132 -42,175 -34,63 -115,121 -180,130 -25,4 -56,10 -70,15 -14,5 -59,11 -100,14 -41,3 -88,8 -105,11 -20,4 -38,1 -52,-10 z m 292,-176 c 92,-44 110,-110 73,-274 -29,-133 -85,-168 -223,-142 -66,12 -70,15 -73,42 -2,15 1,47 8,69 6,23 15,82 20,131 12,109 23,176 34,194 13,20 101,9 161,-20 z"
       id="path16"
       
       style="stroke-width:3.81712556" />
    <path
       d="m 3530,8423 c -30,-11 -39,-34 -33,-87 3,-28 12,-63 19,-78 8,-15 14,-41 14,-58 0,-17 7,-47 15,-67 8,-19 15,-49 15,-65 0,-16 7,-45 15,-65 8,-19 15,-52 15,-72 1,-20 7,-47 15,-61 8,-14 14,-40 15,-57 0,-49 29,-113 50,-113 11,0 22,5 25,10 3,6 21,10 39,10 47,0 70,20 64,56 -8,42 -27,122 -44,175 -8,26 -14,59 -14,73 0,15 -7,43 -15,63 -8,19 -15,49 -15,65 0,16 -7,45 -15,65 -8,19 -15,47 -15,62 0,36 -34,131 -51,142 -15,9 -75,11 -99,2 z"
       id="path18"
       
       style="stroke-width:3.81712556" />
    <path
       d="m 5505,8380 c -10,-11 -21,-36 -25,-57 -5,-21 -13,-53 -19,-70 -6,-18 -16,-48 -22,-65 -6,-18 -15,-51 -19,-73 -4,-22 -13,-56 -20,-75 -29,-84 -33,-97 -39,-135 -4,-22 -13,-50 -19,-62 -7,-12 -12,-32 -12,-45 0,-13 -5,-29 -10,-34 -18,-18 10,-64 42,-71 16,-3 31,-10 34,-14 17,-29 77,13 87,61 5,24 11,43 37,120 7,19 16,53 20,75 4,22 13,55 19,73 29,84 34,99 41,132 20,81 33,127 47,162 18,44 13,55 -41,79 -53,24 -79,24 -101,-1 z"
       id="path20"
       
       style="stroke-width:3.81712556" />
    <path
       d="m 2940,8235 c -26,-14 -158,-75 -165,-75 -2,0 -36,-15 -77,-34 -40,-18 -83,-36 -95,-40 -55,-17 -52,-32 57,-271 15,-33 46,-105 70,-159 23,-54 46,-106 50,-115 5,-9 18,-37 30,-64 28,-60 51,-73 99,-57 21,6 48,20 61,30 21,16 23,21 13,42 -7,12 -21,46 -33,73 -12,28 -33,73 -47,102 -14,28 -24,56 -21,63 2,6 39,27 83,46 135,58 175,78 175,89 0,17 -44,87 -60,98 -12,7 -46,-4 -125,-37 -60,-26 -118,-46 -129,-44 -26,4 -65,92 -51,114 6,8 68,41 139,72 136,61 152,75 134,122 -22,58 -59,73 -108,45 z"
       id="path22"
       
       style="stroke-width:3.81712556" />
    <path
       d="m 5840,8018 c -113,-112 -234,-229 -268,-261 -34,-31 -62,-63 -62,-71 0,-18 30,-43 63,-51 15,-4 30,-11 33,-16 15,-24 52,-6 98,46 26,30 54,55 62,55 8,0 57,-20 108,-45 52,-25 99,-45 105,-45 20,0 31,-40 31,-115 v -76 l 55,-25 c 30,-14 65,-24 77,-22 23,3 23,7 35,213 14,267 16,521 3,545 -8,15 -108,70 -128,70 -3,0 -98,-91 -212,-202 z m 195,-110 c -10,-98 -15,-117 -35,-123 -25,-8 -110,35 -110,56 0,22 110,129 133,129 17,0 18,-6 12,-62 z"
       id="path24"
       
       style="stroke-width:3.81712556" />
    <path
       d="m 6589,7891 c -39,-49 -78,-104 -97,-138 -9,-17 -39,-61 -67,-98 -102,-135 -118,-159 -131,-192 -8,-18 -19,-33 -24,-33 -10,0 -60,-80 -60,-97 0,-6 21,-26 46,-46 l 46,-36 29,22 c 16,11 38,35 49,52 10,16 42,62 70,100 27,39 59,89 71,113 11,24 26,41 32,39 17,-5 20,-114 6,-231 -7,-56 -14,-137 -16,-182 l -4,-80 57,-38 c 32,-20 64,-35 72,-34 13,3 80,83 122,148 8,12 33,48 55,79 22,31 52,74 68,96 15,22 58,85 97,140 38,55 70,108 70,117 0,17 -81,78 -104,78 -19,0 -43,-31 -154,-195 -19,-27 -48,-67 -65,-88 -51,-63 -52,-56 -26,265 11,138 11,150 -6,183 -20,36 -56,68 -92,79 -16,5 -26,-1 -44,-23 z"
       id="path26"
       
       style="stroke-width:3.81712556" />
    <path
       d="m 2155,7800 c -3,-5 -14,-10 -24,-10 -9,0 -26,-7 -36,-15 -11,-8 -41,-31 -67,-50 -124,-93 -165,-270 -94,-413 36,-74 42,-83 103,-144 97,-98 212,-138 312,-107 189,58 296,184 295,349 0,63 -5,86 -32,145 -18,39 -47,85 -65,103 -133,138 -161,152 -291,152 -52,0 -98,-4 -101,-10 z m 175,-165 c 102,-65 168,-193 146,-285 -22,-90 -74,-130 -170,-130 -95,0 -158,45 -215,154 -43,81 -43,147 -1,204 63,87 157,109 240,57 z"
       id="path28"
       
       style="stroke-width:3.81712556" />
    <path
       d="m 4285,7529 c -66,-5 -154,-14 -195,-20 -41,-6 -105,-14 -142,-19 -37,-5 -76,-13 -87,-19 -11,-6 -34,-11 -51,-11 -17,0 -47,-7 -67,-15 -19,-8 -48,-15 -62,-15 -15,0 -36,-7 -47,-15 -10,-8 -30,-15 -44,-15 -14,0 -38,-7 -54,-15 -15,-8 -36,-15 -45,-15 -10,0 -26,-7 -37,-15 -10,-8 -27,-15 -36,-15 -10,0 -48,-14 -85,-31 -38,-16 -81,-36 -98,-43 -69,-30 -143,-68 -190,-96 -27,-16 -61,-34 -74,-40 -67,-29 -382,-253 -466,-331 -39,-36 -288,-285 -324,-324 -45,-49 -134,-164 -195,-255 -32,-47 -64,-92 -71,-100 -7,-8 -27,-42 -45,-75 -18,-33 -45,-82 -61,-110 -28,-48 -66,-124 -95,-190 -7,-16 -27,-60 -43,-98 -17,-37 -31,-75 -31,-85 0,-9 -7,-26 -15,-36 -8,-11 -15,-27 -15,-37 0,-9 -7,-30 -15,-45 -8,-16 -15,-40 -15,-54 0,-14 -7,-34 -15,-44 -8,-11 -15,-32 -15,-47 0,-14 -7,-43 -15,-62 -8,-20 -15,-50 -15,-67 0,-17 -5,-40 -11,-51 -6,-11 -14,-50 -19,-87 -4,-37 -13,-96 -18,-132 -6,-36 -16,-144 -22,-240 -9,-145 -9,-210 4,-375 15,-188 20,-227 46,-365 6,-30 15,-79 20,-109 5,-29 13,-58 19,-64 6,-6 11,-24 11,-40 0,-15 5,-38 12,-50 6,-12 15,-38 19,-57 7,-36 23,-82 45,-135 7,-16 20,-50 29,-75 40,-106 154,-343 197,-408 15,-24 28,-45 28,-47 0,-10 163,-245 202,-292 24,-28 57,-71 75,-95 26,-35 81,-94 152,-163 6,-5 43,-44 83,-85 40,-41 118,-112 174,-156 101,-82 335,-246 377,-265 12,-5 45,-23 72,-39 49,-29 190,-100 250,-125 17,-7 46,-20 65,-28 44,-19 119,-47 230,-87 19,-6 51,-16 70,-20 74,-18 126,-32 160,-43 19,-6 58,-14 85,-19 28,-4 79,-12 115,-18 157,-26 389,-49 485,-49 68,0 311,20 345,28 25,6 67,11 94,11 27,0 75,7 105,15 31,8 77,17 103,20 26,3 50,10 53,16 4,5 23,9 43,9 20,0 50,7 66,15 15,8 38,15 50,15 11,0 34,7 50,15 15,8 38,15 50,15 11,0 30,7 40,15 11,8 29,15 41,15 12,0 30,7 41,15 10,8 27,15 36,15 9,0 29,6 45,14 15,8 60,28 98,46 39,17 77,36 85,40 8,5 35,19 60,31 73,37 255,146 288,174 16,14 33,25 37,25 10,0 203,147 245,187 19,18 71,64 115,102 45,38 108,102 140,142 33,41 74,87 91,104 34,33 184,229 184,240 0,4 11,20 24,36 28,33 142,221 175,289 12,25 26,52 31,60 4,8 23,47 40,85 18,39 38,83 46,98 8,16 14,36 14,45 0,9 7,26 15,36 8,11 15,29 15,41 0,12 7,30 15,41 8,10 15,30 15,44 0,14 7,34 15,44 8,11 15,32 15,47 0,15 7,40 15,55 8,16 15,45 15,64 0,20 4,40 10,46 5,5 14,40 19,76 5,37 12,72 16,78 4,7 11,51 15,98 5,48 14,124 20,170 14,99 9,521 -8,627 -6,39 -16,99 -22,135 -6,36 -14,88 -18,115 -5,28 -13,66 -19,85 -11,34 -25,86 -43,160 -9,39 -29,97 -76,223 -46,124 -130,301 -184,392 -16,28 -34,60 -40,72 -18,43 -179,272 -262,375 -45,57 -117,136 -158,175 -41,40 -79,77 -85,83 -52,56 -128,127 -163,153 -24,18 -67,52 -95,75 -165,138 -526,344 -747,427 -25,9 -58,22 -75,29 -53,22 -99,38 -135,45 -19,4 -45,13 -57,19 -12,7 -35,12 -50,12 -16,0 -34,5 -40,11 -6,6 -35,14 -64,19 -30,5 -79,14 -109,20 -136,26 -185,32 -359,46 -203,15 -237,15 -416,3 z m 360,-148 c 44,-6 116,-10 160,-11 44,0 98,-7 120,-15 22,-8 59,-15 81,-15 23,0 58,-7 77,-15 20,-8 51,-15 69,-15 18,0 46,-7 62,-15 15,-8 40,-15 55,-15 15,0 36,-7 47,-15 10,-8 33,-15 49,-15 17,0 39,-7 49,-15 11,-8 29,-15 40,-15 12,0 30,-7 40,-15 11,-8 30,-15 42,-15 12,0 27,-7 34,-15 7,-8 20,-15 29,-15 8,0 43,-13 76,-29 102,-49 149,-72 170,-84 149,-86 200,-117 255,-155 244,-170 450,-350 561,-492 145,-185 200,-262 196,-273 -2,-8 -49,-16 -128,-24 -133,-12 -162,-18 -309,-65 -199,-65 -349,-163 -496,-324 -83,-91 -173,-206 -218,-279 -10,-16 -25,-37 -33,-45 -19,-21 -94,-128 -122,-172 -12,-21 -26,-38 -30,-38 -4,0 -20,-21 -37,-47 -16,-26 -46,-67 -66,-91 -21,-24 -38,-47 -38,-51 0,-4 -48,-57 -107,-118 -108,-111 -227,-199 -318,-235 -77,-30 -152,-48 -203,-48 -49,0 -53,2 -76,39 -35,55 -83,88 -167,114 -9,3 -40,45 -69,94 -74,123 -147,218 -216,283 -60,57 -167,141 -194,153 -8,4 -28,16 -45,27 -47,31 -174,90 -193,90 -9,0 -26,7 -36,15 -11,8 -34,15 -50,15 -17,1 -42,7 -56,15 -14,8 -44,14 -66,15 -23,0 -58,7 -77,15 -20,8 -62,15 -92,15 -31,0 -65,5 -76,11 -12,6 -69,14 -127,19 -59,5 -123,13 -142,19 -19,6 -55,11 -80,11 -25,0 -67,7 -94,15 -27,8 -68,15 -91,15 -22,0 -46,5 -51,10 -6,6 -33,15 -60,20 -107,19 -242,83 -374,178 -75,53 -110,88 -167,163 -40,51 -76,104 -79,116 -8,28 2,43 108,187 121,162 393,434 553,552 118,87 245,174 275,188 8,3 29,15 45,26 17,11 37,22 45,26 8,3 22,9 30,14 17,10 88,45 110,54 8,3 22,10 30,15 8,5 33,17 55,26 22,10 52,24 67,32 14,7 34,13 45,13 10,0 27,7 37,15 11,8 29,15 41,15 12,0 26,5 32,11 6,6 29,15 50,19 36,8 55,13 136,41 17,6 55,15 82,19 28,4 63,12 78,18 16,7 46,12 67,12 22,0 59,6 82,14 38,13 185,26 293,26 22,0 54,4 70,10 31,10 104,7 240,-9 z M 6984,5946 c 14,-19 26,-41 26,-50 0,-8 4,-17 8,-20 8,-5 71,-127 86,-166 3,-8 10,-22 15,-30 27,-49 41,-80 41,-98 0,-11 7,-25 15,-32 8,-7 15,-22 15,-34 0,-12 7,-31 15,-42 8,-10 15,-31 15,-45 0,-14 7,-34 15,-45 8,-10 15,-33 15,-50 0,-16 7,-39 15,-50 8,-10 15,-35 15,-54 0,-19 7,-46 15,-60 8,-14 15,-43 15,-65 1,-22 7,-58 15,-80 8,-22 15,-60 15,-85 0,-25 7,-72 15,-105 21,-88 21,-610 0,-679 -8,-27 -15,-77 -15,-110 -1,-34 -7,-72 -15,-86 -8,-14 -14,-42 -15,-63 0,-21 -7,-54 -15,-74 -8,-19 -15,-47 -15,-62 -1,-14 -7,-37 -15,-51 -8,-14 -14,-37 -15,-51 0,-14 -7,-34 -15,-45 -8,-10 -15,-31 -15,-45 0,-14 -7,-34 -15,-45 -8,-10 -15,-28 -15,-40 0,-11 -7,-29 -15,-40 -8,-10 -15,-29 -15,-40 0,-12 -7,-27 -15,-34 -8,-7 -15,-18 -15,-25 0,-8 -6,-26 -14,-42 -8,-15 -30,-60 -50,-100 -19,-39 -45,-89 -57,-110 -45,-80 -73,-128 -79,-133 -3,-3 -27,-39 -54,-80 -191,-291 -485,-585 -776,-776 -41,-27 -77,-51 -80,-55 -4,-5 -31,-20 -145,-85 -11,-7 -54,-28 -95,-48 -41,-21 -88,-43 -103,-51 -16,-8 -34,-15 -42,-15 -7,0 -18,-7 -25,-15 -7,-8 -22,-15 -34,-15 -11,0 -30,-7 -40,-15 -11,-8 -29,-15 -40,-15 -12,0 -30,-7 -40,-15 -11,-8 -31,-15 -45,-15 -14,0 -35,-7 -45,-15 -11,-8 -31,-15 -45,-15 -14,-1 -37,-7 -51,-15 -14,-8 -37,-14 -51,-15 -15,0 -43,-7 -62,-15 -20,-8 -53,-15 -74,-15 -21,-1 -49,-7 -63,-15 -14,-8 -52,-14 -86,-15 -33,0 -83,-7 -110,-15 -52,-16 -171,-20 -192,-7 -9,7 -7,19 13,55 13,26 34,71 46,100 12,28 28,66 35,84 8,17 14,38 14,46 0,8 7,28 15,43 8,16 15,40 15,54 0,14 7,48 16,75 23,73 24,390 2,460 -9,28 -31,97 -49,155 -17,58 -52,153 -76,213 -100,248 -135,333 -143,352 -5,11 -17,43 -26,70 -9,28 -22,64 -28,80 -22,54 -38,99 -46,135 -4,19 -12,55 -19,80 -22,90 -41,216 -41,268 0,86 32,201 90,328 33,70 36,73 113,104 38,15 70,37 96,66 48,55 73,64 174,64 85,0 170,16 297,58 204,66 395,200 539,375 31,38 75,92 98,121 24,28 60,75 80,105 65,93 102,144 148,206 24,33 58,84 76,113 17,28 34,52 39,52 8,0 90,107 90,118 0,36 343,292 391,292 6,0 25,6 42,13 63,27 133,45 197,52 36,4 74,11 85,16 34,13 42,10 69,-25 z m -4973,-83 c 87,-145 223,-295 361,-399 93,-69 268,-164 303,-164 10,0 38,-7 64,-15 109,-34 155,-45 190,-45 20,0 61,-7 91,-15 30,-8 78,-15 107,-15 29,0 78,-7 110,-15 31,-8 80,-15 109,-15 28,0 64,-4 80,-10 16,-5 63,-14 104,-20 120,-15 203,-32 237,-46 17,-8 40,-14 51,-14 11,0 33,-7 48,-15 16,-8 38,-15 49,-15 11,0 29,-7 39,-15 11,-8 25,-15 32,-15 30,0 165,-92 226,-154 110,-111 152,-182 122,-207 -26,-21 -64,-110 -64,-149 0,-36 39,-132 59,-144 19,-12 12,-41 -34,-131 -62,-122 -101,-222 -127,-324 -18,-73 -21,-114 -21,-276 0,-104 5,-208 11,-230 5,-22 18,-65 27,-95 9,-30 20,-73 26,-95 6,-22 14,-44 20,-49 5,-6 9,-18 9,-27 0,-9 9,-38 21,-65 31,-74 35,-84 59,-144 11,-30 25,-64 30,-75 16,-33 126,-317 143,-365 52,-153 67,-243 67,-394 0,-159 -22,-270 -76,-393 -8,-17 -14,-34 -14,-38 0,-4 -9,-20 -21,-36 l -20,-29 h -118 c -76,0 -135,5 -167,15 -27,8 -74,15 -105,15 -31,0 -73,7 -92,15 -20,8 -53,15 -74,15 -21,1 -49,7 -63,15 -14,8 -41,15 -60,15 -19,0 -44,7 -54,15 -11,8 -34,15 -50,15 -17,0 -40,7 -50,15 -11,8 -31,15 -45,15 -14,0 -35,7 -45,15 -11,8 -30,15 -42,15 -12,0 -27,7 -34,15 -7,8 -21,15 -32,15 -11,0 -32,6 -46,14 -15,8 -34,17 -42,20 -8,3 -22,10 -30,15 -8,5 -50,25 -92,46 -43,20 -80,41 -83,46 -4,5 -13,9 -21,9 -8,0 -27,9 -42,19 -15,10 -79,53 -142,94 -63,42 -146,101 -185,131 -38,30 -101,80 -140,110 -135,104 -319,315 -487,556 -38,55 -69,106 -155,255 -16,28 -50,98 -85,175 -16,36 -36,78 -44,93 -8,16 -14,36 -14,46 0,9 -7,26 -15,37 -8,10 -15,28 -15,40 0,11 -7,29 -15,40 -8,10 -15,33 -15,49 0,17 -7,39 -15,49 -8,11 -15,32 -15,47 0,15 -7,40 -15,55 -8,16 -15,44 -15,62 0,18 -7,49 -15,69 -8,19 -15,55 -15,80 0,24 -5,54 -12,66 -6,12 -15,85 -19,162 -4,77 -13,175 -20,218 -10,61 -10,90 0,140 6,34 12,76 12,92 -2,87 13,245 25,283 8,23 14,60 14,82 0,21 5,51 12,67 6,15 14,51 18,78 4,28 13,65 19,83 28,80 33,99 41,135 4,21 13,44 19,50 6,6 11,20 11,32 0,12 7,30 15,41 8,10 15,27 15,37 0,11 6,31 13,45 15,28 41,86 51,112 3,8 10,22 15,30 5,8 19,35 31,60 11,25 25,52 30,60 5,8 11,23 14,33 9,30 43,20 67,-20 z"
       id="path30"
       
       style="stroke-width:3.81712556" />
    <path
       d="m 4200,6848 c -14,-6 -59,-14 -100,-18 -73,-8 -135,-21 -195,-42 -16,-6 -46,-13 -65,-15 -19,-3 -39,-9 -45,-13 -5,-4 -25,-11 -43,-15 -18,-4 -45,-13 -60,-21 -15,-8 -32,-14 -39,-14 -6,0 -24,-6 -40,-14 -15,-8 -44,-21 -63,-29 -94,-39 -164,-75 -260,-134 -147,-90 -167,-103 -214,-143 -22,-20 -52,-43 -66,-52 -49,-31 -150,-130 -150,-147 0,-10 11,-28 25,-41 l 25,-24 33,32 c 44,43 85,43 126,1 57,-57 55,-104 -7,-136 -24,-12 -50,-27 -58,-33 -22,-19 -16,-57 15,-92 l 29,-33 215,-3 c 236,-4 247,-1 247,58 0,59 -3,60 -120,60 -123,0 -137,7 -126,65 8,40 59,85 98,85 13,0 33,7 44,15 10,8 33,15 51,15 25,0 36,-7 53,-35 12,-19 39,-53 60,-75 44,-46 87,-53 120,-20 28,28 25,60 -10,108 -16,23 -30,45 -30,48 0,3 -13,26 -30,51 -16,24 -30,47 -30,50 0,3 -17,33 -38,67 -83,132 -99,186 -54,186 11,0 25,7 32,15 7,8 20,15 30,15 10,0 23,7 30,15 7,8 23,15 35,15 12,0 47,14 78,30 31,17 65,30 75,30 10,0 22,4 28,10 5,5 30,14 54,19 25,6 72,17 105,26 33,9 89,21 125,25 36,5 77,13 91,18 32,13 346,27 383,18 19,-5 26,-13 26,-30 0,-42 -22,-53 -120,-59 -122,-8 -155,-26 -154,-86 1,-30 8,-49 26,-69 39,-41 48,-66 48,-126 0,-44 -4,-57 -18,-65 -25,-13 -42,4 -42,41 0,15 -20,69 -44,120 -25,51 -52,119 -61,151 l -17,57 h -54 c -48,0 -56,-3 -66,-25 -9,-19 -8,-35 2,-67 8,-24 18,-48 22,-55 5,-6 8,-25 6,-42 l -3,-30 -41,18 c -23,10 -62,40 -87,65 l -46,46 h -80 c -74,0 -81,-2 -100,-26 -26,-34 -27,-78 -1,-104 16,-16 28,-19 64,-14 35,5 52,2 79,-15 61,-37 64,-84 9,-143 -33,-35 -44,-40 -80,-40 -25,1 -57,10 -78,22 -34,21 -36,21 -54,5 -11,-10 -20,-27 -20,-38 0,-27 38,-77 59,-77 10,0 24,-7 31,-15 10,-12 36,-15 114,-15 99,0 103,1 128,28 24,25 36,65 53,175 4,24 14,43 30,53 13,9 27,24 30,35 9,29 23,23 30,-13 8,-39 65,-145 101,-187 25,-30 27,-31 117,-31 97,0 100,1 132,39 17,19 21,42 25,150 5,122 6,126 28,129 45,7 52,-12 52,-132 0,-85 4,-117 16,-134 20,-29 59,-28 89,3 l 25,24 v 236 235 h 34 c 34,0 53,-20 39,-43 -3,-5 -10,-87 -14,-181 -4,-94 -13,-193 -20,-220 -12,-49 -12,-50 17,-73 34,-27 61,-29 92,-7 19,13 22,24 22,92 1,42 7,104 15,137 8,33 15,104 15,158 0,111 5,118 71,97 49,-16 86,-58 95,-106 7,-38 -8,-84 -27,-84 -7,0 -31,-10 -55,-22 -51,-25 -64,-54 -64,-142 1,-96 14,-136 59,-178 40,-38 41,-38 126,-38 72,0 87,-3 92,-17 18,-48 47,-73 84,-73 54,0 83,41 128,180 5,14 19,43 32,65 24,40 42,82 60,143 16,51 49,61 105,31 94,-50 203,-123 272,-185 46,-40 53,-50 47,-73 -17,-67 -50,-67 -123,3 -109,102 -148,126 -205,126 -68,0 -108,-28 -136,-95 -12,-28 -21,-60 -21,-71 0,-12 -7,-38 -15,-57 -15,-38 -20,-144 -7,-162 8,-11 34,-28 69,-46 56,-29 103,34 103,141 0,109 49,129 130,54 67,-62 66,-80 -10,-169 -46,-54 -60,-77 -60,-102 0,-72 79,-99 122,-42 13,17 65,75 116,130 50,54 92,105 92,112 0,26 41,59 65,53 68,-17 119,27 93,80 -10,19 -15,67 -16,139 -1,61 -8,136 -17,168 -8,32 -15,69 -15,83 0,30 -50,84 -77,84 -25,0 -73,-50 -73,-76 0,-10 7,-32 15,-48 8,-15 15,-35 15,-43 0,-8 7,-30 16,-49 33,-68 -6,-110 -57,-61 -25,24 -126,97 -134,97 -2,0 -33,19 -68,43 -56,36 -223,125 -282,148 -11,4 -40,17 -65,27 -25,11 -83,32 -130,47 -47,15 -103,33 -125,41 -23,8 -53,14 -68,14 -15,0 -44,7 -64,15 -19,8 -54,15 -78,15 -23,0 -64,7 -91,15 -39,12 -110,15 -344,14 -186,0 -304,-4 -320,-11 z m 1148,-210 c 24,-10 47,-29 51,-40 9,-26 -6,-81 -46,-165 -45,-97 -150,-157 -214,-123 -10,6 -19,19 -19,29 0,20 32,61 48,61 26,0 64,26 83,57 17,27 20,45 16,101 -2,37 -8,77 -12,90 -7,21 -5,23 21,16 16,-4 48,-15 72,-26 z M 3328,6408 c 7,-7 12,-36 12,-65 0,-49 -2,-55 -32,-73 -46,-28 -86,-26 -120,7 -48,46 -39,60 77,126 36,20 47,21 63,5 z"
       id="path32"
       
       style="stroke-width:3.81712556" />
    <path
       d="m 6388,4372 c -64,-53 -113,-89 -145,-106 -39,-20 -53,-43 -53,-90 0,-36 20,-56 53,-56 9,0 48,25 87,55 61,46 76,53 92,44 23,-13 21,-38 -10,-114 -11,-27 -26,-76 -33,-108 -15,-72 -29,-85 -72,-68 -18,6 -58,21 -91,33 l -58,20 -23,-23 c -23,-24 -29,-38 -26,-71 1,-22 95,-65 226,-103 33,-10 74,-23 90,-30 17,-7 47,-20 68,-29 21,-9 43,-16 51,-16 7,0 22,-10 34,-23 l 22,-23 -23,-22 c -13,-12 -30,-22 -39,-22 -8,0 -56,20 -106,45 -50,25 -95,45 -100,45 -5,0 -50,20 -99,45 -50,24 -108,47 -129,50 -34,6 -42,3 -64,-20 -24,-25 -24,-26 -7,-58 12,-22 34,-40 70,-56 29,-13 79,-35 111,-50 32,-14 104,-49 160,-77 117,-59 125,-72 79,-138 -16,-22 -43,-70 -60,-106 -17,-36 -46,-79 -65,-96 -18,-17 -53,-59 -77,-93 -33,-47 -49,-61 -65,-59 -14,2 -22,11 -24,28 -7,61 -71,120 -130,120 -36,0 -52,17 -52,55 0,38 -48,93 -93,106 -43,12 -114,12 -138,-1 -33,-18 -86,-77 -93,-104 -3,-14 -11,-26 -16,-26 -6,0 -10,-9 -10,-19 0,-27 -14,-33 -43,-20 -21,9 -30,8 -50,-7 -14,-11 -32,-31 -41,-45 -17,-29 -26,-13 149,-259 123,-173 128,-181 133,-233 3,-26 8,-50 13,-53 25,-15 169,93 169,127 0,6 -20,31 -45,56 -25,24 -52,58 -61,76 -9,18 -29,46 -44,62 -16,17 -41,55 -56,85 -25,50 -26,57 -15,100 7,29 24,57 47,79 44,41 54,32 54,-50 0,-45 4,-60 23,-77 27,-26 43,-27 83,-7 16,8 40,12 52,8 21,-5 22,-9 16,-64 -4,-37 -2,-69 5,-87 12,-29 57,-62 85,-62 9,0 66,48 128,108 114,110 165,178 288,386 40,68 69,106 79,106 39,0 101,-93 101,-152 0,-47 -88,-102 -182,-115 -48,-6 -70,-32 -66,-75 l 3,-33 85,-2 c 79,-3 89,-1 144,30 40,21 74,51 105,91 l 46,58 -1,82 c 0,63 -5,88 -20,111 -27,41 -72,85 -122,117 -46,31 -46,28 0,118 15,30 28,63 28,72 0,9 4,19 9,22 5,3 12,22 16,42 3,20 10,44 15,53 11,23 30,97 40,160 5,29 14,66 20,81 6,14 10,58 8,96 -3,69 -3,69 -32,69 -29,0 -34,-6 -55,-59 -11,-28 -13,-28 -71,-24 -49,3 -65,10 -90,33 -35,34 -36,39 -10,72 50,64 9,113 -94,113 -46,0 -61,-5 -88,-28 z m 262,-319 c 14,-9 28,-22 32,-27 13,-18 9,-68 -8,-121 -9,-27 -18,-56 -20,-62 -5,-17 -45,-16 -68,2 -11,8 -30,15 -42,15 -12,0 -32,9 -45,19 -21,16 -24,28 -23,79 1,39 7,70 18,86 14,23 23,26 74,26 38,0 66,-6 82,-17 z"
       id="path34"
       
       style="stroke-width:3.81712556" />
    <path
       d="m 6172,3548 c -8,-8 -12,-48 -12,-112 -1,-69 -5,-109 -15,-126 -16,-28 -19,-68 -6,-88 4,-8 27,-16 49,-19 40,-5 44,-3 87,43 25,27 50,65 56,84 6,19 15,39 20,45 14,14 11,60 -6,102 -25,63 -136,108 -173,71 z"
       id="path36"
       
       style="stroke-width:3.81712556" />
    <path
       d="m 5437,2922 c -24,-26 -21,-77 5,-102 29,-27 49,-25 83,6 23,21 26,31 21,57 -3,18 -14,38 -23,45 -24,18 -67,15 -86,-6 z"
       id="path38"
       
       style="stroke-width:3.81712556" />
    <path
       d="m 5570,2737 c -19,-9 -26,-22 -28,-50 -4,-51 11,-67 64,-67 39,0 46,3 54,26 13,33 3,71 -23,89 -26,18 -35,18 -67,2 z"
       id="path40"
       
       style="stroke-width:3.81712556" />
    <path
       d="m 2980,4623 c -26,-9 -100,-86 -100,-104 0,-20 45,-59 67,-59 24,0 113,91 113,116 0,36 -42,61 -80,47 z"
       id="path42"
       
       style="stroke-width:3.81712556" />
    <path
       d="m 2186,4544 c -10,-27 -7,-191 5,-221 6,-15 15,-71 20,-123 5,-52 15,-126 23,-165 9,-38 20,-97 27,-130 6,-33 15,-64 19,-70 4,-5 11,-26 15,-45 4,-19 11,-41 15,-50 9,-19 48,-115 64,-157 7,-18 19,-40 27,-50 8,-10 23,-34 32,-53 41,-80 54,-101 144,-235 119,-176 154,-218 318,-385 166,-168 269,-246 425,-325 74,-37 120,-44 140,-20 9,11 8,19 -4,37 -9,12 -16,42 -16,67 0,37 5,49 36,77 42,40 72,43 111,11 39,-32 59,-38 87,-25 50,22 56,103 17,216 -6,17 -16,47 -22,65 -6,17 -14,50 -18,73 -10,58 -45,104 -80,104 -39,0 -65,-32 -57,-67 4,-15 11,-50 16,-78 5,-27 12,-65 16,-82 5,-29 4,-33 -15,-33 -12,0 -29,4 -39,9 -9,5 -43,18 -75,28 -54,17 -60,21 -79,65 l -21,48 39,47 c 88,107 106,160 66,196 -32,30 -77,21 -116,-20 -48,-53 -115,-137 -157,-197 -55,-79 -126,-146 -155,-146 -14,0 -40,15 -62,34 -31,29 -35,38 -26,53 6,10 31,23 56,29 95,24 122,54 125,136 1,33 3,61 5,62 2,2 31,19 65,40 47,28 66,47 82,79 28,58 26,81 -9,134 -34,50 -48,63 -137,128 -57,40 -81,75 -52,75 6,0 9,17 7,43 l -3,42 -45,3 c -44,3 -101,-17 -161,-59 -14,-10 -76,-43 -137,-74 -62,-32 -115,-61 -118,-66 -9,-15 -40,-10 -58,10 -20,22 -18,50 4,62 21,13 347,168 397,190 47,20 63,54 45,94 -20,44 -59,43 -182,-5 -30,-12 -66,-25 -80,-29 -24,-8 -141,-61 -227,-103 -23,-11 -47,-18 -55,-15 -19,7 -58,118 -77,222 -4,23 -11,47 -16,55 -4,7 -12,43 -16,79 -4,36 -12,85 -18,108 -7,28 -8,50 -1,68 9,24 14,26 57,23 l 48,-3 2,-146 2,-146 32,-49 c 18,-27 38,-52 43,-56 16,-11 103,-10 124,2 9,5 46,21 81,36 70,28 157,80 191,114 24,24 26,60 5,100 -13,25 -22,30 -53,30 -24,0 -51,-9 -75,-26 -91,-62 -168,-80 -187,-45 -21,40 -4,182 25,210 6,5 53,14 105,19 52,6 107,15 123,21 24,9 27,16 27,55 0,33 -5,48 -17,54 -15,7 -420,6 -528,-1 -22,-2 -30,3 -33,18 -2,11 -9,26 -14,33 -15,17 -65,15 -72,-4 z m 795,-1034 c 64,-29 81,-45 77,-72 -2,-19 -11,-24 -48,-29 -59,-9 -100,-25 -127,-51 -35,-33 -29,-65 18,-107 51,-45 49,-76 -7,-87 -71,-13 -111,0 -168,58 -30,29 -61,69 -70,88 -8,19 -21,43 -28,53 -11,15 -8,22 27,52 22,18 64,46 93,62 30,15 58,34 64,41 17,19 119,15 169,-8 z m 317,-673 c 43,-40 15,-137 -40,-137 -23,0 -70,24 -87,43 -27,33 47,134 87,120 9,-3 27,-15 40,-26 z"
       id="path44"
       
       style="stroke-width:3.81712556" />
    <path
       d="m 2880,2732 c -25,-20 -34,-66 -19,-94 7,-14 22,-18 62,-18 61,0 77,12 77,55 0,39 -9,50 -42,58 -14,4 -33,9 -40,12 -8,3 -25,-2 -38,-13 z"
       id="path46"
       
       style="stroke-width:3.81712556" />
    <path
       d="m 7479,7087 c -31,-23 -66,-49 -79,-57 -12,-8 -41,-29 -64,-46 -22,-16 -62,-44 -87,-61 -26,-17 -76,-59 -112,-93 -108,-101 -120,-166 -57,-294 40,-81 95,-145 154,-180 61,-36 147,-36 214,-2 102,53 404,268 422,300 12,24 11,29 -17,69 -43,59 -71,59 -148,2 -33,-25 -81,-59 -107,-76 -27,-17 -48,-35 -48,-39 0,-5 -19,-18 -42,-30 -24,-11 -64,-34 -90,-51 -80,-53 -151,-36 -191,44 -30,60 -17,107 46,160 29,24 71,57 94,73 24,16 88,60 144,99 56,38 108,80 116,92 14,21 13,26 -2,51 -25,39 -67,82 -79,81 -6,0 -36,-19 -67,-42 z"
       id="path48"
       
       style="stroke-width:3.81712556" />
    <path
       d="m 1315,7023 c -19,-20 -35,-43 -35,-53 0,-22 47,-64 170,-153 158,-114 164,-119 148,-128 -8,-4 -33,-4 -56,2 -54,12 -398,28 -428,20 -24,-6 -84,-85 -84,-112 0,-14 70,-66 374,-277 169,-117 193,-132 208,-132 19,0 68,72 68,100 0,28 -25,50 -164,144 -64,43 -116,86 -116,94 0,13 29,14 229,9 l 229,-5 25,26 c 40,43 59,80 52,99 -3,10 -31,34 -62,53 -31,19 -99,67 -152,105 -88,64 -206,146 -314,218 -22,15 -44,27 -49,27 -4,0 -23,-16 -43,-37 z"
       id="path50"
       
       style="stroke-width:3.81712556" />
    <path
       d="m 7910,6391 c -47,-21 -128,-58 -180,-83 -114,-55 -204,-96 -287,-133 -34,-15 -64,-32 -66,-39 -7,-18 43,-115 63,-121 9,-3 44,8 78,25 33,16 63,30 67,30 3,0 47,20 97,45 132,65 142,55 61,-63 -24,-35 -43,-66 -43,-69 0,-3 -13,-22 -30,-43 -16,-21 -30,-41 -30,-44 0,-3 -20,-35 -45,-72 -45,-65 -53,-88 -36,-98 5,-3 12,-18 16,-33 10,-41 44,-74 69,-67 22,6 63,24 201,89 44,21 107,50 140,65 193,88 242,114 261,137 20,24 21,25 3,59 -24,49 -39,64 -59,64 -10,0 -84,-31 -165,-70 -140,-67 -185,-81 -185,-60 0,5 54,90 120,190 67,99 123,187 126,195 14,35 -42,135 -74,135 -9,0 -55,-18 -102,-39 z"
       id="path52"
       
       style="stroke-width:3.81712556" />
    <path
       d="m 975,6300 c -84,-19 -166,-94 -216,-198 -30,-61 -33,-75 -33,-157 0,-75 4,-98 24,-140 57,-116 207,-209 372,-232 35,-5 120,16 158,38 8,5 24,13 35,18 60,27 133,145 156,254 15,68 0,170 -33,224 -31,51 -123,129 -191,162 -52,24 -81,30 -153,34 -49,2 -102,1 -119,-3 z m 125,-156 c 90,-33 126,-53 167,-93 81,-81 80,-183 -2,-258 -46,-42 -49,-43 -116,-43 -38,0 -77,4 -87,9 -9,5 -37,19 -62,31 -114,55 -157,155 -111,255 21,47 47,72 99,96 47,22 57,22 112,3 z"
       id="path54"
       
       style="stroke-width:3.81712556" />
    <path
       d="m 8270,5700 c -8,-5 -24,-10 -35,-10 -11,0 -33,-7 -49,-15 -15,-8 -38,-15 -50,-15 -11,-1 -32,-7 -46,-15 -14,-8 -35,-14 -47,-15 -12,0 -37,-6 -55,-14 -18,-7 -60,-21 -93,-31 -33,-9 -75,-23 -93,-31 -18,-8 -41,-14 -51,-14 -10,0 -39,-9 -65,-20 -35,-16 -46,-26 -46,-44 0,-12 3,-26 8,-30 4,-4 12,-24 17,-44 8,-28 17,-38 35,-40 22,-4 100,16 160,41 14,5 41,13 60,17 19,5 51,13 70,20 82,28 96,32 120,37 14,3 39,11 57,19 17,8 39,14 50,14 10,1 29,7 43,15 14,8 37,14 52,15 31,0 58,23 58,51 0,10 -10,41 -22,69 -22,51 -44,62 -78,40 z"
       id="path56"
       
       style="stroke-width:3.81712556" />
    <path
       d="m 573,5532 c -12,-7 -35,-123 -27,-131 10,-11 83,-33 130,-41 28,-4 61,-13 72,-19 11,-6 35,-11 52,-11 17,0 47,-7 67,-15 19,-8 48,-15 63,-15 15,0 44,-7 63,-15 20,-8 49,-15 65,-15 16,0 46,-7 65,-15 20,-8 55,-15 77,-15 44,0 45,1 71,88 7,23 9,45 5,49 -13,13 -82,35 -131,42 -27,4 -60,12 -72,19 -12,7 -35,12 -51,12 -16,0 -49,7 -72,15 -23,8 -57,15 -74,15 -17,1 -42,7 -56,15 -14,8 -39,14 -56,15 -17,0 -48,7 -67,15 -39,16 -104,20 -124,7 z"
       id="path58"
       
       style="stroke-width:3.81712556" />
    <path
       d="m 8345,5402 c -144,-83 -187,-107 -311,-173 -55,-29 -103,-55 -109,-59 -5,-5 -41,-25 -80,-45 -102,-55 -105,-58 -98,-119 3,-28 15,-65 26,-82 22,-33 49,-41 214,-65 35,-4 72,-13 82,-19 11,-5 34,-10 51,-10 18,0 59,-6 93,-14 166,-39 279,-56 292,-44 6,5 9,34 8,65 -4,71 -30,102 -88,103 -22,1 -60,5 -85,11 -25,6 -80,14 -123,19 -42,5 -86,14 -97,20 -10,5 -38,10 -62,10 -66,0 -77,13 -31,39 21,13 45,26 53,30 231,119 333,177 346,198 7,12 9,42 5,83 -6,60 -8,65 -31,67 -14,1 -38,-5 -55,-15 z"
       id="path60"
       
       style="stroke-width:3.81712556" />
    <path
       d="m 517,5243 c -9,-21 -21,-76 -26,-123 -6,-47 -18,-130 -27,-185 -9,-55 -18,-127 -21,-161 l -5,-61 44,-11 c 37,-10 46,-9 68,7 21,15 26,29 32,87 9,86 21,98 98,89 30,-4 63,-11 72,-16 9,-5 36,-9 60,-9 24,0 75,-6 113,-14 39,-8 106,-20 150,-26 l 79,-12 24,27 c 19,22 22,37 20,79 l -3,51 -57,7 c -32,4 -67,12 -77,18 -11,5 -42,10 -68,10 -27,0 -73,6 -103,14 -30,7 -85,16 -122,19 -37,4 -82,14 -99,23 l -32,16 6,83 c 6,97 -1,108 -69,119 -40,7 -41,6 -57,-31 z"
       id="path62"
       
       style="stroke-width:3.81712556" />
    <path
       d="m 1070,4640 c -55,-32 -570,-280 -579,-280 -17,0 -41,-50 -41,-87 0,-48 16,-104 32,-115 7,-4 25,-8 40,-8 15,0 29,-4 33,-9 3,-5 20,-12 38,-16 17,-4 64,-17 102,-29 39,-13 117,-38 175,-56 58,-17 123,-38 145,-45 22,-7 55,-16 72,-20 18,-4 35,-11 38,-16 21,-33 75,18 75,70 0,53 -29,86 -95,106 -86,27 -84,25 -85,155 -1,63 -1,121 -1,128 1,7 25,24 55,38 30,13 62,37 72,52 31,48 11,153 -30,152 -6,0 -27,-9 -46,-20 z M 868,4338 c 18,-18 15,-103 -4,-119 -13,-10 -25,-10 -72,5 -102,32 -106,34 -91,52 13,16 124,72 145,73 5,1 15,-4 22,-11 z"
       id="path64"
       
       style="stroke-width:3.81712556" />
    <path
       d="m 7797,4583 c -4,-3 -7,-118 -7,-255 0,-235 1,-249 20,-268 26,-26 60,-25 94,1 l 26,20 v 173 c 0,120 4,176 12,184 18,18 133,16 148,-3 9,-11 12,-58 11,-170 l -2,-154 30,-15 c 38,-20 54,-20 91,-1 l 30,16 v 159 c 0,147 1,160 19,170 26,14 74,13 89,-2 8,-8 12,-64 12,-185 v -173 l 26,-10 c 35,-14 98,-12 112,2 9,9 12,78 12,249 0,131 -3,244 -6,253 -5,14 -46,16 -358,16 -194,0 -356,-3 -359,-7 z"
       id="path66"
       
       style="stroke-width:3.81712556" />
    <path
       d="m 7767,3943 c -3,-5 -14,-34 -25,-66 l -21,-57 27,-25 c 16,-15 39,-25 57,-25 16,-1 41,-7 55,-15 14,-8 41,-14 61,-15 20,0 47,-8 59,-18 21,-17 22,-21 11,-55 -12,-36 -56,-77 -83,-77 -7,0 -22,-7 -32,-15 -11,-8 -29,-15 -41,-15 -12,0 -30,-7 -41,-15 -10,-8 -27,-15 -37,-15 -24,0 -73,-26 -99,-52 -19,-19 -32,-53 -45,-120 -7,-36 16,-45 71,-29 23,6 55,16 71,21 70,21 122,43 153,67 37,28 67,24 59,-7 -5,-21 23,-82 57,-118 64,-71 185,-83 263,-27 43,31 69,78 98,180 9,33 21,74 26,91 5,16 13,50 18,75 6,24 16,66 22,92 12,44 11,50 -7,68 -11,11 -42,24 -70,29 -55,10 -121,26 -174,43 -19,6 -53,14 -75,18 -51,10 -117,27 -175,45 -25,8 -55,14 -66,14 -12,0 -38,7 -57,15 -41,17 -54,18 -60,8 z m 476,-287 c 33,-15 37,-20 37,-54 -1,-20 -7,-48 -15,-62 -8,-14 -14,-38 -15,-54 0,-43 -35,-76 -81,-76 -56,0 -69,19 -69,98 1,39 7,77 15,92 8,14 14,35 15,47 0,37 39,40 113,9 z"
       id="path68"
       
       style="stroke-width:3.81712556" />
    <path
       d="m 1155,3900 c -11,-5 -40,-9 -65,-9 -25,-1 -70,-7 -100,-15 -30,-7 -85,-16 -122,-19 -38,-4 -77,-11 -87,-17 -11,-5 -41,-10 -68,-10 -41,0 -189,-32 -200,-44 -2,-2 0,-32 4,-67 l 8,-64 72,-3 c 45,-2 93,3 125,13 28,8 73,15 99,15 25,0 66,7 89,15 23,8 66,15 95,15 29,0 72,7 95,15 23,8 59,15 79,15 46,1 81,41 63,71 -7,10 -12,28 -12,40 0,50 -29,69 -75,49 z"
       id="path70"
       
       style="stroke-width:3.81712556" />
    <path
       d="m 1057,3584 c -4,-4 -7,-36 -7,-70 v -64 l 40,-20 c 21,-11 51,-20 66,-20 58,0 115,-97 100,-170 -15,-78 -137,-154 -284,-177 -71,-11 -153,54 -168,135 -8,42 13,110 38,123 27,15 22,46 -18,100 -29,40 -40,48 -58,44 -63,-19 -131,-160 -116,-245 26,-145 78,-226 184,-283 43,-24 59,-27 146,-27 146,0 240,37 327,130 75,80 93,123 93,218 0,146 -71,263 -190,311 -40,16 -142,26 -153,15 z"
       id="path72"
       
       style="stroke-width:3.81712556" />
    <path
       d="m 7570,3183 c -41,-27 -80,-66 -80,-79 0,-7 -6,-17 -14,-21 -7,-4 -27,-39 -45,-76 -26,-57 -31,-80 -31,-144 0,-93 21,-130 105,-187 32,-22 49,-26 109,-26 39,1 81,6 93,13 12,7 70,58 128,115 94,91 110,103 137,100 43,-4 55,-26 40,-76 -19,-63 -62,-102 -110,-102 -44,0 -64,-20 -91,-87 -12,-28 -11,-36 3,-58 15,-22 23,-25 78,-25 105,0 168,53 238,197 49,101 38,217 -27,275 -27,25 -104,58 -136,58 -52,0 -98,-29 -210,-135 -92,-86 -117,-105 -143,-105 -88,0 -84,143 7,209 24,18 45,24 80,23 52,-1 64,8 91,69 16,36 16,37 -6,58 -19,18 -34,21 -107,20 -60,0 -91,-5 -109,-16 z"
       id="path74"
       
       style="stroke-width:3.81712556" />
    <path
       d="m 1248,2846 c -67,-34 -183,-137 -207,-184 -19,-35 -41,-114 -41,-144 0,-87 61,-219 134,-286 66,-61 123,-82 222,-82 47,0 92,4 102,10 9,5 39,19 66,31 59,25 65,29 136,99 80,78 100,125 100,233 0,94 -9,123 -68,215 -22,34 -57,68 -96,95 l -61,42 -110,3 c -108,2 -111,2 -177,-32 z m 254,-136 c 99,-44 139,-161 84,-249 -55,-87 -152,-144 -247,-145 -57,-1 -71,3 -107,28 -77,53 -96,175 -39,250 45,59 175,132 238,135 15,1 46,-8 71,-19 z"
       id="path76"
       
       style="stroke-width:3.81712556" />
    <path
       d="m 7221,2640 c -39,-57 -37,-85 6,-112 15,-10 55,-38 88,-63 33,-25 79,-54 103,-65 23,-12 42,-25 42,-30 0,-4 21,-22 48,-39 26,-17 82,-55 124,-86 42,-30 92,-61 111,-69 33,-13 36,-13 54,7 19,22 53,90 53,106 0,5 -15,18 -32,29 -18,12 -62,41 -98,66 -36,25 -87,62 -115,80 -27,19 -75,52 -105,73 -162,114 -222,153 -233,153 -7,0 -27,-22 -46,-50 z"
       id="path78"
       
       style="stroke-width:3.81712556" />
    <path
       d="m 6958,2305 c -21,-18 -38,-43 -38,-54 0,-12 19,-36 46,-58 41,-34 151,-126 239,-200 166,-141 161,-127 78,-218 -29,-32 -53,-62 -53,-67 0,-12 83,-88 95,-87 11,1 116,115 155,169 14,19 34,43 45,54 28,28 76,87 100,121 11,16 30,39 43,52 29,32 28,41 -13,86 -33,35 -69,48 -77,28 -9,-25 -105,-131 -119,-131 -9,0 -50,30 -91,68 -42,37 -102,88 -134,115 -33,26 -87,72 -122,102 -75,67 -101,70 -154,20 z"
       id="path80"
       
       style="stroke-width:3.81712556" />
    <path
       d="m 1830,2275 c -45,-25 -82,-58 -106,-97 -20,-31 -24,-51 -24,-110 0,-62 5,-81 36,-145 20,-40 41,-76 45,-79 5,-3 9,-13 9,-23 0,-10 7,-24 15,-31 35,-29 7,-90 -41,-90 -29,0 -82,36 -95,65 -5,11 -14,28 -21,37 -10,14 -9,23 5,47 9,16 17,37 17,48 0,22 -84,113 -105,113 -8,0 -28,-19 -45,-42 -27,-37 -30,-48 -30,-118 0,-57 4,-81 15,-90 8,-7 15,-18 15,-25 0,-21 120,-145 160,-165 38,-19 83,-26 151,-22 29,2 47,12 87,53 42,42 51,58 57,99 10,72 -2,124 -52,219 -55,108 -64,160 -33,191 31,31 83,20 132,-28 48,-47 60,-109 33,-166 -15,-30 -16,-41 -6,-59 12,-22 83,-77 99,-77 16,0 53,52 73,103 24,60 20,109 -13,185 -24,56 -142,174 -202,203 -46,22 -138,24 -176,4 z"
       id="path82"
       
       style="stroke-width:3.81712556" />
    <path
       d="m 6646,1994 -48,-44 27,-36 c 15,-19 66,-77 114,-127 48,-51 128,-139 178,-197 123,-142 168,-184 185,-174 7,4 30,22 50,38 46,38 50,72 12,107 -15,13 -58,60 -97,104 -178,203 -341,375 -356,375 -9,-1 -38,-21 -65,-46 z"
       id="path84"
       
       style="stroke-width:3.81712556" />
    <path
       d="m 6425,1820 c -38,-26 -134,-92 -212,-145 -111,-75 -143,-102 -143,-119 0,-26 46,-96 63,-96 7,0 79,45 161,100 82,55 154,100 160,100 16,0 87,-111 84,-130 -3,-14 -22,-29 -181,-136 -39,-27 -69,-55 -73,-68 -8,-34 32,-96 62,-96 14,0 78,36 150,86 69,47 132,83 139,80 18,-6 68,-93 61,-104 -3,-5 -37,-30 -75,-56 -39,-26 -73,-51 -76,-55 -3,-5 -24,-19 -47,-31 -45,-23 -87,-66 -88,-88 0,-21 51,-82 69,-82 9,0 108,62 221,138 141,94 206,143 208,157 2,12 -8,36 -22,55 -44,61 -161,234 -169,250 -24,48 -195,285 -207,287 -8,1 -46,-20 -85,-47 z"
       id="path86"
       
       style="stroke-width:3.81712556" />
    <path
       d="m 2387,1831 c -26,-10 -69,-38 -96,-63 -39,-36 -49,-54 -59,-99 -19,-89 5,-152 93,-254 70,-80 100,-137 86,-164 -17,-31 -47,-35 -93,-11 -57,30 -77,57 -78,107 0,58 -6,68 -59,106 -44,32 -48,33 -67,18 -33,-27 -47,-93 -33,-157 7,-30 18,-59 26,-65 7,-6 13,-17 13,-25 0,-17 71,-74 141,-113 72,-40 168,-44 230,-9 88,49 123,161 80,251 -12,25 -28,48 -36,51 -8,3 -15,12 -15,20 0,8 -21,38 -46,68 -86,100 -98,149 -44,178 29,16 59,12 115,-14 62,-30 75,-54 75,-141 0,-68 8,-83 59,-110 44,-22 66,-10 90,52 26,67 26,81 4,145 -33,94 -135,184 -259,227 -68,24 -65,24 -127,2 z"
       id="path88"
       
       style="stroke-width:3.81712556" />
    <path
       d="m 2887,1544 c -11,-11 -9,-719 2,-748 10,-24 63,-54 124,-70 23,-5 35,0 77,40 28,26 50,52 50,57 0,6 35,45 78,87 43,41 112,116 155,165 97,114 117,136 152,163 25,20 27,25 16,46 -15,27 -75,56 -117,56 -24,0 -40,-11 -78,-55 -51,-60 -59,-63 -102,-40 -16,8 -36,15 -44,15 -9,0 -20,4 -25,8 -6,5 -31,17 -58,26 -71,26 -77,36 -77,120 0,82 -3,86 -70,111 -70,25 -75,27 -83,19 z m 250,-409 c 41,-17 43,-42 6,-85 -72,-85 -80,-93 -91,-86 -13,8 -17,178 -5,190 8,8 42,1 90,-19 z"
       id="path90"
       
       style="stroke-width:3.81712556" />
    <path
       d="m 5760,1448 c -109,-49 -139,-67 -175,-104 -57,-58 -75,-129 -52,-210 20,-69 54,-115 104,-140 41,-21 135,-24 289,-9 69,6 83,5 97,-10 35,-34 15,-74 -54,-105 -58,-26 -81,-25 -117,5 -36,30 -65,31 -119,5 -60,-29 -64,-53 -17,-102 44,-46 105,-77 150,-78 81,0 245,75 292,134 67,86 48,222 -40,283 l -41,28 -176,-2 c -195,-3 -211,1 -211,62 0,52 73,106 144,107 38,1 53,-5 91,-37 l 47,-38 58,28 c 64,31 77,47 57,74 -18,25 -99,96 -124,110 -27,14 -170,13 -203,-1 z"
       id="path92"
       
       style="stroke-width:3.81712556" />
  </g>
</svg>
