<svg width="48" height="47" viewBox="0 0 48 47" fill="none" xmlns="http://www.w3.org/2000/svg">
<path d="M47.1687 44.7188H43.6855V27.7268C43.6855 27.5063 43.5979 27.2949 43.442 27.139C43.2861 26.9831 43.0747 26.8955 42.8542 26.8955H35.0149V9.90345C35.0157 9.73792 34.9671 9.5759 34.8753 9.43816C34.7835 9.30042 34.6526 9.19324 34.4995 9.13033L13.4506 0.4348C13.3236 0.38314 13.1858 0.363696 13.0495 0.3782C12.9131 0.392704 12.7825 0.440707 12.6692 0.517931C12.5564 0.594187 12.464 0.696989 12.4003 0.8173C12.3365 0.937612 12.3032 1.07175 12.3034 1.20792V16.1217H4.46415C4.24367 16.1217 4.03223 16.2093 3.87632 16.3652C3.72042 16.5211 3.63284 16.7325 3.63284 16.953V44.7188H0.831313C0.610835 44.7188 0.399387 44.8064 0.243486 44.9623C0.0875845 45.1182 0 45.3297 0 45.5502C0 45.7706 0.0875845 45.9821 0.243486 46.138C0.399387 46.2939 0.610835 46.3815 0.831313 46.3815H47.1687C47.3892 46.3815 47.6006 46.2939 47.7565 46.138C47.9124 45.9821 48 45.7706 48 45.5502C48 45.3297 47.9124 45.1182 47.7565 44.9623C47.6006 44.8064 47.3892 44.7188 47.1687 44.7188ZM5.29546 17.7843H12.3034V44.7188H5.29546V17.7843ZM13.9661 2.44658L33.3523 10.4604V44.7188H28.8216V36.68C28.8216 36.4596 28.734 36.2481 28.5781 36.0922C28.4222 35.9363 28.2108 35.8487 27.9903 35.8487H19.328C19.1075 35.8487 18.8961 35.9363 18.7402 36.0922C18.5843 36.2481 18.4967 36.4596 18.4967 36.68V44.7604H13.9661V2.44658ZM20.1593 44.7188V37.5114H27.159V44.7604L20.1593 44.7188ZM35.0149 44.7188V28.5581H42.0229V44.7188H35.0149Z" fill="#323232"/>
</svg>
