<svg width="41" height="41" viewBox="0 0 41 41" fill="none" xmlns="http://www.w3.org/2000/svg">
<g clip-path="url(#clip0_1_451)">
<path d="M31.5343 14.0706C31.9335 15.0781 32.2662 15.9645 32.6441 16.8318C32.7154 16.9945 32.9566 17.1549 33.1384 17.1822C33.5068 17.2381 33.8882 17.1906 34.2649 17.206C34.7545 17.2262 35.0527 17.4828 35.0563 17.983C35.067 19.6464 35.0658 21.3085 35.0575 22.9718C35.0551 23.5029 34.7319 23.851 34.234 23.7595C32.9994 23.5338 32.4801 24.11 32.2282 25.2292C32.1058 25.7734 31.7683 26.27 31.4772 26.8997C31.8064 27.1931 32.1783 27.489 32.5098 27.8276C32.9245 28.2517 32.9328 28.6593 32.5205 29.0787C31.3845 30.237 30.2331 31.3812 29.0793 32.5218C28.6907 32.9055 28.2558 32.9091 27.8732 32.5218C27.5274 32.1713 27.2256 31.778 26.9856 31.4976C25.9054 31.923 25.0012 32.2639 24.1147 32.6453C23.9686 32.7083 23.8307 32.9412 23.8081 33.111C23.7606 33.4817 23.7998 33.8619 23.7867 34.2374C23.7701 34.7589 23.498 35.0488 22.9692 35.0512C21.3258 35.0571 19.6825 35.056 18.0391 35.0512C17.5103 35.05 17.1431 34.7447 17.2346 34.2457C17.4664 32.9804 16.8782 32.4493 15.7291 32.2022C15.2027 32.0893 14.7226 31.7566 14.0691 31.4525C13.8005 31.7661 13.5142 32.1475 13.1791 32.4802C12.7299 32.9257 12.333 32.9245 11.8862 32.4837C10.7586 31.3729 9.63923 30.2525 8.5282 29.125C8.06477 28.6545 8.07785 28.2684 8.53176 27.7848C8.69456 27.6114 8.85735 27.4379 9.03559 27.2811C9.19838 27.1373 9.38138 27.0161 9.48238 26.9401C9.06886 25.8946 8.71832 24.975 8.33332 24.0696C8.27747 23.9378 8.06121 23.8106 7.90792 23.794C7.5158 23.7536 7.11654 23.7893 6.72203 23.7702C6.22652 23.7465 5.95203 23.4708 5.95085 22.9742C5.94372 21.3109 5.94253 19.6487 5.95322 17.9854C5.95679 17.4864 6.27168 17.13 6.73748 17.2215C8.05527 17.4828 8.53889 16.7961 8.80744 15.6674C8.92746 15.1601 9.24472 14.6991 9.55367 14.0457C9.24235 13.7843 8.85735 13.5027 8.52463 13.17C8.07666 12.7245 8.07903 12.3253 8.51869 11.8786C9.62972 10.7511 10.7491 9.6319 11.8767 8.52103C12.3449 8.05886 12.7442 8.06005 13.2147 8.52697C13.5367 8.84538 13.8184 9.20419 14.0536 9.4727C15.091 9.05924 15.9929 8.71588 16.8782 8.33331C17.0279 8.26915 17.1776 8.04698 17.2002 7.88065C17.2501 7.51115 17.2085 7.12977 17.2216 6.75433C17.2394 6.23395 17.5103 5.94286 18.0403 5.94167C19.6837 5.93692 21.327 5.93692 22.9704 5.94167C23.4992 5.94286 23.8687 6.24939 23.7749 6.7472C23.5313 8.03154 24.1706 8.5246 25.2958 8.78004C25.8211 8.89885 26.3011 9.22438 26.9309 9.51784C27.2125 9.19706 27.5048 8.82043 27.8411 8.48895C28.2641 8.07312 28.6705 8.06718 29.09 8.47945C30.2485 9.61646 31.394 10.7653 32.5348 11.919C32.9186 12.3075 32.9138 12.7364 32.5348 13.1273C32.2056 13.4671 31.8468 13.7795 31.539 14.0671L31.5343 14.0706ZM7.54907 22.2031C8.01249 22.2031 8.42482 22.2091 8.83596 22.202C9.30057 22.1936 9.54179 22.4372 9.70696 22.8554C10.1751 24.0447 10.654 25.2304 11.1685 26.3983C11.3717 26.8581 11.3765 27.2371 11.0034 27.5793C10.7039 27.8537 10.3855 28.108 10.1668 28.2945C11.0604 29.1927 11.8351 29.9709 12.6693 30.8097C12.8678 30.5863 13.1078 30.3238 13.3407 30.0553C13.7506 29.5848 14.1689 29.6299 14.7143 29.8866C15.7992 30.3963 16.9186 30.837 18.0427 31.2529C18.537 31.4358 18.8162 31.6877 18.7972 32.2319C18.783 32.6358 18.7948 33.041 18.7948 33.4449H22.2135C22.2135 33.0006 22.2206 32.5907 22.2111 32.1808C22.2004 31.6901 22.4571 31.4465 22.9003 31.2743C24.0731 30.8192 25.2412 30.3464 26.3891 29.8331C26.8715 29.6169 27.2601 29.6085 27.6177 30.0077C27.8791 30.2988 28.1263 30.6018 28.3414 30.856C29.2278 29.9697 30.0061 29.1915 30.8403 28.3575C30.6229 28.1591 30.3674 27.9416 30.1309 27.7052C29.5736 27.148 29.6033 26.9448 29.9253 26.2474C30.4208 25.1769 30.8629 24.0791 31.2633 22.9707C31.4535 22.4443 31.7196 22.1711 32.2864 22.1996C32.6726 22.2198 33.06 22.2031 33.439 22.2031V18.785C32.9934 18.785 32.5989 18.779 32.2044 18.7862C31.7172 18.7957 31.4641 18.545 31.2918 18.1018C30.8367 16.9292 30.365 15.7613 29.8529 14.6124C29.639 14.1336 29.6152 13.7427 30.018 13.3839C30.3103 13.1237 30.6133 12.8778 30.8724 12.6592C29.9776 11.7717 29.1969 10.9958 28.339 10.144C28.1643 10.3507 27.9742 10.6061 27.7532 10.8307C27.1495 11.4426 26.9808 11.401 26.1977 11.0327C25.1497 10.5396 24.0612 10.1226 22.9716 9.72576C22.4785 9.54636 22.1897 9.3028 22.2075 8.75509C22.2218 8.35113 22.2099 7.94718 22.2099 7.54917H18.7901C18.7901 7.99589 18.7853 8.40579 18.7913 8.81687C18.7984 9.31111 18.5215 9.54279 18.0843 9.7115C16.9293 10.157 15.7754 10.6145 14.6478 11.1253C14.1451 11.3535 13.7459 11.382 13.3728 10.9543C13.1185 10.6632 12.8725 10.365 12.7038 10.1665C11.8043 11.06 11.0259 11.8334 10.193 12.6615C10.3843 12.8314 10.6314 13.031 10.8548 13.2532C11.4335 13.8283 11.4014 14.0302 11.0592 14.7621C10.5685 15.8124 10.13 16.8912 9.74499 17.9842C9.55011 18.5367 9.27324 18.8194 8.68267 18.7886C8.31431 18.7695 7.94357 18.785 7.54431 18.785V22.2043L7.54907 22.2031Z" fill="#858484"/>
<path d="M35.4199 8.91781C33.3891 9.64255 31.6792 9.1091 30.8332 7.53368C30.0656 6.10559 30.3971 4.39473 31.646 3.34208C32.82 2.3524 34.5905 2.31557 35.8215 3.25297C37.0858 4.21652 37.5231 5.90837 36.8244 7.34478C36.6486 7.70715 36.683 7.92457 36.9124 8.23228C45.153 19.3315 40.4047 35.1248 27.4145 39.8036C23.8937 41.0713 20.2766 41.3101 16.5989 40.6245C16.0594 40.5235 15.7541 40.141 15.8289 39.6788C15.9085 39.1964 16.3304 38.9552 16.9126 39.0574C26.2904 40.7101 35.1525 35.6916 38.2919 26.769C40.47 20.579 39.5004 14.7359 35.7526 9.35385C35.6849 9.25642 35.6065 9.16732 35.534 9.07346C35.4983 9.02712 35.4639 8.9796 35.4187 8.91663L35.4199 8.91781ZM35.5304 5.92857C35.5304 4.96027 34.777 4.18563 33.8169 4.16781C32.8473 4.1488 32.0428 4.94957 32.044 5.93213C32.044 6.88855 32.814 7.68101 33.7611 7.7012C34.7224 7.7214 35.5304 6.91112 35.5304 5.92738V5.92857Z" fill="#858484"/>
<path d="M5.60413 32.0772C6.56425 31.659 7.52437 31.5592 8.494 31.9608C10.2217 32.6772 11.0452 34.6495 10.3299 36.3425C9.58483 38.1056 7.5624 38.9088 5.82871 38.1294C4.14612 37.3738 3.37375 35.3671 4.16276 33.6859C4.35169 33.2843 4.30654 33.042 4.04987 32.6962C-4.26444 21.5424 0.796397 5.47813 14.0064 1.05485C17.4215 -0.089283 20.8971 -0.279378 24.4287 0.37051C25.0085 0.477439 25.2925 0.858818 25.1915 1.36732C25.1012 1.81999 24.6818 2.05167 24.1364 1.94711C14.5827 0.134079 5.23577 5.70031 2.43502 15.0197C0.651428 20.9555 1.67096 26.5169 5.22745 31.602C5.33915 31.7612 5.46867 31.9073 5.60413 32.076V32.0772ZM8.96217 35.038C8.95148 34.0851 8.16485 33.2938 7.22255 33.2903C6.25649 33.2867 5.46629 34.0982 5.4758 35.0855C5.4853 36.049 6.25411 36.8201 7.21067 36.8249C8.18505 36.8296 8.97287 36.0253 8.96217 35.038Z" fill="#858484"/>
<path d="M27.8993 3.02611C27.4716 3.03918 27.1127 2.69938 27.0949 2.26572C27.0759 1.80237 27.4324 1.4198 27.8815 1.42336C28.3212 1.42693 28.648 1.76316 28.6539 2.21701C28.6586 2.66136 28.3319 3.01304 27.9005 3.02611H27.8993Z" fill="#858484"/>
<path d="M13.1731 39.5754C12.7442 39.5802 12.3782 39.2214 12.3723 38.7889C12.3663 38.3493 12.7121 37.9929 13.1529 37.9857C13.6009 37.9774 13.9396 38.3137 13.9443 38.7687C13.9491 39.2202 13.614 39.5707 13.1731 39.5754Z" fill="#858484"/>
<path d="M27.1151 20.5184C27.108 24.1611 24.1456 27.11 20.4952 27.1076C16.8247 27.1052 13.8778 24.1302 13.892 20.4436C13.9063 16.8092 16.8805 13.8746 20.5416 13.8853C24.1812 13.896 27.1222 16.8638 27.1163 20.5184H27.1151ZM25.5192 20.4958C25.5192 17.7442 23.2354 15.4666 20.4893 15.4809C17.7527 15.4952 15.5164 17.724 15.4879 20.465C15.4605 23.2035 17.7313 25.4954 20.4881 25.5108C23.2318 25.5262 25.5192 23.2451 25.5192 20.4958Z" fill="#858484"/>
</g>
<defs>
<clipPath id="clip0_1_451">
<rect width="41" height="41" fill="white"/>
</clipPath>
</defs>
</svg>
