<svg width="44" height="44" viewBox="0 0 44 44" fill="none" xmlns="http://www.w3.org/2000/svg">
<path d="M17.3313 18.3563C17.1714 18.5161 17.0795 18.7379 17.0795 18.9639C17.0795 19.1899 17.1714 19.4116 17.3313 19.5715C17.4911 19.7322 17.7128 19.8233 17.9389 19.8233C18.1649 19.8233 18.3866 19.7322 18.5465 19.5715C18.7063 19.4116 18.7983 19.1908 18.7983 18.9639C18.7983 18.7379 18.7063 18.5161 18.5465 18.3563C18.3866 18.1964 18.1649 18.1045 17.9389 18.1045C17.7128 18.1045 17.4911 18.1965 17.3313 18.3563Z" fill="#323232"/>
<path d="M43.1406 18.1049H21.3766C20.902 18.1049 20.5172 18.4897 20.5172 18.9643C20.5172 19.439 20.902 19.8237 21.3766 19.8237H42.2812V36.775V37.557V39.2209H17.1575C16.9808 38.8846 16.7478 38.5825 16.4702 38.328C16.6191 38.1913 16.7555 38.0413 16.8772 37.8794H37.3719C37.8466 37.8794 38.2313 37.4946 38.2313 37.02C38.2313 36.0055 39.0567 35.1801 40.0713 35.1801C40.546 35.1801 40.9307 34.7953 40.9307 34.3207V24.7239C40.9307 24.2493 40.546 23.8645 40.0713 23.8645C39.0568 23.8645 38.2313 23.0392 38.2313 22.0246C38.2313 21.5499 37.8466 21.1652 37.3719 21.1652H11.255C10.7804 21.1652 10.3956 21.5499 10.3956 22.0246C10.3956 23.0391 9.57027 23.8645 8.55567 23.8645C8.08103 23.8645 7.69628 24.2493 7.69628 24.7239V27.8434H6.35854V23.0984L9.63309 19.8238H14.5015C14.9761 19.8238 15.3609 19.4391 15.3609 18.9644C15.3609 18.4898 14.9761 18.105 14.5015 18.105H11.3519L17.8568 11.6001L20.9012 14.6446C21.0624 14.8057 21.281 14.8963 21.5089 14.8963C21.7368 14.8963 21.9554 14.8057 22.1166 14.6446L29.122 7.63915L30.3555 8.87273C30.5795 9.09678 30.9085 9.17953 31.2117 9.08775C31.5149 8.99614 31.7432 8.7452 31.8057 8.43461L33.2963 1.028C33.3531 0.74595 33.2649 0.454186 33.0615 0.250767C32.8581 0.0473482 32.5665 -0.0409116 32.2842 0.0159803L24.8776 1.50651C24.5671 1.56908 24.3161 1.79725 24.2245 2.10053C24.1329 2.40381 24.2156 2.73278 24.4394 2.95674L25.4415 3.95888L21.5087 7.89165L18.4643 4.84715C18.3032 4.68602 18.0846 4.59544 17.8566 4.59544C17.6287 4.59544 17.4101 4.68602 17.249 4.84715L12.0849 10.0113C11.7493 10.3468 11.7493 10.891 12.0849 11.2267C12.4205 11.5623 12.9646 11.5623 13.3003 11.2267L17.8567 6.67027L20.9011 9.71476C21.0623 9.8759 21.2809 9.96648 21.5088 9.96648C21.7367 9.96648 21.9554 9.8759 22.1165 9.71476L27.2646 4.56665C27.6002 4.23105 27.6002 3.68697 27.2646 3.35129L26.7887 2.87527L31.3563 1.95606L30.4371 6.5234L29.7298 5.81604C29.5686 5.6549 29.35 5.56432 29.1221 5.56432C28.8942 5.56432 28.6756 5.6549 28.5144 5.81604L21.509 12.8215L18.4646 9.77699C18.3034 9.61585 18.0848 9.52527 17.8569 9.52527C17.629 9.52527 17.4104 9.61585 17.2492 9.77699L3.35367 23.6725L2.10402 22.4229L8.43897 16.0879C8.77456 15.7523 8.77456 15.2081 8.43897 14.8725C8.10337 14.5369 7.5592 14.537 7.22361 14.8725L0.280991 21.8152C0.119854 21.9763 0.0292741 22.195 0.0292741 22.4229C0.0292741 22.6508 0.119854 22.8694 0.280991 23.0306L2.74599 25.4955C2.91383 25.6633 3.13375 25.7472 3.35367 25.7472C3.57359 25.7472 3.79359 25.6632 3.96135 25.4955L4.63975 24.8171V27.8433H3.26472C1.46403 27.8433 -0.000976562 29.3083 -0.000976562 31.109C-0.000976562 32.0604 0.408181 32.9178 1.0596 33.5153C0.408267 34.1127 -0.000976562 34.9702 -0.000976562 35.9217C-0.000976562 36.8731 0.408181 37.7305 1.0596 38.328C0.408267 38.9253 -0.000976562 39.7828 -0.000976562 40.7343C-0.000976562 42.535 1.46403 44 3.26472 44H5.49915H14.265H43.1406C43.6153 44 44 43.6152 44 43.1406V40.0803V37.557V36.775V18.9643C44 18.4897 43.6153 18.1049 43.1406 18.1049ZM9.41507 25.4784C10.6883 25.1615 11.6926 24.1572 12.0095 22.884H36.6174C36.9343 24.1572 37.9386 25.1615 39.2118 25.4784V33.5661C37.9386 33.883 36.9343 34.8873 36.6174 36.1605H17.521C17.5268 36.0815 17.5308 36.002 17.5308 35.9216C17.5308 34.9701 17.1216 34.1127 16.4702 33.5153C17.1215 32.9178 17.5308 32.0604 17.5308 31.109C17.5308 29.3083 16.0658 27.8433 14.2651 27.8433H9.41515L9.41507 25.4784ZM1.71781 31.1091C1.71781 30.2561 2.41177 29.5621 3.26472 29.5621H14.265C15.1179 29.5621 15.8119 30.2561 15.8119 31.1091C15.8119 31.962 15.1179 32.656 14.265 32.656H3.26472C2.41177 32.656 1.71781 31.962 1.71781 31.1091ZM1.71781 35.9217C1.71781 35.0687 2.41177 34.3748 3.26472 34.3748H14.265C15.1179 34.3748 15.8119 35.0687 15.8119 35.9217C15.8119 36.7746 15.1179 37.4686 14.265 37.4686H3.26472C2.41177 37.4686 1.71781 36.7746 1.71781 35.9217ZM5.49915 42.2812H3.26472C2.41177 42.2812 1.71781 41.5872 1.71781 40.7343C1.71781 39.8813 2.41177 39.1874 3.26472 39.1874H14.265C15.1179 39.1874 15.8119 39.8813 15.8119 40.7343C15.8119 41.5872 15.1179 42.2812 14.265 42.2812H5.49915ZM42.2812 42.2812H17.1403C17.3584 41.8774 17.4934 41.4225 17.5235 40.9397H42.2812V42.2812Z" fill="#323232"/>
<path d="M32.8032 30.3815H34.0273C34.502 30.3815 34.8867 29.9968 34.8867 29.5221C34.8867 29.0475 34.502 28.6627 34.0273 28.6627H32.8032C32.3285 28.6627 31.9438 29.0475 31.9438 29.5221C31.9438 29.9968 32.3285 30.3815 32.8032 30.3815Z" fill="#323232"/>
<path d="M24.2875 34.1004C26.8117 34.1004 28.8652 32.0466 28.8652 29.5221C28.8652 26.9976 26.8117 24.9438 24.2875 24.9438C21.7634 24.9438 19.71 26.9976 19.71 29.5221C19.71 32.0466 21.7635 34.1004 24.2875 34.1004ZM24.2875 26.6626C25.8639 26.6626 27.1464 27.9454 27.1464 29.5221C27.1464 31.0988 25.8639 32.3816 24.2875 32.3816C22.7112 32.3816 21.4288 31.0988 21.4288 29.5221C21.4288 27.9454 22.7112 26.6626 24.2875 26.6626Z" fill="#323232"/>
<path d="M10.2739 13.9202C10.5 13.9202 10.7217 13.8291 10.8815 13.6684C11.0414 13.5086 11.1333 13.2868 11.1333 13.0608C11.1333 12.8348 11.0414 12.6131 10.8815 12.4532C10.7217 12.2934 10.5 12.2014 10.2739 12.2014C10.0479 12.2014 9.8262 12.2934 9.66635 12.4532C9.50565 12.6139 9.41455 12.8348 9.41455 13.0608C9.41455 13.2868 9.50565 13.5086 9.66635 13.6684C9.8262 13.8291 10.0479 13.9202 10.2739 13.9202Z" fill="#323232"/>
</svg>
