<svg width="41" height="41" viewBox="0 0 41 41" fill="none" xmlns="http://www.w3.org/2000/svg">
<path d="M38.1298 34.7861H35.0056L36.8898 31.5646C36.9113 31.5276 36.9402 31.4368 36.9403 31.3783C36.9403 31.3781 36.9404 31.3779 36.9404 31.3777C36.9404 27.653 36.9404 19.7094 36.9404 15.9998C36.9404 15.3321 36.397 14.7888 35.7293 14.7888H34.7293V6.47856C34.7293 5.77035 34.1549 5.19409 33.4485 5.19409H4.88429C4.17608 5.19409 3.59982 5.77035 3.59982 6.47856V28.2274C3.59982 29.4152 4.57452 30.3228 5.69518 30.3228H14.4002V32.4297H14.1005C12.7934 32.4297 11.7291 33.4835 11.7097 34.7861H6.44822C6.2436 34.7861 6.07802 34.9517 6.07802 35.1563C6.07802 35.3609 6.2436 35.5265 6.44822 35.5265H12.0781H38.1298C38.3344 35.5265 38.5 35.3609 38.5 35.1563C38.5 34.9517 38.3344 34.7861 38.1298 34.7861ZM23.9142 32.4297H23.6141V30.3228H31.7805C31.7805 30.3373 31.7804 30.1786 31.7806 31.3783C31.7807 31.4365 31.8096 31.528 31.8311 31.5646L33.7149 34.7861H26.3049C26.2855 33.4835 25.2213 32.4297 23.9142 32.4297ZM6.05814 7.65964L32.2678 7.65205L32.2713 15.0317C31.9752 15.2527 31.7805 15.6027 31.7805 15.9998V25.3584H6.06537L6.05814 7.65964ZM36.2 31.0075H32.5208V18.4083H36.2V31.0075ZM34.3602 34.4231L32.796 31.7479H35.9249L34.3602 34.4231ZM36.2 15.9998V17.6679H32.5208V15.9998C32.5208 15.7403 32.732 15.5291 32.9912 15.5291H34.3556C34.3568 15.5291 34.3579 15.5299 34.3592 15.5299C34.3604 15.5299 34.3615 15.5291 34.3627 15.5291H35.7293C35.9889 15.5291 36.2 15.7403 36.2 15.9998ZM4.88429 5.93448H33.4485C33.7464 5.93448 33.989 6.1785 33.989 6.47856V14.7888H33.0116L33.0082 7.28185C33.0082 7.07723 32.8422 6.91166 32.638 6.91166L5.68795 6.91925C5.48326 6.91925 5.31775 7.08553 5.31775 7.28945L5.32485 25.3584H4.34021V6.47856C4.34021 6.1785 4.58423 5.93448 4.88429 5.93448ZM4.34021 28.2274V26.0988H31.7805V29.5824C29.5235 29.5824 20.3336 29.5809 5.69518 29.5824C4.95452 29.5824 4.34021 28.9752 4.34021 28.2274ZM15.1405 30.3228H22.8738V32.4297H15.1405V30.3228ZM12.4487 34.7861C12.4678 33.8917 13.2014 33.1701 14.1005 33.1701H23.9142C24.8133 33.1701 25.5468 33.8917 25.566 34.7861H12.4487Z" fill="#B82426"/>
<path d="M5.14535 35.1564C5.14535 34.9518 4.97978 34.7862 4.77516 34.7862H2.59123C2.38661 34.7862 2.22104 34.9518 2.22104 35.1564C2.22104 35.361 2.38661 35.5266 2.59123 35.5266H4.77516C4.97978 35.5266 5.14535 35.361 5.14535 35.1564Z" fill="#B82426"/>
<path d="M19.0076 29.2828C19.7295 29.2828 20.317 28.6953 20.317 27.9734C20.317 27.251 19.7295 26.6636 19.0076 26.6636C18.2852 26.6636 17.6978 27.251 17.6978 27.9734C17.6978 28.6953 18.2852 29.2828 19.0076 29.2828ZM19.0076 27.404C19.3214 27.404 19.5766 27.6596 19.5766 27.9734C19.5766 28.2871 19.3214 28.5424 19.0076 28.5424C18.6938 28.5424 18.4382 28.2871 18.4382 27.9734C18.4382 27.6596 18.6938 27.404 19.0076 27.404Z" fill="#B82426"/>
<path d="M12.2448 14.7625C12.3098 14.8106 12.3872 14.8351 12.4649 14.8351C12.5217 14.8351 12.5788 14.8221 12.6316 14.7954C12.7563 14.7325 12.8351 14.6049 12.8351 14.465V11.2258C12.8351 11.0859 12.7563 10.9582 12.6316 10.8953C12.5065 10.8321 12.3575 10.8451 12.2448 10.9282L10.055 12.5478C9.85512 12.6957 9.85517 12.9951 10.055 13.1429L12.2448 14.7625ZM12.0947 11.96V13.7307L10.8977 12.8454L12.0947 11.96Z" fill="#B82426"/>
<path d="M25.6948 14.7954C25.819 14.8583 25.9686 14.846 26.0817 14.7625L28.2717 13.1429C28.4717 12.995 28.4716 12.6956 28.2717 12.5478L26.0817 10.9282C25.9692 10.8451 25.8203 10.8321 25.6948 10.8953C25.5701 10.9582 25.4913 11.0859 25.4913 11.2258V14.465C25.4913 14.6049 25.5701 14.7325 25.6948 14.7954ZM26.2317 11.96L27.429 12.8454L26.2317 13.7307V11.96Z" fill="#B82426"/>
<path d="M22.4563 11.8593L21.9791 11.6804L22.1916 11.2129C22.2737 11.0293 22.2336 10.8106 22.0915 10.6688L21.3403 9.91761C21.1975 9.77444 20.9773 9.73468 20.794 9.81855L20.3305 10.0293L20.1516 9.55283C20.0811 9.3634 19.8978 9.23615 19.6954 9.23615H18.6332C18.4308 9.23615 18.2475 9.3634 18.177 9.55247L17.998 10.03L17.5328 9.81855C17.3495 9.73468 17.1293 9.77408 16.9861 9.91797L16.2371 10.6688C16.0946 10.8113 16.0549 11.03 16.1377 11.214L16.3484 11.68L15.872 11.859C15.6814 11.9291 15.5538 12.1127 15.5538 12.3155V13.3755C15.5538 13.5769 15.6807 13.7605 15.8705 13.8321L16.3484 14.0111L16.1369 14.4785C16.0549 14.6618 16.0954 14.8805 16.2367 15.0219L16.9851 15.772C17.1279 15.9166 17.3484 15.9571 17.5324 15.8725L17.998 15.6614L18.177 16.1382C18.2475 16.3277 18.4308 16.4549 18.6332 16.4549H19.6954C19.8978 16.4549 20.0811 16.3277 20.1516 16.1386L20.3305 15.6618L20.794 15.8725C20.9773 15.956 21.1975 15.9159 21.3403 15.7735L22.0915 15.0222C22.2332 14.8805 22.2737 14.6618 22.1906 14.4767L21.9791 14.0107L22.4563 13.8321C22.4566 13.8321 22.457 13.8318 22.4574 13.8318C22.6461 13.7605 22.7726 13.5772 22.7726 13.3755V12.3155C22.7726 12.1127 22.645 11.9291 22.4563 11.8593ZM22.0322 13.2002L21.4653 13.4124C21.3392 13.4598 21.2372 13.5584 21.1859 13.6832C21.1346 13.8075 21.1375 13.9492 21.1931 14.07L21.444 14.6228L20.9408 15.126L20.3913 14.8758C20.2691 14.8201 20.1274 14.8172 20.003 14.8682C19.8783 14.9196 19.7796 15.0215 19.7322 15.148L19.52 15.7145H18.8086L18.5963 15.1477C18.549 15.0219 18.4507 14.9199 18.3263 14.8686C18.2016 14.8172 18.0606 14.8194 17.9387 14.8755L17.3863 15.126L16.8842 14.6228L17.1347 14.0689C17.19 13.9464 17.1919 13.8046 17.1398 13.6806C17.0877 13.5566 16.9858 13.4587 16.8611 13.4128L16.2942 13.2002V12.4912L16.8614 12.2787C17.1246 12.1793 17.2503 11.879 17.1344 11.6214L16.8842 11.0683L17.3863 10.5651L17.9398 10.8167C18.0617 10.8713 18.203 10.8731 18.327 10.8225C18.4507 10.7711 18.5486 10.6696 18.5963 10.5434L18.8089 9.97653H19.52L19.7322 10.5434C19.7796 10.6696 19.8783 10.7715 20.003 10.8228C20.127 10.8735 20.2687 10.8716 20.3902 10.8156L20.9408 10.5651L21.444 11.0683L21.1931 11.6204C21.1375 11.7429 21.1349 11.8843 21.1863 12.0086C21.2376 12.133 21.3395 12.2313 21.4657 12.2787L22.0322 12.4909V13.2002Z" fill="#B82426"/>
<path d="M19.1639 11.1855C18.2489 11.1855 17.5042 11.9302 17.5042 12.8452C17.5042 13.7609 18.2489 14.506 19.1639 14.506C20.0793 14.506 20.824 13.7609 20.824 12.8452C20.824 11.9302 20.0793 11.1855 19.1639 11.1855ZM19.1639 13.7656C18.6571 13.7656 18.2446 13.3528 18.2446 12.8452C18.2446 12.3384 18.6571 11.9259 19.1639 11.9259C19.6711 11.9259 20.0836 12.3384 20.0836 12.8452C20.0836 13.3528 19.6711 13.7656 19.1639 13.7656Z" fill="#B82426"/>
<path d="M13.4831 18.605H7.21764C7.01302 18.605 6.84744 18.7706 6.84744 18.9752C6.84744 19.1798 7.01302 19.3454 7.21764 19.3454H13.4831C13.6877 19.3454 13.8533 19.1798 13.8533 18.9752C13.8533 18.7706 13.6877 18.605 13.4831 18.605Z" fill="#B82426"/>
<path d="M13.4831 20.6338H7.21764C7.01302 20.6338 6.84744 20.7994 6.84744 21.004C6.84744 21.2086 7.01302 21.3742 7.21764 21.3742H13.4831C13.6877 21.3742 13.8533 21.2086 13.8533 21.004C13.8533 20.7994 13.6877 20.6338 13.4831 20.6338Z" fill="#B82426"/>
<path d="M13.4831 22.6617H7.21764C7.01302 22.6617 6.84744 22.8273 6.84744 23.0319C6.84744 23.2366 7.01302 23.4021 7.21764 23.4021H13.4831C13.6877 23.4021 13.8533 23.2366 13.8533 23.0319C13.8533 22.8273 13.6877 22.6617 13.4831 22.6617Z" fill="#B82426"/>
<path d="M22.2982 18.605H16.0328C15.8282 18.605 15.6626 18.7706 15.6626 18.9752C15.6626 19.1798 15.8282 19.3454 16.0328 19.3454H22.2982C22.5029 19.3454 22.6684 19.1798 22.6684 18.9752C22.6684 18.7706 22.5029 18.605 22.2982 18.605Z" fill="#B82426"/>
<path d="M22.2982 20.6338H16.0328C15.8282 20.6338 15.6626 20.7994 15.6626 21.004C15.6626 21.2086 15.8282 21.3742 16.0328 21.3742H22.2982C22.5029 21.3742 22.6684 21.2086 22.6684 21.004C22.6684 20.7994 22.5029 20.6338 22.2982 20.6338Z" fill="#B82426"/>
<path d="M22.2982 22.6617H16.0328C15.8282 22.6617 15.6626 22.8273 15.6626 23.0319C15.6626 23.2366 15.8282 23.4021 16.0328 23.4021H22.2982C22.5029 23.4021 22.6684 23.2366 22.6684 23.0319C22.6684 22.8273 22.5029 22.6617 22.2982 22.6617Z" fill="#B82426"/>
<path d="M24.8485 19.3454H31.1139C31.3186 19.3454 31.4841 19.1798 31.4841 18.9752C31.4841 18.7706 31.3186 18.605 31.1139 18.605H24.8485C24.6439 18.605 24.4783 18.7706 24.4783 18.9752C24.4783 19.1798 24.6439 19.3454 24.8485 19.3454Z" fill="#B82426"/>
<path d="M31.1139 20.6338H24.8485C24.6439 20.6338 24.4783 20.7994 24.4783 21.004C24.4783 21.2086 24.6439 21.3742 24.8485 21.3742H31.1139C31.3186 21.3742 31.4841 21.2086 31.4841 21.004C31.4841 20.7994 31.3186 20.6338 31.1139 20.6338Z" fill="#B82426"/>
<path d="M31.1139 22.6617H24.8485C24.6439 22.6617 24.4783 22.8273 24.4783 23.0319C24.4783 23.2366 24.6439 23.4021 24.8485 23.4021H31.1139C31.3186 23.4021 31.4841 23.2366 31.4841 23.0319C31.4841 22.8273 31.3186 22.6617 31.1139 22.6617Z" fill="#B82426"/>
</svg>
