<svg width="42" height="39" viewBox="0 0 42 39" fill="none" xmlns="http://www.w3.org/2000/svg">
<g clip-path="url(#clip0_1_497)">
<path d="M27.1211 17.0472C27.7955 17.0472 28.436 17.0436 29.0752 17.0472C30.1431 17.0545 30.6358 17.5422 30.6431 18.5967C30.6455 18.9384 30.6431 19.2802 30.6431 19.6098C32.1226 19.9455 32.3115 20.1899 32.3115 21.7212C32.3115 22.1067 32.3248 22.4923 32.3066 22.8766C32.286 23.284 32.1093 23.5905 31.6553 23.5966C31.1649 23.6039 30.9857 23.2889 30.9797 22.8474C30.9712 22.2636 30.9773 21.6798 30.9773 21.0608H21.8642C21.8642 21.6385 21.8667 22.1992 21.8642 22.7598C21.8618 23.2086 21.7383 23.5869 21.2056 23.5954C20.662 23.6039 20.5494 23.2342 20.5591 22.7744C20.5688 22.3086 20.5603 21.8428 20.5615 21.3758C20.5627 20.1498 20.8678 19.8068 22.1536 19.6536C22.1536 19.2826 22.1451 18.9032 22.1548 18.5237C22.179 17.6006 22.7142 17.0654 23.6416 17.0484C24.3244 17.0363 25.0085 17.046 25.7434 17.046C25.7542 16.8113 25.77 16.6167 25.77 16.4208C25.7712 12.6517 25.7676 8.88265 25.7773 5.11234C25.7773 4.74139 25.7107 4.51638 25.3474 4.30233C24.9685 4.07976 24.6343 3.70881 24.4007 3.32813C24.2191 3.03137 24.0435 2.95475 23.736 2.95718C22.3848 2.96812 21.0325 2.96812 19.6813 2.95718C19.352 2.95475 19.197 3.10799 18.9609 3.34029C18.2648 4.02624 18.5505 4.67814 18.8072 5.40666C19.5796 7.59831 20.3266 9.79969 21.0543 12.0071C21.1778 12.383 21.3412 12.5034 21.7298 12.4985C22.7674 12.4851 22.9454 12.7223 22.7941 13.7889C22.317 17.1396 19.6256 19.2911 16.2816 18.9968C13.5055 18.7511 11.1446 16.2044 11.101 13.4082C11.0889 12.6639 11.2415 12.4596 11.9643 12.5046C12.5284 12.5399 12.7585 12.3489 12.934 11.8053C13.6944 9.45914 14.508 7.13128 15.3143 4.8022C15.4608 4.38017 15.4814 4.07246 15.1448 3.66867C14.3106 2.66285 14.5975 1.14621 15.6702 0.420122C16.7599 -0.315697 18.2285 -0.0298832 18.8726 1.11824C19.1329 1.58162 19.4186 1.70081 19.9114 1.68743C21.1608 1.65338 22.4127 1.66676 23.6634 1.68135C24.0132 1.685 24.236 1.63392 24.4128 1.25567C24.7954 0.431068 25.5266 0.0211985 26.4092 0.018766C27.2919 0.0163335 28.011 0.428635 28.4166 1.24594C28.5873 1.59013 28.7968 1.69108 29.1648 1.685C30.4954 1.66311 31.8272 1.66797 33.159 1.68257C33.4919 1.68622 33.6929 1.61081 33.866 1.28C34.5295 0.00417118 36.0053 -0.361914 37.1604 0.421338C38.2682 1.17297 38.5006 2.72123 37.6144 3.77692C37.342 4.10165 37.3686 4.34854 37.4897 4.69882C38.3081 7.06803 39.1229 9.43847 39.9038 11.8211C40.0673 12.3209 40.2767 12.5399 40.8276 12.507C41.6012 12.462 41.7853 12.7016 41.7465 13.4873C41.5952 16.5668 38.9788 19.0382 35.8709 19.0357C32.7909 19.0345 30.1842 16.585 30.016 13.5335C29.9687 12.6822 30.1419 12.4693 31.0051 12.5046C31.4761 12.524 31.6795 12.3465 31.8211 11.9208C32.6323 9.4859 33.4604 7.05587 34.2946 4.62828C34.4024 4.31571 34.3019 4.10895 34.182 3.80975C33.8176 2.90123 33.1287 2.9365 32.3696 2.95718C31.3017 2.98637 30.2315 2.98029 29.1624 2.95718C28.7956 2.94866 28.6067 3.07515 28.4021 3.38651C28.1551 3.76111 27.7568 4.03111 27.4517 4.37044C27.3003 4.53949 27.1078 4.76328 27.1066 4.96274C27.086 8.85346 27.0921 12.7442 27.0933 16.6361C27.0933 16.7529 27.1078 16.8696 27.1211 17.0472ZM12.4752 13.8145C12.8045 16.146 14.9438 17.8998 17.18 17.7307C19.4077 17.5629 21.3969 15.7239 21.3775 13.8145H12.4764H12.4752ZM31.4192 13.8169C31.6105 15.9939 33.7607 17.8146 35.9811 17.7356C38.1991 17.6578 40.2586 15.8152 40.3203 13.8169H31.418H31.4192ZM38.6907 12.4596C38.6798 12.3465 38.6846 12.2844 38.6677 12.2321C37.842 9.80455 37.0175 7.37696 36.1809 4.95423C36.1373 4.82774 35.9944 4.73531 35.8976 4.62706C35.7874 4.74382 35.624 4.8399 35.5743 4.97855C35.0864 6.34803 34.6154 7.72237 34.1457 9.09792C33.7704 10.1986 33.4047 11.3042 33.0173 12.4596H38.6907ZM19.8206 12.4596C18.9537 9.90063 18.1171 7.41831 17.266 4.94085C17.2236 4.81558 17.0638 4.73166 16.9584 4.62828C16.8483 4.74504 16.6836 4.84233 16.6352 4.98098C16.0322 6.71533 15.4475 8.45575 14.8566 10.195C14.6072 10.9308 14.3554 11.6654 14.0842 12.4608H19.8206V12.4596ZM23.5023 18.3899V19.6718H29.3186V18.3899H23.5023ZM16.9342 1.34689C16.4112 1.35905 15.9741 1.80298 15.9753 2.32109C15.9753 2.86718 16.4439 3.30502 17.0008 3.28069C17.5517 3.25637 17.9222 2.85015 17.9064 2.28339C17.8907 1.73608 17.4742 1.33473 16.9342 1.34689ZM26.4359 1.34567C25.9237 1.33594 25.4528 1.77135 25.4274 2.27852C25.4007 2.80758 25.8729 3.28434 26.4213 3.27948C26.9686 3.27583 27.3681 2.87326 27.3718 2.32231C27.3754 1.77743 26.9722 1.35662 26.4359 1.34567ZM36.8553 2.30041C36.8456 1.77865 36.4025 1.34446 35.8794 1.34567C35.3394 1.34811 34.8745 1.83216 34.9012 2.36366C34.9278 2.8842 35.3806 3.29529 35.9109 3.27948C36.4412 3.26367 36.8649 2.82461 36.8553 2.30041Z" fill="#858484"/>
<path d="M7.10564 35.4038V23.6063C6.10801 23.6063 5.14429 23.599 4.18177 23.61C3.72049 23.6148 3.30764 23.5662 3.26284 22.9885C3.22894 22.547 3.56431 22.305 4.19872 22.3037C6.05474 22.2989 7.91076 22.3269 9.76678 22.2928C10.8516 22.2733 11.7051 22.6005 12.2245 23.6294C12.7463 23.5334 13.2548 23.4044 13.7694 23.3497C15.5261 23.1636 17.203 23.5297 18.7345 24.3628C21.2915 25.7554 23.9987 26.6773 26.8318 27.2903C27.6006 27.4569 28.3246 27.8315 29.2096 28.1635C30.4009 27.2489 31.7436 26.22 33.0863 25.1899C33.5028 24.87 33.9168 24.5465 34.3357 24.2303C35.5598 23.3096 36.992 23.4458 37.8928 24.5659C38.8057 25.7019 38.6677 27.3207 37.5405 28.2694C36.8141 28.8799 36.0453 29.4394 35.2922 30.0171C32.1359 32.4386 28.9759 34.8577 25.822 37.2816C24.7094 38.1366 23.5374 38.2887 22.2565 37.6866C20.1402 36.6917 18.0093 35.7285 15.8966 34.7263C15.3203 34.4527 14.7767 34.3067 14.1677 34.5962C13.8965 34.7251 13.5987 34.8029 13.3081 34.8796C12.7403 35.0304 12.2596 35.2311 11.9509 35.827C11.6361 36.4339 11.0138 36.7209 10.3273 36.7234C7.13954 36.7367 3.95173 36.7307 0.765143 36.7331C0.315969 36.7331 -0.0097118 36.5422 0.00360602 36.069C0.0169238 35.5655 0.382559 35.4025 0.842629 35.4025C2.69865 35.4038 4.55467 35.4025 6.41069 35.4025C6.62862 35.4025 6.84655 35.4025 7.10927 35.4025L7.10564 35.4038ZM12.4086 33.774C12.8396 33.6402 13.2294 33.5527 13.5926 33.3982C14.5915 32.9749 15.5201 33.0747 16.4959 33.5527C18.5771 34.5719 20.6959 35.512 22.7965 36.4899C23.5592 36.845 24.2723 36.8085 24.9527 36.2855C28.8282 33.3094 32.7073 30.3382 36.5816 27.3596C37.2451 26.85 37.3698 26.0412 36.9085 25.4355C36.4424 24.8226 35.7801 24.7776 35.0537 25.3334C33.2413 26.7199 31.4325 28.11 29.6321 29.5123C29.4529 29.6522 29.2847 29.8602 29.2096 30.0718C28.8367 31.1287 28.0873 31.7612 27.063 32.1333C25.9673 32.531 24.8547 32.531 23.7226 32.3656C22.11 32.1297 20.6087 31.5605 19.1595 30.838C18.7805 30.6483 18.6268 30.3284 18.8302 29.9319C19.0166 29.5695 19.335 29.488 19.7055 29.6522C19.9452 29.758 20.1765 29.8809 20.4162 29.9867C22.0543 30.7042 23.7311 31.2649 25.5545 31.1226C26.3959 31.057 27.1974 30.8478 27.7313 30.1132C28.2628 29.3822 28.1587 29.0757 27.3136 28.7863C27.0473 28.695 26.7761 28.6148 26.5012 28.5564C23.6064 27.9507 20.846 26.996 18.2309 25.5839C16.5976 24.7022 14.8409 24.3239 12.9715 24.8007C12.5163 24.9174 12.3613 25.1059 12.365 25.5815C12.388 28.1137 12.3747 30.6471 12.3771 33.1793C12.3771 33.3556 12.3952 33.532 12.4086 33.7716V33.774ZM8.49916 23.6063V35.4025C9.03551 35.4025 9.53553 35.4074 10.0356 35.4025C10.7935 35.394 11.0792 35.1058 11.0937 34.3298C11.1034 33.7837 11.0961 33.2377 11.0961 32.6916C11.0961 30.0815 11.0974 27.4727 11.0961 24.8627C11.0961 23.9055 10.791 23.61 9.82368 23.6075C9.40236 23.6075 8.98103 23.6075 8.5028 23.6075L8.49916 23.6063Z" fill="#858484"/>
</g>
<defs>
<clipPath id="clip0_1_497">
<rect width="41.7526" height="38.0412" fill="white" transform="translate(0 0.0102539)"/>
</clipPath>
</defs>
</svg>
