<svg width="31" height="30" viewBox="0 0 31 30" fill="none" xmlns="http://www.w3.org/2000/svg">
<g clip-path="url(#clip0_1_725)">
<path d="M20.8955 29.9419H15.2813C14.937 29.9419 14.6575 29.6624 14.6575 29.3181V20.585C14.6575 20.4234 14.7205 20.2681 14.8328 20.1514L21.7756 12.9653C22.513 12.2274 23.7007 12.2274 24.4305 12.9578C24.7836 13.3109 24.9782 13.7806 24.9782 14.2815C24.9782 14.7818 24.7836 15.2522 24.4305 15.6052L23.551 16.4848C23.4337 16.6052 23.3657 16.7655 23.3657 16.9295C23.3657 17.093 23.4312 17.2483 23.551 17.3681C23.7861 17.6032 24.1929 17.6032 24.428 17.3681L25.67 16.1317C26.1216 15.6763 26.3088 15.0282 26.169 14.4026L25.433 11.0827C25.3812 10.8482 25.4685 10.6043 25.6575 10.4564C25.8029 10.3423 25.8858 10.1689 25.8858 9.98047C25.8858 9.9 25.8752 9.85634 25.8702 9.84137C25.7954 9.60058 25.8727 9.33859 26.0667 9.17703C26.7423 8.61374 27.6743 8.58068 28.3848 9.09469C28.7565 9.36105 29.0179 9.7478 29.1196 10.182L30.084 14.0339C30.5574 15.934 29.9929 17.9769 28.6112 19.3661C28.6112 19.3661 28.6106 19.3667 28.6099 19.3667L21.5249 26.4518L21.5193 29.3193C21.5186 29.6637 21.2398 29.9419 20.8955 29.9419ZM15.9051 28.6943H20.2729L20.2779 26.1916C20.2779 26.0263 20.344 25.8685 20.4607 25.7519L27.7279 18.4847C28.8027 17.4036 29.2418 15.8142 28.8732 14.3358L27.9063 10.4751C27.872 10.3286 27.7809 10.1976 27.6549 10.1071C27.4753 9.97735 27.2906 9.96051 27.1328 9.99919C27.1284 10.4246 26.9837 10.8251 26.7242 11.1451L27.3867 14.1306C27.62 15.1723 27.3087 16.2496 26.5533 17.0125L25.3088 18.2507C24.5815 18.9781 23.3975 18.9781 22.6683 18.2495C22.3134 17.8946 22.1175 17.4255 22.1175 16.9289C22.1175 16.438 22.3109 15.9689 22.6621 15.6077L23.5478 14.7226C23.6651 14.6053 23.73 14.4481 23.73 14.2809C23.73 14.1137 23.6651 13.9565 23.5478 13.8393C23.3046 13.5954 22.9085 13.5954 22.6646 13.8393L15.9051 20.837V28.6943Z" fill="#B82426"/>
<path d="M15.2813 29.9421H9.6672C9.32349 29.9421 9.04403 29.6638 9.04341 29.3195L9.03779 26.4507L1.95461 19.3675C0.567911 17.9808 0.00275299 15.9379 0.478084 14.0359L1.44309 10.1746C1.55288 9.73736 1.81488 9.35248 2.18167 9.09111C2.82605 8.63012 3.67004 8.61515 4.33189 9.05243C4.99311 9.49033 5.30937 10.2732 5.1372 11.0467L4.39115 14.4033C4.25204 15.0315 4.44043 15.6778 4.89517 16.1325L6.13153 17.3695C6.37481 17.6128 6.77092 17.6128 7.0142 17.3695C7.25748 17.1262 7.25748 16.7307 7.0142 16.4874L6.13216 15.6054C5.40232 14.8762 5.40232 13.6885 6.13216 12.9586C6.862 12.2288 8.04845 12.2288 8.77829 12.9586L15.7299 20.1516C15.8421 20.2683 15.9051 20.4236 15.9051 20.5851V29.3183C15.9051 29.6626 15.6257 29.9421 15.2813 29.9421ZM10.2897 28.6945H14.6576V20.8372L7.88876 13.8332C7.65359 13.598 7.25811 13.598 7.0142 13.8407C6.77092 14.084 6.77092 14.4794 7.0142 14.7233L7.89625 15.6054C8.62609 16.3346 8.62609 17.5223 7.89625 18.2522C7.16641 18.9807 5.97933 18.9814 5.24949 18.2522L4.0125 17.0152C3.25459 16.2573 2.94082 15.18 3.1735 14.1332L3.91956 10.7766C4.00938 10.3718 3.73117 10.1509 3.64384 10.0929C3.55526 10.0349 3.24399 9.86461 2.90714 10.106C2.78113 10.1958 2.69131 10.3275 2.65388 10.4778L1.68887 14.3391C1.31896 15.8187 1.75873 17.4075 2.83727 18.4855L10.102 25.7502C10.2186 25.8668 10.2841 26.0246 10.2848 26.1899L10.2897 28.6945Z" fill="#B82426"/>
<path d="M15.2812 9.35672C15.2144 9.35672 15.1483 9.34612 15.0841 9.32491L3.85575 5.58214C3.60623 5.49855 3.43594 5.26837 3.42908 5.00513C3.42222 4.74189 3.58128 4.5036 3.82643 4.40816L15.0547 0.0415974C15.1995 -0.0151679 15.3616 -0.0151679 15.507 0.0415974L26.7353 4.40816C26.9804 4.50422 27.1395 4.74251 27.1333 5.00513C27.127 5.26775 26.9567 5.49855 26.7072 5.58152L15.4789 9.32428C15.414 9.34612 15.3479 9.35672 15.2812 9.35672ZM5.88932 4.94525L15.2812 8.07545L24.673 4.94525L15.2812 1.29293L5.88932 4.94525Z" fill="#B82426"/>
<path d="M19.0239 13.0995H11.5384C9.8186 13.0995 8.41943 11.7003 8.41943 9.9805V6.65568C8.41943 6.45544 8.5155 6.26705 8.67831 6.14978C8.84049 6.03188 9.05009 6.00007 9.24035 6.0637L15.2812 8.07543L21.322 6.0637C21.5116 5.99945 21.7212 6.03188 21.884 6.14978C22.0468 6.26705 22.1429 6.45544 22.1429 6.65568V9.9805C22.1429 11.7003 20.7437 13.0995 19.0239 13.0995ZM9.66702 7.52088V9.9805C9.66702 11.0123 10.5066 11.8519 11.5384 11.8519H19.0239C20.0557 11.8519 20.8953 11.0123 20.8953 9.9805V7.52088L15.4783 9.32489C15.3504 9.36731 15.2119 9.36731 15.0841 9.32489L9.66702 7.52088Z" fill="#B82426"/>
<path d="M25.2618 9.35669C24.9175 9.35669 24.638 9.07723 24.638 8.73289V4.99013C24.638 4.64579 24.9175 4.36633 25.2618 4.36633C25.6061 4.36633 25.8856 4.64579 25.8856 4.99013V8.73289C25.8856 9.07723 25.6061 9.35669 25.2618 9.35669Z" fill="#B82426"/>
<path d="M25.2619 11.8519C24.2301 11.8519 23.3905 11.0123 23.3905 9.98051C23.3905 8.94876 24.2301 8.10913 25.2619 8.10913C26.1052 8.10913 26.8475 8.67866 27.0684 9.49333C27.1089 9.6237 27.1332 9.79525 27.1332 9.98051C27.1332 10.5557 26.8756 11.0865 26.4259 11.4383C26.1215 11.6991 25.701 11.8519 25.2619 11.8519ZM25.2619 9.35672C24.9182 9.35672 24.6381 9.6368 24.6381 9.98051C24.6381 10.3242 24.9182 10.6043 25.2619 10.6043C25.4041 10.6043 25.537 10.5575 25.6368 10.4727C25.8027 10.3423 25.8857 10.1689 25.8857 9.98051C25.8857 9.90004 25.8751 9.85638 25.8701 9.84141C25.7902 9.54698 25.5426 9.35672 25.2619 9.35672Z" fill="#B82426"/>
</g>
<defs>
<clipPath id="clip0_1_725">
<rect width="29.9421" height="29.9421" fill="white" transform="translate(0.309937)"/>
</clipPath>
</defs>
</svg>
