<svg width="29" height="22" viewBox="0 0 29 22" fill="none" xmlns="http://www.w3.org/2000/svg">
<path d="M21.9232 7.0708C21.6565 7.0708 21.4407 7.28688 21.4407 7.55338V9.24734V20.0473H14.9598C14.6931 20.0473 14.4772 20.2634 14.4772 20.5299C14.4772 20.7964 14.6931 21.0125 14.9598 21.0125H21.9232C22.19 21.0125 22.4058 20.7964 22.4058 20.5299V9.24734V7.55338C22.4058 7.28688 22.19 7.0708 21.9232 7.0708Z" fill="white"/>
<path d="M28.8829 8.99459L25.0656 2.78378C25.0058 2.68576 24.9125 2.61248 24.8031 2.57713L20.8757 1.30852C20.8729 1.30763 20.871 1.30534 20.8681 1.30448C20.8659 1.30383 20.8637 1.30454 20.8615 1.30392L19.2007 0.767476C19.0773 0.727654 18.943 0.7392 18.8284 0.79905C18.7139 0.859137 18.6282 0.962815 18.5905 1.08676C18.2281 2.28306 17.1319 3.11838 15.925 3.11838C14.7181 3.11838 13.6219 2.28306 13.2595 1.08676C13.2218 0.962815 13.136 0.859137 13.0215 0.79905C12.907 0.7392 12.7727 0.728125 12.6492 0.767476L10.9885 1.30392C10.9863 1.30454 10.9841 1.30383 10.9819 1.30448C10.979 1.30534 10.9771 1.30763 10.9743 1.30852L7.04682 2.57713C6.93748 2.61248 6.84417 2.68576 6.78432 2.78378L4.10612 7.14134C3.96616 7.36825 4.03732 7.66562 4.26447 7.80511C4.49067 7.9439 4.78851 7.87368 4.92801 7.64653L7.5129 3.44073L10.8153 2.37414C11.6639 4.5935 13.6623 6.05248 15.925 6.05248C18.1877 6.05248 20.186 4.5935 21.0346 2.37414L24.3371 3.44073L27.8485 9.15482L24.7131 11.9334L24.2291 11.333C24.0628 11.1259 23.7593 11.0922 23.5505 11.26C23.3432 11.4273 23.3106 11.731 23.4779 11.9386L24.2791 12.9327C24.3616 13.0355 24.4832 13.0998 24.6142 13.1109C24.6278 13.112 24.6415 13.1125 24.6547 13.1125C24.772 13.1125 24.8861 13.0696 24.9747 12.9912L28.7919 9.60841C28.9672 9.45289 29.0059 9.19417 28.8829 8.99459ZM15.925 5.08733C14.0846 5.08733 12.4533 3.89482 11.7369 2.0765L12.5083 1.82735C13.1144 3.17682 14.4575 4.08353 15.925 4.08353C17.392 4.08353 18.7356 3.17682 19.3417 1.82735L20.1131 2.0765C19.3966 3.89482 17.7654 5.08733 15.925 5.08733Z" fill="white"/>
<path d="M15.925 15.2216C16.0682 15.2216 16.2039 15.158 16.2958 15.0479L18.7087 12.1525C18.8576 11.9736 18.8576 11.7135 18.7087 11.5346L16.2958 8.63918C16.112 8.4191 15.7379 8.4191 15.5541 8.63918L14.5889 9.79732C14.4183 10.0021 14.4461 10.3063 14.6507 10.4769C14.8561 10.6477 15.1596 10.6194 15.3307 10.4151L15.925 9.70188L17.7096 11.8435L15.925 13.9852L14.891 12.7456C14.7209 12.5415 14.4169 12.513 14.2114 12.6841C14.0069 12.8546 13.9791 13.1591 14.1502 13.3639L15.5545 15.0482C15.646 15.158 15.7817 15.2216 15.925 15.2216Z" fill="white"/>
<path d="M0.482576 12.3262H3.37803C3.64477 12.3262 3.8606 12.1101 3.8606 11.8436V8.94815C3.8606 8.68165 3.64477 8.46558 3.37803 8.46558H0.482576C0.215839 8.46558 0 8.68165 0 8.94815V11.8436C0 12.1101 0.21584 12.3262 0.482576 12.3262ZM0.965151 9.43073H2.89545V11.361H0.965151V9.43073Z" fill="white"/>
<path d="M13.0295 18.1169H10.1341C9.86736 18.1169 9.65152 18.333 9.65152 18.5995V21.495C9.65152 21.7615 9.86736 21.9775 10.1341 21.9775H13.0295C13.2963 21.9775 13.5121 21.7615 13.5121 21.495V18.5995C13.5121 18.333 13.2963 18.1169 13.0295 18.1169ZM12.547 21.0124H10.6167V19.0821H12.547V21.0124Z" fill="white"/>
<path d="M13.0295 8.46558H10.1341C9.86736 8.46558 9.65152 8.68165 9.65152 8.94815V11.8436C9.65152 12.1101 9.86736 12.3262 10.1341 12.3262H13.0295C13.2963 12.3262 13.5121 12.1101 13.5121 11.8436V8.94815C13.5121 8.68165 13.2963 8.46558 13.0295 8.46558ZM12.547 11.361H10.6167V9.43073H12.547V11.361Z" fill="white"/>
<path d="M8.0511 13.3161L2.90347 15.032C2.747 15.0843 2.62778 15.2127 2.58819 15.3727L2.10853 17.2918C1.91988 17.1053 1.61623 17.1055 1.4284 17.2933L0.14138 18.5801C0.0508966 18.6706 0 18.7934 0 18.9213C0 19.0493 0.0508966 19.172 0.14138 19.2625L2.71496 21.8363C2.80921 21.9306 2.93268 21.9777 3.05616 21.9777C3.17963 21.9777 3.3031 21.9306 3.39735 21.8363L4.68438 20.5495C4.77486 20.459 4.82576 20.3363 4.82576 20.2083C4.82576 20.0813 4.77518 19.9596 4.68585 19.8693L6.60478 19.3895C6.76501 19.3495 6.89367 19.2305 6.94551 19.074L8.66138 13.9266C8.71935 13.7532 8.67411 13.5618 8.54498 13.4327C8.41585 13.3034 8.22452 13.2576 8.0511 13.3161ZM3.05616 20.8127L1.16497 18.9213L1.7696 18.3169L2.71472 19.2622C2.71461 19.262 2.71484 19.2623 2.71472 19.2622C2.71484 19.2623 2.71519 19.2626 2.71531 19.2627L3.66079 20.2083L3.05616 20.8127ZM6.11372 18.5174L3.89062 19.0733L3.73864 18.9213L5.9714 16.6889C6.15991 16.5007 6.15991 16.195 5.9714 16.0065C5.7829 15.818 5.47752 15.818 5.28901 16.0065L3.05627 18.2389L2.90429 18.0869L3.46003 15.8637L7.44081 14.5369L6.11372 18.5174Z" fill="white"/>
<path d="M8.92762 9.91333H7.84183C7.57509 9.91333 7.35925 10.1294 7.35925 10.3959C7.35925 10.6624 7.57509 10.8785 7.84183 10.8785H8.92762C9.19436 10.8785 9.4102 10.6624 9.4102 10.3959C9.4102 10.1294 9.19436 9.91333 8.92762 9.91333Z" fill="white"/>
<path d="M5.67027 10.8785C5.937 10.8785 6.15284 10.6624 6.15284 10.3959C6.15284 10.1294 5.937 9.91333 5.67027 9.91333H4.58447C4.31774 9.91333 4.1019 10.1294 4.1019 10.3959C4.1019 10.6624 4.31774 10.8785 4.58447 10.8785H5.67027Z" fill="white"/>
<path d="M11.0992 17.3931C11.0992 17.6596 11.3151 17.8757 11.5818 17.8757C11.8486 17.8757 12.0644 17.6596 12.0644 17.3931V16.3073C12.0644 16.0408 11.8486 15.8247 11.5818 15.8247C11.3151 15.8247 11.0992 16.0408 11.0992 16.3073V17.3931Z" fill="white"/>
<path d="M11.5818 14.6181C11.8486 14.6181 12.0644 14.402 12.0644 14.1355V13.0497C12.0644 12.7832 11.8486 12.5671 11.5818 12.5671C11.3151 12.5671 11.0992 12.7832 11.0992 13.0497V14.1355C11.0992 14.402 11.3151 14.6181 11.5818 14.6181Z" fill="white"/>
</svg>
