<svg width="40" height="40" viewBox="0 0 40 40" fill="none" xmlns="http://www.w3.org/2000/svg">
<path d="M32.9875 4.09743C32.6425 4.09743 32.3625 4.37743 32.3625 4.72243V31.5518H15.9019V30.1449H30.4781C30.8231 30.1449 31.1031 29.8649 31.1031 29.5199C31.1031 29.1749 30.8231 28.8949 30.4781 28.8949H10.0369C9.69187 28.8949 9.41187 29.1749 9.41187 29.5199V31.5268C8.39937 31.4031 7.63625 30.5712 7.63625 29.5199C7.63625 28.4187 8.56687 27.4881 9.66812 27.4881H30.4781C30.8231 27.4881 31.1031 27.2081 31.1031 26.8631V4.57493C31.1031 3.03993 29.9469 1.88306 28.4137 1.88306H10.0369C7.99 1.88306 6.38625 3.48681 6.38625 5.53493V29.5193C6.38625 31.2412 7.72375 32.6424 9.41187 32.7756V37.4899C9.41187 37.7424 9.56437 37.9706 9.7975 38.0674C10.0306 38.1637 10.2994 38.1106 10.4787 37.9318L12.6875 35.7231L14.8287 37.9256C14.9487 38.0487 15.1112 38.1149 15.2769 38.1149C15.3556 38.1149 15.4356 38.0999 15.5119 38.0693C15.7475 37.9737 15.9019 37.7443 15.9019 37.4899V32.8012H32.9875C33.3325 32.8012 33.6125 32.5212 33.6125 32.1762V4.72243C33.6125 4.37743 33.3331 4.09743 32.9875 4.09743ZM28.4137 3.13306C28.8369 3.13306 29.2 3.28993 29.4562 3.55306L22.8875 14.9999C22.6156 14.7874 22.3212 14.6049 22.0087 14.4543L21.0206 12.7606L26.5606 3.13368L28.4137 3.13306ZM23.5069 18.7443C23.5069 20.6462 21.9012 22.2537 20.0006 22.2537C18.0656 22.2537 16.4912 20.6793 16.4912 18.7443C16.4912 16.8099 18.0656 15.2368 20.0006 15.2368C20.9575 15.2368 21.8387 15.6443 22.4787 16.2912C22.5319 16.3962 22.605 16.4931 22.715 16.5562C23.2069 17.1612 23.5069 17.9249 23.5069 18.7443ZM25.1187 3.13306L20.295 11.5162L15.405 3.13306H25.1187ZM13.9581 3.13306L19.7962 13.1418C19.7969 13.1431 19.7975 13.1443 19.7981 13.1456L20.2981 14.0024C20.1987 13.9962 20.1006 13.9868 20.0006 13.9868C19.0662 13.9868 18.1969 14.2612 17.4612 14.7281L10.7775 3.13306H13.9581ZM10.6619 24.2799V5.43493L16.4894 15.5443C15.7169 16.3906 15.2412 17.5112 15.2412 18.7443C15.2412 21.3687 17.3762 23.5037 20.0006 23.5037C22.5787 23.5037 24.7569 21.3243 24.7569 18.7443C24.7569 17.6987 24.3944 16.7218 23.7969 15.9262L29.8531 5.37181V26.2374H10.6619V24.2799ZM7.63625 5.53493C7.63625 4.40493 8.37812 3.48056 9.41187 3.21243V24.2799V26.2649C8.7475 26.3199 8.13625 26.5787 7.63625 26.9831V5.53493ZM14.6519 35.9512L13.1412 34.3981C13.0244 34.2781 12.865 34.2099 12.6975 34.2087C12.6962 34.2087 12.695 34.2087 12.6931 34.2087C12.5275 34.2087 12.3681 34.2743 12.2512 34.3918L10.6612 35.9818V30.1449H14.6512V35.9512H14.6519Z" fill="#FFFEFB"/>
</svg>
