<svg width="41" height="41" viewBox="0 0 41 41" fill="none" xmlns="http://www.w3.org/2000/svg">
<g clip-path="url(#clip0_1_458)">
<path d="M15.8519 30.5024C16.5935 30.1149 17.1449 30.3407 17.65 30.8709C18.2918 31.5437 18.9633 32.1892 19.6158 32.8525C20.1102 33.3541 20.1185 33.5622 19.6443 34.0436C18.8944 34.8056 18.1314 35.5545 17.3779 36.3129C17.0784 36.6148 16.7432 36.786 16.4045 36.4282C16.0801 36.0846 16.2298 35.7423 16.54 35.4463C17.196 34.8175 17.8473 34.1839 18.4915 33.5598C17.7915 32.8822 17.1497 32.2605 16.521 31.6507C14.5862 33.5931 12.5931 35.5925 10.6107 37.5812C11.2144 38.1744 11.8443 38.7925 12.5669 39.5022C13.1255 38.9185 13.7221 38.2909 14.3211 37.668C14.4578 37.5253 14.5885 37.3066 14.7514 37.2757C15.0081 37.227 15.3634 37.2175 15.5357 37.3601C15.6641 37.4671 15.6807 37.9473 15.5559 38.0817C14.6646 39.035 13.7411 39.961 12.7809 40.8442C12.6489 40.9655 12.1676 40.9084 12.0072 40.761C11.1776 39.9979 10.3849 39.1931 9.60763 38.3753C9.17146 37.9164 9.1988 37.3744 9.53632 36.8109C9.11917 36.5411 8.72103 36.295 8.33478 36.0311C3.49055 32.7277 0.736857 28.1488 0.01783 22.3383C-0.105771 21.3422 0.396953 20.6218 1.33823 20.3817C2.21175 20.1594 3.26237 20.6717 3.59157 21.6001C3.89463 22.4524 4.08123 23.3487 4.28683 24.2343C4.89177 26.8459 6.32388 28.8335 8.67587 30.1434C9.03598 30.3443 9.39846 30.5084 9.78234 30.2302C10.1888 29.9366 10.1294 29.5265 10.0474 29.0997C9.89406 28.3033 9.75144 27.5045 9.63616 26.7033C9.49354 25.7166 9.87623 25.0046 10.6582 24.7312C11.4308 24.4614 12.1533 24.7466 12.6787 25.5585C13.7316 27.1859 14.7716 28.8204 15.8519 30.5048V30.5024ZM14.9558 31.3464C13.8434 29.6097 12.7535 27.8908 11.6375 26.1886C11.5353 26.0328 11.2608 25.99 11.0659 25.8949C10.9827 26.0923 10.8092 26.3015 10.8329 26.4857C10.9506 27.3666 11.1253 28.2391 11.2727 29.1164C11.4117 29.9402 11.218 30.6629 10.5311 31.1764C9.82869 31.7018 9.07401 31.7078 8.30031 31.306C6.43678 30.3372 4.90722 28.9773 4.06934 27.0551C3.42756 25.5835 3.08647 23.9823 2.60276 22.4405C2.53383 22.2194 2.46846 21.9365 2.30327 21.8224C2.08815 21.6726 1.72567 21.5419 1.52244 21.6275C1.35486 21.6988 1.26811 22.0934 1.25147 22.3526C1.23126 22.6616 1.31327 22.979 1.36794 23.2905C2.2581 28.4103 4.96545 32.3271 9.25347 35.1931C9.64091 35.4522 10.0533 35.6721 10.411 35.8837C11.9513 34.3455 13.4345 32.8644 14.9558 31.3452V31.3464Z" fill="#858484"/>
<path d="M26.0573 31.3251C27.5869 32.8478 29.0832 34.3373 30.6424 35.891C31.2985 35.4606 32.0128 35.0066 32.7104 34.5299C33.0657 34.2874 33.4223 34.0853 33.7408 34.5204C34.0545 34.9483 33.7919 35.2574 33.4294 35.5034C32.7924 35.9349 32.153 36.3629 31.472 36.8205C31.9973 37.6503 31.5813 38.2541 30.974 38.8283C30.356 39.4131 29.7677 40.0301 29.1616 40.6268C28.6529 41.1272 28.4354 41.1272 27.922 40.6149C25.7364 38.4336 23.5532 36.2499 21.3723 34.0627C20.8827 33.5706 20.8839 33.3602 21.3628 32.8728C21.988 32.238 22.6381 31.6282 23.2454 30.9768C23.779 30.4038 24.3495 30.0769 25.1505 30.4954C26.2118 28.8407 27.2327 27.1943 28.319 25.5919C28.5757 25.2139 29.0107 24.8371 29.4361 24.7158C30.5379 24.4032 31.5029 25.2793 31.3805 26.4371C31.2854 27.3405 31.1012 28.2344 30.9396 29.1283C30.8659 29.5349 30.8148 29.926 31.1903 30.2125C31.5671 30.5001 31.9296 30.3575 32.2956 30.1554C34.6547 28.8549 36.0928 26.8686 36.7025 24.2606C36.8784 23.5105 37.0448 22.7568 37.2397 22.0115C37.5499 20.8275 38.6433 20.1131 39.6855 20.3913C40.5781 20.6302 41.0868 21.3244 40.9845 22.2493C40.502 26.6297 38.73 30.4074 35.659 33.573C35.3642 33.8773 35.0291 34.0425 34.6797 33.7073C34.3208 33.3649 34.4979 33.0333 34.7926 32.7325C36.9687 30.5084 38.4792 27.898 39.2708 24.8882C39.4918 24.0502 39.6285 23.186 39.7485 22.3265C39.7806 22.1019 39.6594 21.6941 39.5132 21.643C39.2862 21.5646 38.938 21.6561 38.7169 21.7952C38.5494 21.901 38.4685 22.1839 38.3996 22.4038C37.9088 23.9646 37.5677 25.5884 36.9152 27.0778C36.0738 29 34.5383 30.3587 32.6688 31.3215C31.9153 31.7091 31.1749 31.6995 30.4867 31.1967C29.7939 30.6903 29.5799 29.9747 29.7178 29.1462C29.8545 28.3272 30.0268 27.5129 30.1302 26.6891C30.1623 26.4383 30.0173 26.1661 29.9531 25.9034C29.7226 26.0389 29.4076 26.1185 29.2745 26.3194C28.1752 27.9848 27.1103 29.6728 26.0526 31.3251H26.0573ZM24.4505 31.6044C23.8123 32.2357 23.1848 32.8574 22.6559 33.3804C24.6383 35.381 26.6349 37.3947 28.5424 39.3204C29.1378 38.7474 29.7713 38.1376 30.394 37.5397C28.4212 35.57 26.4364 33.5884 24.4505 31.6044Z" fill="#858484"/>
<path d="M28.9358 8.01071C28.9358 8.30789 28.9334 8.60507 28.9358 8.90225C28.9417 9.49423 28.6589 9.88294 28.1621 10.2039C26.9677 10.9742 26.3271 12.0999 26.257 13.5204C26.2285 14.1053 26.0335 14.5498 25.5118 14.8399C24.9936 15.1287 24.4778 15.4235 23.9704 15.7302C23.4427 16.05 22.9554 16.0108 22.4063 15.7279C21.1442 15.0776 19.8452 15.0764 18.5818 15.735C18.0351 16.0203 17.5443 16.0488 17.019 15.7219C16.5317 15.42 16.0337 15.1311 15.5286 14.8613C14.9795 14.5677 14.7704 14.1195 14.7395 13.5073C14.6682 12.088 14.0252 10.9635 12.8272 10.1956C12.3506 9.89007 12.0642 9.52157 12.0642 8.9498C12.0642 8.296 12.0618 7.64221 12.0642 6.98842C12.0666 6.41664 12.3613 6.05646 12.8403 5.75215C14.0228 4.99969 14.6539 3.8823 14.7347 2.49269C14.7716 1.85673 14.9748 1.39194 15.5405 1.08644C16.0444 0.813037 16.5436 0.527746 17.032 0.227C17.5609 -0.0987077 18.047 -0.0440268 18.5973 0.228189C19.8642 0.854642 21.1679 0.860586 22.4325 0.213925C22.9613 -0.0559139 23.4355 -0.0915754 23.9442 0.212736C24.4541 0.517047 24.9687 0.813037 25.4868 1.1019C26.0264 1.40264 26.2724 1.85316 26.2534 2.46773C26.2427 2.78393 26.3319 3.11796 26.2546 3.41157C26.1928 3.64812 25.9682 3.98215 25.7792 4.00831C25.576 4.03565 25.2884 3.79077 25.1208 3.59344C25.015 3.46863 25.0103 3.20473 25.0471 3.02048C25.1707 2.40473 24.9045 2.05168 24.3554 1.84128C24.2092 1.78541 24.0666 1.7022 23.9466 1.60353C23.4546 1.19699 22.997 1.18511 22.4705 1.5857C22.2411 1.75926 21.8834 1.80799 21.578 1.82582C20.9659 1.86148 20.3443 1.89001 19.7382 1.82107C19.2271 1.76282 18.7114 1.61067 18.2383 1.40502C17.9163 1.26594 17.6691 1.19224 17.3767 1.41572C17.2519 1.51081 17.1069 1.58333 16.9655 1.65108C16.2964 1.97204 15.739 2.33697 15.9398 3.24515C15.9874 3.45912 15.8341 3.74203 15.7164 3.96313C15.4098 4.53966 15.1091 5.1257 14.7323 5.65587C14.4685 6.02912 14.1262 6.38455 13.7412 6.62229C13.3834 6.84339 13.2242 7.06687 13.2729 7.46866C13.2919 7.62438 13.2931 7.78723 13.2729 7.94296C13.1802 8.66332 13.2836 9.25054 14.0941 9.53108C14.3199 9.60953 14.4935 9.90315 14.6384 10.1314C14.957 10.6318 15.2945 11.1311 15.5262 11.6731C15.7366 12.1653 15.8673 12.7061 15.9363 13.2387C15.9779 13.5632 16.0159 13.8021 16.3415 13.9376C16.5222 14.0125 16.6969 14.1171 16.8526 14.2372C17.4361 14.6877 18.0018 14.8565 18.6424 14.3073C18.8136 14.1611 19.1226 14.1374 19.371 14.1278C20.0032 14.1041 20.6438 14.066 21.2701 14.1362C21.7812 14.1932 22.3005 14.3406 22.77 14.5522C23.098 14.6996 23.3428 14.7507 23.634 14.538C23.7612 14.4452 23.9002 14.3632 24.0428 14.2978C24.731 13.9876 25.2503 13.5977 25.0626 12.7026C25.0174 12.4874 25.1719 12.2069 25.2896 11.9846C25.557 11.477 25.8779 10.998 26.1393 10.488C26.4198 9.94 26.8001 9.52514 27.3551 9.23866C27.531 9.14831 27.6487 8.87372 27.7129 8.65856C27.7723 8.45886 27.7045 8.22349 27.7295 8.00952C27.8174 7.28559 27.7045 6.69361 26.8964 6.42615C26.7145 6.36553 26.5636 6.15037 26.4436 5.97563C26.2296 5.66062 26.2023 5.2731 26.5648 5.10668C26.7763 5.01039 27.1234 5.15185 27.386 5.24932C27.5774 5.32065 27.7129 5.53937 27.9042 5.61783C28.7207 5.95661 29.0178 6.57118 28.9417 7.41754C28.9239 7.61368 28.9394 7.81339 28.9394 8.0119H28.937L28.9358 8.01071Z" fill="#858484"/>
<path d="M37.4429 17.1449C37.5808 17.9068 37.2991 18.4596 36.5563 18.9993C36.0571 19.3606 35.7873 20.1654 35.6233 20.8239C35.4902 21.3565 35.3928 21.8046 34.8734 22.0673C34.5739 22.2183 34.2827 22.3895 33.9975 22.5678C33.5304 22.8602 33.099 22.8293 32.6034 22.5785C31.8285 22.1874 31.0037 22.1874 30.2265 22.5916C29.757 22.8352 29.3339 22.8638 28.8859 22.5797C28.6185 22.4109 28.3475 22.2421 28.0623 22.1077C27.4716 21.8296 27.2838 21.3731 27.2315 20.7324C27.1673 19.9502 26.7787 19.2548 26.0989 18.8233C25.6081 18.5119 25.3573 18.1469 25.3965 17.5657C25.4203 17.2114 25.4179 16.8524 25.3965 16.497C25.3656 15.9561 25.6306 15.6281 26.0668 15.3404C26.7751 14.8732 27.1745 14.1743 27.2386 13.3338C27.2814 12.7704 27.4478 12.3472 27.9803 12.0916C28.3178 11.9288 28.6113 11.6387 28.9607 11.5472C29.3315 11.4497 29.7915 11.4045 30.1326 11.5401C31.0275 11.8931 31.8761 11.9537 32.7389 11.5032C32.7912 11.4759 32.8423 11.4426 32.897 11.4224C33.7895 11.105 35.539 12.3092 35.596 13.2482C35.6495 14.1398 36.0536 14.8887 36.8142 15.3475C37.5249 15.7766 37.4714 16.4043 37.4417 17.1449H37.4429ZM36.2306 17.0212C36.3305 16.6099 36.1106 16.4233 35.8147 16.1594C35.0552 15.483 34.5287 14.6176 34.3826 13.5858C34.3006 13.0105 33.4995 12.5493 32.9647 12.7609C31.9569 13.1591 30.9146 13.152 29.908 12.7716C29.328 12.5517 28.5697 12.9962 28.4604 13.6191C28.2738 14.6735 27.7699 15.5817 26.9213 16.2545C26.5149 16.5767 26.484 17.5585 26.8892 17.8735C27.7794 18.5677 28.2928 19.5009 28.4652 20.6088C28.5495 21.152 29.372 21.5918 29.8949 21.3862C30.9003 20.9892 31.9379 20.9951 32.9433 21.3779C33.5102 21.593 34.3065 21.1627 34.3826 20.5672C34.5121 19.5496 35.0445 18.6961 35.766 18.0293C36.113 17.7083 36.3257 17.4706 36.2318 17.0224L36.2306 17.0212Z" fill="#858484"/>
<path d="M15.588 17.146C15.72 17.9009 15.4466 18.4584 14.7026 18.998C14.2058 19.3582 13.9503 20.1677 13.7792 20.8263C13.6413 21.3565 13.5367 21.8046 13.0174 22.0661C12.7179 22.2171 12.4267 22.3895 12.1426 22.5678C11.6756 22.8614 11.243 22.8269 10.7486 22.5773C9.97368 22.1874 9.14888 22.1862 8.37161 22.5903C7.90216 22.834 7.48026 22.8614 7.03101 22.5785C6.74697 22.399 6.45698 22.2254 6.15511 22.0792C5.60722 21.8129 5.43965 21.3814 5.39211 20.7883C5.32793 19.9787 4.93454 19.2714 4.24523 18.8245C3.75914 18.5095 3.50124 18.1505 3.54046 17.568C3.56423 17.2138 3.56304 16.8548 3.54046 16.4994C3.50719 15.9561 3.77578 15.6304 4.20957 15.3416C4.93335 14.8601 5.33744 14.1469 5.39805 13.2815C5.4337 12.7632 5.58583 12.3674 6.06716 12.1201C6.41895 11.9394 6.73271 11.6518 7.10232 11.5507C7.47075 11.4497 7.93425 11.4021 8.27297 11.5377C9.16789 11.8955 10.0153 11.9513 10.8793 11.5056C10.9494 11.4699 11.0195 11.4295 11.0944 11.4069C12.0143 11.1311 13.6912 12.3531 13.7554 13.3005C13.8148 14.1659 14.2035 14.9065 14.957 15.3475C15.6748 15.7695 15.613 16.4043 15.5868 17.146H15.588ZM14.4946 17.0581C14.371 16.8013 14.3116 16.4661 14.1119 16.2997C13.2384 15.5745 12.7214 14.6557 12.5348 13.5573C12.4445 13.0247 11.634 12.5445 11.1396 12.7478C10.1127 13.1674 9.05855 13.1579 8.03171 12.7597C7.50046 12.5528 6.71607 13.02 6.61148 13.5894C6.41301 14.658 5.92217 15.5936 5.04269 16.2688C4.63267 16.5838 4.64099 17.5621 5.05458 17.8878C5.92335 18.5713 6.42727 19.4973 6.61267 20.5731C6.71369 21.1639 7.49214 21.5966 8.06023 21.3755C9.04548 20.9915 10.0723 20.9998 11.0564 21.3636C11.6982 21.6013 12.4219 21.1805 12.5384 20.4875C12.7024 19.5116 13.2075 18.6676 13.9242 18.009C14.226 17.7321 14.4839 17.5431 14.4946 17.0592V17.0581Z" fill="#858484"/>
<path d="M20.4822 4.35073C22.4812 4.3436 24.1248 5.96144 24.1355 7.94779C24.1462 9.96028 22.4907 11.628 20.4869 11.6233C18.5105 11.6174 16.8645 9.96504 16.8633 7.98226C16.8609 5.99116 18.4891 4.35905 20.4834 4.35073H20.4822ZM20.5178 5.55371C19.1903 5.54658 18.0826 6.62831 18.0684 7.94541C18.0529 9.28985 19.1701 10.4191 20.5095 10.412C21.8252 10.406 22.9281 9.29936 22.9292 7.98226C22.9316 6.65922 21.8382 5.55966 20.5166 5.55252L20.5178 5.55371Z" fill="#858484"/>
<path d="M34.1175 17.0568C34.1247 18.5748 32.9255 19.7766 31.4114 19.7671C29.9175 19.7588 28.7433 18.5796 28.7385 17.0854C28.7338 15.5733 29.9401 14.3585 31.4411 14.3644C32.9136 14.3703 34.1104 15.5745 34.1175 17.0568ZM31.3924 18.5487C32.2481 18.5618 32.9124 17.9294 32.9219 17.0901C32.9326 16.2675 32.2528 15.5757 31.4316 15.5721C30.6317 15.5686 29.9626 16.2164 29.9377 17.0212C29.9115 17.8687 30.5462 18.5356 31.3924 18.5487Z" fill="#858484"/>
<path d="M9.55653 19.7683C8.04479 19.7612 6.86225 18.5499 6.88008 17.0271C6.89791 15.5531 8.11134 14.3585 9.58505 14.3644C11.0813 14.3703 12.2769 15.6007 12.2579 17.1151C12.2401 18.6057 11.0493 19.7742 9.55534 19.7671L9.55653 19.7683ZM9.56722 18.5499C10.4194 18.5522 11.0683 17.9044 11.0611 17.0604C11.054 16.2533 10.4051 15.5912 9.60525 15.5733C8.78402 15.5555 8.08757 16.2295 8.07688 17.0521C8.06499 17.8878 8.72222 18.5487 9.56841 18.5499H9.56722Z" fill="#858484"/>
</g>
<defs>
<clipPath id="clip0_1_458">
<rect width="41" height="41" fill="white"/>
</clipPath>
</defs>
</svg>
