<svg width="34" height="39" viewBox="0 0 34 39" fill="none" xmlns="http://www.w3.org/2000/svg">
<g clip-path="url(#clip0_1_500)">
<path d="M7.31037 31.9555C5.22545 32.6234 3.21708 33.2574 1.2167 33.914C0.816856 34.0455 0.463849 34.0773 0.178244 33.7382C-0.110788 33.3957 -0.00911287 33.0476 0.198807 32.6915C1.51602 30.4393 2.81952 28.178 4.14244 25.9292C4.31837 25.6298 4.33322 25.437 4.10931 25.1376C-2.33394 16.4928 1.47832 4.37106 11.7361 0.855535C19.8004 -1.90812 28.9421 2.51237 31.6622 10.5187C33.4421 15.7591 32.6549 20.6378 29.4173 25.1263C29.206 25.42 29.1888 25.6094 29.3705 25.9179C30.6489 28.0839 31.9067 30.2624 33.1702 32.4363C33.2364 32.5509 33.353 32.662 33.361 32.7799C33.3827 33.0952 33.4581 33.4626 33.329 33.7189C33.1473 34.0784 32.7452 34.0637 32.3671 33.9401C30.4729 33.3209 28.5777 32.7096 26.6812 32.0961C26.5396 32.0508 26.3956 32.0133 26.19 31.9544C25.9615 32.992 25.7365 34.0002 25.5171 35.0106C25.2841 36.08 25.0476 37.1483 24.8328 38.2211C24.7551 38.6066 24.6157 38.9072 24.1919 38.9843C23.7464 39.0648 23.4847 38.8278 23.2768 38.4683C21.979 36.2263 20.6641 33.9934 19.3777 31.7457C19.1687 31.3805 18.9699 31.2989 18.5324 31.3227C17.3397 31.3885 16.139 31.376 14.9463 31.3182C14.5624 31.3 14.3682 31.3545 14.1786 31.6856C12.9002 33.9174 11.6139 36.1435 10.2967 38.3526C10.1344 38.6248 9.80656 38.8981 9.50724 38.9684C9.04685 39.0761 8.7978 38.7393 8.70298 38.2891C8.30085 36.3873 7.88958 34.4878 7.47945 32.5883C7.43603 32.3887 7.37549 32.1936 7.31151 31.9555H7.31037ZM31.0201 15.767C31.0567 7.98072 24.6443 1.57905 16.7867 1.55864C8.94289 1.53709 2.53163 7.89113 2.50078 15.716C2.46994 23.5023 8.82522 29.8609 16.6771 29.8995C24.5917 29.9392 30.9836 23.6418 31.0201 15.7682V15.767ZM23.7052 36.1265C24.0937 34.3098 24.4489 32.6609 24.7985 31.0108C24.9482 30.3043 25.2863 30.0718 25.9764 30.268C26.6321 30.454 27.2753 30.6831 27.9253 30.8906C28.9272 31.2104 29.9303 31.5291 31.0716 31.892C30.0262 30.0968 29.0609 28.4377 28.0624 26.7219C25.9718 28.7995 23.5373 30.1932 20.695 30.9621C21.7003 32.6869 22.6645 34.3392 23.7052 36.1254V36.1265ZM2.45394 31.8897C2.84465 31.7706 3.09256 31.6981 3.33932 31.6187C4.7285 31.1707 6.11426 30.708 7.50915 30.2771C8.23002 30.0548 8.57388 30.2896 8.72468 31.0301C8.80465 31.418 8.88577 31.8058 8.96916 32.1925C9.23991 33.4513 9.51295 34.7089 9.81912 36.1242C10.8633 34.3302 11.8286 32.6733 12.8271 30.9587C9.97449 30.1943 7.54342 28.7892 5.45508 26.7242C4.45546 28.4445 3.4924 30.1025 2.4528 31.8897H2.45394Z" fill="#858484"/>
<path d="M29.6857 15.8259C29.5715 23.0327 23.7303 28.6599 16.4759 28.5521C9.49347 28.4478 3.72539 22.5644 3.83507 15.6569C3.95045 8.39454 9.84076 2.78784 17.2174 2.92052C24.0342 3.043 29.7943 9.00579 29.6869 15.8259H29.6857ZM16.7627 27.0325C23.0289 27.0314 28.1229 21.9667 28.1218 15.7397C28.1206 9.4991 23.0483 4.47189 16.757 4.47416C10.4645 4.47642 5.39789 9.50477 5.39904 15.7465C5.39904 21.9724 10.4977 27.0348 16.7638 27.0336L16.7627 27.0325Z" fill="#858484"/>
<path d="M11.5932 24.5784C10.9329 24.5909 10.6062 24.1271 10.7616 23.5079C11.1454 21.9713 11.5167 20.4301 11.9508 18.9071C12.121 18.3083 12.0548 17.9386 11.5201 17.5349C10.2943 16.6118 9.14047 15.5945 7.94892 14.6261C7.62333 14.3607 7.34116 14.0885 7.46911 13.6281C7.60848 13.1269 8.03803 13.0622 8.4653 13.035C10.0407 12.9363 11.6161 12.8275 13.1926 12.7674C13.7193 12.747 13.9935 12.5757 14.1808 12.0699C14.7246 10.6014 15.329 9.15545 15.9082 7.70047C16.0658 7.30469 16.2292 6.90437 16.7456 6.89757C17.2962 6.88963 17.4573 7.31603 17.6218 7.72882C18.2079 9.20194 18.8053 10.6705 19.3743 12.1493C19.5273 12.5474 19.7216 12.7402 20.1854 12.7572C21.7242 12.8139 23.2608 12.925 24.7985 13.0157C24.9504 13.0248 25.1263 12.9987 25.2486 13.0656C25.5285 13.2199 25.8781 13.365 26.0231 13.6156C26.2242 13.9638 25.9843 14.2927 25.6816 14.5399C24.3758 15.6081 23.0814 16.6912 21.7642 17.7458C21.4729 17.9794 21.3826 18.1813 21.4832 18.5532C21.9184 20.1545 22.316 21.766 22.7341 23.3718C22.8404 23.7778 22.8838 24.1634 22.4862 24.4423C22.0864 24.7224 21.7368 24.5387 21.3838 24.3142C20.0232 23.45 18.6477 22.6086 17.2985 21.7274C16.9181 21.4791 16.6427 21.453 16.2463 21.715C14.8846 22.6109 13.4931 23.4636 12.1085 24.3255C11.92 24.4435 11.7075 24.524 11.5944 24.5795L11.5932 24.5784ZM20.792 22.1209C20.7223 21.8148 20.6869 21.6333 20.6412 21.4553C20.3647 20.3768 20.0894 19.2994 19.8084 18.2221C19.6804 17.7333 19.789 17.3614 20.2139 17.0325C21.0982 16.3475 21.9481 15.6172 22.8107 14.9028C22.9432 14.7928 23.0688 14.6748 23.2973 14.4718C21.9447 14.3879 20.7497 14.2813 19.5536 14.2518C18.8008 14.2337 18.3884 13.9422 18.1404 13.2199C17.752 12.0858 17.2574 10.9869 16.7684 9.77804C16.6542 10.0343 16.581 10.1852 16.5194 10.3417C16.1047 11.3759 15.6774 12.4045 15.2878 13.4478C15.0982 13.957 14.7783 14.2031 14.2322 14.2246C13.2817 14.262 12.3312 14.3278 11.3819 14.389C11.0369 14.4117 10.6942 14.456 10.2315 14.5013C11.3316 15.4108 12.3118 16.2455 13.3206 17.0438C13.7204 17.3602 13.8415 17.7163 13.717 18.1847C13.6633 18.3854 13.6108 18.5861 13.5593 18.7869C13.2863 19.8585 13.0133 20.9313 12.7082 22.1323C13.9295 21.3657 15.0422 20.6852 16.1344 19.9742C16.5776 19.685 16.9546 19.6941 17.3933 19.9799C18.4729 20.6818 19.5719 21.3543 20.7909 22.1198L20.792 22.1209Z" fill="#858484"/>
</g>
<defs>
<clipPath id="clip0_1_500">
<rect width="33.4021" height="38.9691" fill="white" transform="translate(0 0.0310059)"/>
</clipPath>
</defs>
</svg>
