<svg width="40" height="39" viewBox="0 0 40 39" fill="none" xmlns="http://www.w3.org/2000/svg">
<path d="M25.245 6.73377V3.24994C25.2443 3.03865 25.1657 2.83502 25.0243 2.67804C24.8829 2.52106 24.6885 2.42174 24.4785 2.3991L10.8996 0.76642C10.7793 0.751748 10.6573 0.762822 10.5416 0.798909C10.4259 0.834995 10.3192 0.895269 10.2286 0.975731C10.138 1.05619 10.0655 1.155 10.016 1.26561C9.96652 1.37621 9.94109 1.49608 9.94144 1.61726V4.89412" fill="#B82426"/>
<path d="M25.245 7.11734C25.1434 7.11734 25.0459 7.07696 24.974 7.00509C24.9021 6.93321 24.8617 6.83573 24.8617 6.73408V3.25025C24.8617 3.13524 24.8195 3.02422 24.7433 2.9381C24.6671 2.85198 24.562 2.7967 24.4478 2.78268L10.8498 1.14999C10.7814 1.13933 10.7114 1.14412 10.6451 1.16402C10.5788 1.18392 10.5178 1.21841 10.4665 1.26497C10.4157 1.3094 10.3751 1.36422 10.3473 1.42571C10.3196 1.4872 10.3053 1.55393 10.3056 1.6214V4.89827C10.3056 4.99992 10.2652 5.0974 10.1933 5.16927C10.1214 5.24115 10.0239 5.28153 9.92229 5.28153C9.82064 5.28153 9.72316 5.24115 9.65129 5.16927C9.57941 5.0974 9.53903 4.99992 9.53903 4.89827V1.62524C9.53943 1.44938 9.57682 1.27557 9.6488 1.11512C9.72077 0.954664 9.82571 0.811153 9.95678 0.693915C10.0902 0.575066 10.2473 0.485928 10.4178 0.432408C10.5883 0.378888 10.7682 0.362209 10.9456 0.383475L24.536 2.01999C24.8368 2.05647 25.1139 2.20168 25.3151 2.42828C25.5163 2.65488 25.6277 2.94723 25.6283 3.25025V6.73408C25.6283 6.83573 25.5879 6.93321 25.516 7.00509C25.4441 7.07696 25.3466 7.11734 25.245 7.11734Z" fill="#B82426"/>
<path d="M24.0914 32.8266H7.7416C7.63996 32.8266 7.54247 32.7862 7.4706 32.7143C7.39872 32.6424 7.35835 32.5449 7.35835 32.4433V5.13991C7.35613 5.00829 7.38231 4.87774 7.43509 4.75716C7.48788 4.63657 7.56604 4.52878 7.66424 4.44112C7.76245 4.35347 7.87839 4.28801 8.00417 4.2492C8.12996 4.2104 8.26263 4.19916 8.39315 4.21625L9.99134 4.42321L27.031 6.64228C27.2515 6.67113 27.454 6.77919 27.6007 6.94632C27.7474 7.11345 27.8282 7.32824 27.8282 7.55061V27.0777C27.8282 27.1793 27.7878 27.2768 27.716 27.3487C27.6441 27.4206 27.5466 27.4609 27.445 27.4609C27.3433 27.4609 27.2458 27.4206 27.174 27.3487C27.1021 27.2768 27.0617 27.1793 27.0617 27.0777V7.56594C27.0621 7.52998 27.0496 7.49506 27.0264 7.46761C27.0031 7.44016 26.9708 7.422 26.9352 7.41647L8.2935 4.98277C8.27297 4.97949 8.25197 4.98088 8.23206 4.98686C8.21215 4.99283 8.19385 5.00322 8.17852 5.01726C8.16148 5.03114 8.14781 5.04869 8.13851 5.0686C8.12922 5.08851 8.12455 5.11027 8.12486 5.13224V32.06H24.0914C24.1931 32.06 24.2906 32.1004 24.3625 32.1723C24.4343 32.2442 24.4747 32.3417 24.4747 32.4433C24.4747 32.5449 24.4343 32.6424 24.3625 32.7143C24.2906 32.7862 24.1931 32.8266 24.0914 32.8266Z" fill="#B82426"/>
<path d="M13.2988 13.1418H11.5013C11.3656 13.1423 11.2311 13.116 11.1056 13.0644C10.98 13.0128 10.8659 12.937 10.7698 12.8412C10.6736 12.7454 10.5974 12.6316 10.5453 12.5062C10.4933 12.3809 10.4665 12.2465 10.4665 12.1108V10.5778C10.466 10.4417 10.4924 10.307 10.5442 10.1812C10.596 10.0554 10.6722 9.94112 10.7684 9.84493C10.8646 9.74874 10.9789 9.67254 11.1047 9.62071C11.2304 9.56889 11.3652 9.54247 11.5013 9.54298H13.2988C13.5715 9.54399 13.8328 9.65306 14.0253 9.84629C14.2178 10.0395 14.3259 10.3012 14.3259 10.5739V12.107C14.3264 12.2424 14.3002 12.3765 14.2489 12.5018C14.1975 12.6271 14.122 12.741 14.0266 12.8371C13.9313 12.9332 13.8179 13.0096 13.693 13.0618C13.5681 13.1141 13.4341 13.1413 13.2988 13.1418ZM11.5013 10.3095C11.4667 10.3095 11.4325 10.3164 11.4006 10.3297C11.3688 10.343 11.3399 10.3626 11.3156 10.3872C11.2914 10.4118 11.2722 10.441 11.2594 10.473C11.2465 10.5051 11.2401 10.5394 11.2407 10.5739V12.107C11.2401 12.1415 11.2465 12.1758 11.2594 12.2079C11.2722 12.24 11.2914 12.2691 11.3156 12.2937C11.3399 12.3184 11.3688 12.3379 11.4006 12.3512C11.4325 12.3646 11.4667 12.3714 11.5013 12.3714H13.2988C13.3682 12.3704 13.4345 12.3421 13.4833 12.2926C13.532 12.2431 13.5594 12.1765 13.5594 12.107V10.5739C13.5594 10.5045 13.532 10.4378 13.4833 10.3883C13.4345 10.3388 13.3682 10.3105 13.2988 10.3095H11.5013Z" fill="#B82426"/>
<path d="M18.4918 13.1421H16.6943C16.4218 13.1401 16.1612 13.0307 15.9689 12.8377C15.7766 12.6447 15.6681 12.3836 15.6671 12.1111V10.5781C15.6681 10.3056 15.7766 10.0446 15.9689 9.85154C16.1612 9.65852 16.4218 9.54914 16.6943 9.54712H18.4918C18.7645 9.54813 19.0258 9.6572 19.2183 9.85043C19.4108 10.0437 19.5189 10.3053 19.5189 10.5781V12.1111C19.5189 12.3839 19.4108 12.6455 19.2183 12.8388C19.0258 13.032 18.7645 13.1411 18.4918 13.1421ZM16.6943 10.3098C16.6248 10.3108 16.5585 10.3391 16.5098 10.3886C16.461 10.4381 16.4337 10.5048 16.4337 10.5743V12.1073C16.4337 12.1768 16.461 12.2435 16.5098 12.2929C16.5585 12.3424 16.6248 12.3707 16.6943 12.3717H18.4918C18.5263 12.3717 18.5605 12.3649 18.5924 12.3515C18.6243 12.3382 18.6532 12.3187 18.6774 12.2941C18.7017 12.2694 18.7208 12.2403 18.7337 12.2082C18.7465 12.1761 18.7529 12.1418 18.7524 12.1073V10.5743C18.7529 10.5397 18.7465 10.5054 18.7337 10.4733C18.7208 10.4413 18.7017 10.4121 18.6774 10.3875C18.6532 10.3629 18.6243 10.3433 18.5924 10.33C18.5605 10.3167 18.5263 10.3098 18.4918 10.3098H16.6943Z" fill="#B82426"/>
<path d="M23.689 13.1418H21.8877C21.6156 13.1398 21.3553 13.0302 21.1636 12.8371C20.9719 12.644 20.8644 12.3829 20.8644 12.1108V10.5778C20.8634 10.305 20.9705 10.0429 21.1623 9.84899C21.3541 9.65503 21.6149 9.54499 21.8877 9.54297H23.689C23.9611 9.54499 24.2214 9.6545 24.4131 9.84763C24.6048 10.0408 24.7123 10.3018 24.7123 10.5739V12.107C24.7133 12.3797 24.6062 12.6418 24.4144 12.8358C24.2226 13.0297 23.9618 13.1397 23.689 13.1418ZM21.8877 10.3095C21.8535 10.31 21.8197 10.3172 21.7882 10.3308C21.7568 10.3443 21.7284 10.364 21.7045 10.3885C21.6807 10.4131 21.6619 10.4421 21.6493 10.4739C21.6366 10.5057 21.6304 10.5397 21.6309 10.5739V12.107C21.6304 12.1412 21.6366 12.1752 21.6493 12.207C21.6619 12.2388 21.6807 12.2678 21.7045 12.2924C21.7284 12.3169 21.7568 12.3366 21.7882 12.3501C21.8197 12.3637 21.8535 12.3709 21.8877 12.3714H23.689C23.7232 12.3709 23.757 12.3637 23.7885 12.3501C23.8199 12.3366 23.8483 12.3169 23.8722 12.2924C23.896 12.2678 23.9148 12.2388 23.9274 12.207C23.9401 12.1752 23.9463 12.1412 23.9458 12.107V10.5739C23.9463 10.5397 23.9401 10.5057 23.9274 10.4739C23.9148 10.4421 23.896 10.4131 23.8722 10.3885C23.8483 10.364 23.8199 10.3443 23.7885 10.3308C23.757 10.3172 23.7232 10.31 23.689 10.3095H21.8877Z" fill="#B82426"/>
<path d="M13.2987 18.2316H11.5013C11.3656 18.2321 11.2311 18.2058 11.1056 18.1542C10.98 18.1026 10.8659 18.0267 10.7698 17.931C10.6736 17.8352 10.5974 17.7214 10.5453 17.596C10.4933 17.4707 10.4665 17.3363 10.4665 17.2006V15.6676C10.4665 15.3948 10.5746 15.1331 10.7671 14.9399C10.9596 14.7467 11.2208 14.6376 11.4936 14.6366H13.2911C13.5638 14.6376 13.8251 14.7467 14.0176 14.9399C14.2101 15.1331 14.3182 15.3948 14.3182 15.6676V17.2006C14.3182 17.4721 14.2112 17.7326 14.0203 17.9256C13.8295 18.1186 13.5702 18.2285 13.2987 18.2316ZM11.5013 15.3993C11.4667 15.3993 11.4325 15.4061 11.4006 15.4195C11.3688 15.4328 11.3399 15.4524 11.3156 15.477C11.2914 15.5016 11.2722 15.5308 11.2594 15.5628C11.2465 15.5949 11.2401 15.6292 11.2406 15.6637V17.1968C11.2401 17.2313 11.2465 17.2656 11.2594 17.2977C11.2722 17.3297 11.2914 17.3589 11.3156 17.3835C11.3399 17.4081 11.3688 17.4277 11.4006 17.441C11.4325 17.4544 11.4667 17.4612 11.5013 17.4612H13.2987C13.3682 17.4602 13.4345 17.4319 13.4833 17.3824C13.532 17.3329 13.5594 17.2662 13.5594 17.1968V15.6637C13.5594 15.5943 13.532 15.5276 13.4833 15.4781C13.4345 15.4286 13.3682 15.4003 13.2987 15.3993H11.5013Z" fill="#B82426"/>
<path d="M18.4918 18.2316H16.6943C16.4218 18.2296 16.1612 18.1202 15.9689 17.9271C15.7766 17.7341 15.6681 17.4731 15.6671 17.2006V15.6676C15.6681 15.3951 15.7766 15.134 15.9689 14.941C16.1612 14.748 16.4218 14.6386 16.6943 14.6366H18.4918C18.7645 14.6376 19.0258 14.7467 19.2183 14.9399C19.4108 15.1331 19.5189 15.3948 19.5189 15.6676V17.2006C19.5189 17.4734 19.4108 17.735 19.2183 17.9283C19.0258 18.1215 18.7645 18.2306 18.4918 18.2316ZM16.6943 15.3993C16.6248 15.4003 16.5585 15.4286 16.5098 15.4781C16.461 15.5276 16.4337 15.5943 16.4337 15.6637V17.1968C16.4337 17.2662 16.461 17.3329 16.5098 17.3824C16.5585 17.4319 16.6248 17.4602 16.6943 17.4612H18.4918C18.5263 17.4612 18.5605 17.4544 18.5924 17.441C18.6243 17.4277 18.6532 17.4081 18.6774 17.3835C18.7017 17.3589 18.7208 17.3297 18.7337 17.2977C18.7465 17.2656 18.7529 17.2313 18.7524 17.1968V15.6637C18.7529 15.6292 18.7465 15.5949 18.7337 15.5628C18.7208 15.5308 18.7017 15.5016 18.6774 15.477C18.6532 15.4524 18.6243 15.4328 18.5924 15.4195C18.5605 15.4061 18.5263 15.3993 18.4918 15.3993H16.6943Z" fill="#B82426"/>
<path d="M23.689 18.2316H21.8877C21.6156 18.2295 21.3553 18.12 21.1636 17.9269C20.9719 17.7338 20.8644 17.4727 20.8644 17.2006V15.6676C20.8644 15.3955 20.9719 15.1344 21.1636 14.9413C21.3553 14.7481 21.6156 14.6386 21.8877 14.6366H23.689C23.9611 14.6386 24.2214 14.7481 24.4131 14.9413C24.6047 15.1344 24.7123 15.3955 24.7123 15.6676V17.2006C24.7123 17.4727 24.6047 17.7338 24.4131 17.9269C24.2214 18.12 23.9611 18.2295 23.689 18.2316ZM21.8877 15.3993C21.8535 15.3998 21.8197 15.407 21.7882 15.4206C21.7568 15.4341 21.7284 15.4538 21.7045 15.4783C21.6807 15.5029 21.6619 15.5319 21.6493 15.5637C21.6366 15.5955 21.6304 15.6295 21.6309 15.6637V17.1968C21.6304 17.231 21.6366 17.265 21.6493 17.2968C21.6619 17.3286 21.6807 17.3576 21.7045 17.3822C21.7284 17.4067 21.7568 17.4264 21.7882 17.4399C21.8197 17.4535 21.8535 17.4607 21.8877 17.4612H23.689C23.7232 17.4607 23.757 17.4535 23.7884 17.4399C23.8199 17.4264 23.8483 17.4067 23.8722 17.3822C23.896 17.3576 23.9148 17.3286 23.9274 17.2968C23.9401 17.265 23.9463 17.231 23.9458 17.1968V15.6637C23.9463 15.6295 23.9401 15.5955 23.9274 15.5637C23.9148 15.5319 23.896 15.5029 23.8722 15.4783C23.8483 15.4538 23.8199 15.4341 23.7884 15.4206C23.757 15.407 23.7232 15.3998 23.689 15.3993H21.8877Z" fill="#B82426"/>
<path d="M13.2987 23.3212H11.5013C11.3656 23.3217 11.2311 23.2954 11.1056 23.2438C10.98 23.1922 10.8659 23.1163 10.7698 23.0206C10.6736 22.9248 10.5974 22.811 10.5453 22.6856C10.4933 22.5603 10.4665 22.4259 10.4665 22.2902V20.7572C10.4665 20.4844 10.5746 20.2227 10.7671 20.0295C10.9596 19.8363 11.2208 19.7272 11.4936 19.7262H13.2911C13.5638 19.7272 13.8251 19.8363 14.0176 20.0295C14.2101 20.2227 14.3182 20.4844 14.3182 20.7572V22.2902C14.3182 22.5616 14.2112 22.8222 14.0203 23.0152C13.8295 23.2082 13.5702 23.3181 13.2987 23.3212ZM11.5013 20.4889C11.4667 20.4889 11.4325 20.4957 11.4006 20.5091C11.3688 20.5224 11.3399 20.542 11.3156 20.5666C11.2914 20.5912 11.2722 20.6204 11.2594 20.6524C11.2465 20.6845 11.2401 20.7188 11.2406 20.7533V22.2864C11.2401 22.3209 11.2465 22.3552 11.2594 22.3873C11.2722 22.4193 11.2914 22.4485 11.3156 22.4731C11.3399 22.4977 11.3688 22.5173 11.4006 22.5306C11.4325 22.544 11.4667 22.5508 11.5013 22.5508H13.2987C13.3682 22.5498 13.4345 22.5215 13.4833 22.472C13.532 22.4225 13.5594 22.3558 13.5594 22.2864V20.7533C13.5594 20.6839 13.532 20.6172 13.4833 20.5677C13.4345 20.5182 13.3682 20.4899 13.2987 20.4889H11.5013Z" fill="#B82426"/>
<path d="M18.4918 23.3212H16.6943C16.4218 23.3192 16.1612 23.2098 15.9689 23.0167C15.7766 22.8237 15.6681 22.5627 15.6671 22.2902V20.7572C15.6681 20.4847 15.7766 20.2236 15.9689 20.0306C16.1612 19.8376 16.4218 19.7282 16.6943 19.7262H18.4918C18.7645 19.7272 19.0258 19.8363 19.2183 20.0295C19.4108 20.2227 19.5189 20.4844 19.5189 20.7572V22.2902C19.5189 22.563 19.4108 22.8246 19.2183 23.0179C19.0258 23.2111 18.7645 23.3202 18.4918 23.3212ZM16.6943 20.4889C16.6248 20.4899 16.5585 20.5182 16.5098 20.5677C16.461 20.6172 16.4337 20.6839 16.4337 20.7533V22.2864C16.4337 22.3558 16.461 22.4225 16.5098 22.472C16.5585 22.5215 16.6248 22.5498 16.6943 22.5508H18.4918C18.5263 22.5508 18.5605 22.544 18.5924 22.5306C18.6243 22.5173 18.6532 22.4977 18.6774 22.4731C18.7017 22.4485 18.7208 22.4193 18.7337 22.3873C18.7465 22.3552 18.7529 22.3209 18.7524 22.2864V20.7533C18.7529 20.7188 18.7465 20.6845 18.7337 20.6524C18.7208 20.6204 18.7017 20.5912 18.6774 20.5666C18.6532 20.542 18.6243 20.5224 18.5924 20.5091C18.5605 20.4957 18.5263 20.4889 18.4918 20.4889H16.6943Z" fill="#B82426"/>
<path d="M23.689 23.3212H21.8877C21.6156 23.3191 21.3553 23.2096 21.1636 23.0165C20.9719 22.8234 20.8644 22.5623 20.8644 22.2902V20.7572C20.8644 20.4851 20.9719 20.224 21.1636 20.0309C21.3553 19.8377 21.6156 19.7282 21.8877 19.7262H23.689C23.9611 19.7282 24.2214 19.8377 24.4131 20.0309C24.6047 20.224 24.7123 20.4851 24.7123 20.7572V22.2902C24.7123 22.5623 24.6047 22.8234 24.4131 23.0165C24.2214 23.2096 23.9611 23.3191 23.689 23.3212ZM21.8877 20.4889C21.8535 20.4894 21.8197 20.4966 21.7882 20.5102C21.7568 20.5237 21.7284 20.5434 21.7045 20.5679C21.6807 20.5925 21.6619 20.6215 21.6493 20.6533C21.6366 20.6851 21.6304 20.7191 21.6309 20.7533V22.2864C21.6304 22.3206 21.6366 22.3546 21.6493 22.3864C21.6619 22.4182 21.6807 22.4472 21.7045 22.4718C21.7284 22.4963 21.7568 22.516 21.7882 22.5295C21.8197 22.5431 21.8535 22.5503 21.8877 22.5508H23.689C23.7232 22.5503 23.757 22.5431 23.7884 22.5295C23.8199 22.516 23.8483 22.4963 23.8722 22.4718C23.896 22.4472 23.9148 22.4182 23.9274 22.3864C23.9401 22.3546 23.9463 22.3206 23.9458 22.2864V20.7533C23.9463 20.7191 23.9401 20.6851 23.9274 20.6533C23.9148 20.6215 23.896 20.5925 23.8722 20.5679C23.8483 20.5434 23.8199 20.5237 23.7884 20.5102C23.757 20.4966 23.7232 20.4894 23.689 20.4889H21.8877Z" fill="#B82426"/>
<path d="M24.0913 32.8222H5.14681C5.04516 32.8222 4.94768 32.7818 4.8758 32.7099C4.80393 32.6381 4.76355 32.5406 4.76355 32.4389C4.76355 32.3373 4.80393 32.2398 4.8758 32.1679C4.94768 32.096 5.04516 32.0557 5.14681 32.0557H24.0913C24.193 32.0557 24.2904 32.096 24.3623 32.1679C24.4342 32.2398 24.4746 32.3373 24.4746 32.4389C24.4746 32.5406 24.4342 32.6381 24.3623 32.7099C24.2904 32.7818 24.193 32.8222 24.0913 32.8222Z" fill="#B82426"/>
<path d="M29.5144 37.9429C28.3608 37.9459 27.2323 37.6066 26.2716 36.9679C25.311 36.3293 24.5614 35.4199 24.1179 34.355C23.6743 33.2901 23.5567 32.1175 23.7799 30.9857C24.0031 29.8539 24.557 28.8138 25.3717 27.997C26.1863 27.1802 27.225 26.6235 28.3562 26.3973C29.4874 26.1711 30.6603 26.2857 31.7263 26.7264C32.7924 27.1672 33.7037 27.9144 34.345 28.8733C34.9862 29.8323 35.3285 30.9599 35.3285 32.1135C35.3285 33.6569 34.7164 35.1373 33.6265 36.2301C32.5366 37.3229 31.0578 37.9388 29.5144 37.9429ZM29.5144 27.0507C28.5124 27.0476 27.5321 27.342 26.6975 27.8965C25.8629 28.4509 25.2116 29.2406 24.826 30.1654C24.4405 31.0903 24.338 32.1087 24.5316 33.0918C24.7253 34.0749 25.2062 34.9785 25.9137 35.6881C26.6211 36.3976 27.5232 36.8814 28.5057 37.078C29.4882 37.2746 30.507 37.1752 31.433 36.7925C32.359 36.4097 33.1506 35.7608 33.7076 34.9279C34.2646 34.095 34.5619 33.1155 34.5619 32.1135C34.5619 30.7734 34.0306 29.488 33.0845 28.539C32.1383 27.5899 30.8545 27.0547 29.5144 27.0507Z" fill="#B82426"/>
<path d="M32.4273 34.5121H26.598C26.4963 34.5121 26.3988 34.4717 26.3269 34.3999C26.2551 34.328 26.2147 34.2305 26.2147 34.1289C26.2147 34.0272 26.2551 33.9297 26.3269 33.8579C26.3988 33.786 26.4963 33.7456 26.598 33.7456H32.4273C32.529 33.7456 32.6265 33.786 32.6983 33.8579C32.7702 33.9297 32.8106 34.0272 32.8106 34.1289C32.8106 34.2305 32.7702 34.328 32.6983 34.3999C32.6265 34.4717 32.529 34.5121 32.4273 34.5121Z" fill="#B82426"/>
<path d="M27.3295 34.4436C27.2279 34.4436 27.1304 34.4033 27.0585 34.3314C26.9867 34.2595 26.9463 34.162 26.9463 34.0604V30.9483C26.9463 30.8467 26.9867 30.7492 27.0585 30.6773C27.1304 30.6054 27.2279 30.5651 27.3295 30.5651C27.4312 30.5651 27.5287 30.6054 27.6005 30.6773C27.6724 30.7492 27.7128 30.8467 27.7128 30.9483V34.0604C27.7128 34.162 27.6724 34.2595 27.6005 34.3314C27.5287 34.4033 27.4312 34.4436 27.3295 34.4436Z" fill="#B82426"/>
<path d="M28.7864 34.4438C28.6848 34.4438 28.5873 34.4034 28.5154 34.3316C28.4435 34.2597 28.4032 34.1622 28.4032 34.0606V29.7566C28.4032 29.6549 28.4435 29.5574 28.5154 29.4855C28.5873 29.4137 28.6848 29.3733 28.7864 29.3733C28.8881 29.3733 28.9856 29.4137 29.0574 29.4855C29.1293 29.5574 29.1697 29.6549 29.1697 29.7566V34.0606C29.1697 34.1622 29.1293 34.2597 29.0574 34.3316C28.9856 34.4034 28.8881 34.4438 28.7864 34.4438Z" fill="#B82426"/>
<path d="M30.239 34.4436C30.1374 34.4436 30.0399 34.4033 29.968 34.3314C29.8961 34.2595 29.8557 34.162 29.8557 34.0604V31.5769C29.8557 31.4752 29.8961 31.3777 29.968 31.3059C30.0399 31.234 30.1374 31.1936 30.239 31.1936C30.3406 31.1936 30.4381 31.234 30.51 31.3059C30.5819 31.3777 30.6223 31.4752 30.6223 31.5769V34.0604C30.6223 34.162 30.5819 34.2595 30.51 34.3314C30.4381 34.4033 30.3406 34.4436 30.239 34.4436Z" fill="#B82426"/>
<path d="M31.6877 34.4435C31.586 34.4435 31.4886 34.4031 31.4167 34.3313C31.3448 34.2594 31.3044 34.1619 31.3044 34.0603V29.9632C31.3044 29.8616 31.3448 29.7641 31.4167 29.6922C31.4886 29.6203 31.586 29.58 31.6877 29.58C31.7893 29.58 31.8868 29.6203 31.9587 29.6922C32.0306 29.7641 32.0709 29.8616 32.0709 29.9632V34.0603C32.0709 34.1619 32.0306 34.2594 31.9587 34.3313C31.8868 34.4031 31.7893 34.4435 31.6877 34.4435Z" fill="#B82426"/>
</svg>
