<svg width="27" height="24" viewBox="0 0 27 24" fill="none" xmlns="http://www.w3.org/2000/svg">
<g clip-path="url(#clip0_1_178)">
<path d="M11.5052 0.792563C11.8631 1.29993 12.2295 1.53132 12.8332 1.52209C15.4682 1.48443 18.1047 1.48366 20.7396 1.52209C21.3457 1.53132 21.7067 1.29378 22.07 0.791794C21.7529 0.791794 21.4874 0.792563 21.2227 0.791794C21.0794 0.791794 20.9346 0.797175 20.7928 0.781031C20.5579 0.754126 20.363 0.627284 20.4279 0.385131C20.4671 0.23984 20.6558 0.0330494 20.785 0.0276683C21.5532 -0.00615619 22.3237 -0.00154377 23.0926 0.0153685C23.398 0.0222871 23.499 0.235996 23.4959 0.521198C23.4889 1.23843 23.4936 1.95566 23.4936 2.6729C23.4936 4.8761 23.4936 7.0793 23.4936 9.2825C23.4936 9.84522 23.4019 9.93978 22.8436 9.93978C18.7992 9.94054 14.754 9.94054 10.7096 9.93978C10.1897 9.93978 10.0824 9.83523 10.0816 9.33939C10.0809 6.43202 10.0809 3.52389 10.0816 0.616522C10.0816 0.115304 10.1897 0.00229992 10.6963 0.00153118C13.462 -0.00154377 16.2285 -6.29233e-06 18.9942 0.00153118C19.1101 0.00153118 19.2526 -0.00692493 19.3348 0.0522679C19.4484 0.133754 19.5854 0.275971 19.5862 0.392819C19.587 0.509667 19.4578 0.671871 19.3411 0.734138C19.2158 0.801787 19.0381 0.789488 18.8838 0.789488C16.5871 0.792563 14.2913 0.791794 11.9946 0.791794C11.8529 0.791794 11.7111 0.791794 11.5052 0.791794V0.792563ZM12.4425 2.30775V6.1522C12.8027 5.76476 13.1081 5.4342 13.415 5.10518C14.0235 4.45406 14.6452 4.4556 15.2403 5.10749C15.6123 5.51492 15.985 5.92158 16.3765 6.34977C17.0593 5.60409 17.71 4.88917 18.3662 4.17962C18.9511 3.54772 19.6206 3.55003 20.2181 4.17962C20.5157 4.49327 20.8093 4.80999 21.153 5.17591V2.30775H12.4433H12.4425ZM21.1374 7.65739C21.2548 6.89096 21.2541 6.21755 20.5814 5.7171C20.3567 5.55028 20.186 5.31274 19.9965 5.10134C19.28 4.30262 19.3098 4.2934 18.587 5.10749C18.0428 5.72017 17.4806 6.31748 16.8776 6.97475C17.183 7.21998 17.443 7.60896 17.7288 7.62741C18.8556 7.70044 19.9902 7.65739 21.1382 7.65739H21.1374ZM22.0457 9.12261C21.7082 8.62677 21.3324 8.40922 20.7302 8.41767C18.0686 8.45534 15.4055 8.45611 12.744 8.41691C12.1473 8.40845 11.8638 8.71056 11.5076 9.12261H22.0457ZM12.3744 7.6351H16.4822C15.8072 6.89942 15.1824 6.20371 14.5332 5.53183C14.4635 5.45957 14.184 5.46034 14.1127 5.53183C13.563 6.09224 13.0361 6.67495 12.5145 7.26072C12.4402 7.34375 12.43 7.48135 12.3752 7.63433L12.3744 7.6351ZM10.8905 8.52914C11.4105 8.18321 11.6352 7.79807 11.6156 7.19307C11.5647 5.62101 11.5757 4.04586 11.6109 2.47302C11.6234 1.92184 11.2492 1.73042 10.8905 1.3768V8.52914ZM22.6667 8.52914V1.4137C22.2195 1.75656 21.9337 2.07174 21.9541 2.66598C22.0081 4.21345 22.0073 5.76553 21.9541 7.313C21.9337 7.90031 22.2423 8.18552 22.6667 8.52914Z" fill="white"/>
<path d="M23.1012 23.1745V20.3056H10.4841V23.2068C10.6533 23.2068 10.806 23.2068 10.9586 23.2068C13.5944 23.2068 16.2309 23.2068 18.8666 23.2075C19.1774 23.2075 19.5361 23.1568 19.5979 23.5896C19.6379 23.8702 19.3889 23.9986 18.854 23.9986C15.0046 23.9986 11.1552 23.9986 7.30498 23.9986C6.65662 23.9986 6.56422 23.9056 6.56422 23.2629C6.56422 21.6101 6.56657 19.9573 6.56344 18.3053C6.56109 17.3236 6.94791 16.6025 7.92906 16.2435C8.02068 16.2105 8.1076 16.0414 8.11386 15.9307C8.13657 15.5478 8.11856 15.1627 8.12404 14.7783C8.14205 13.4646 9.1279 12.4352 10.4645 12.356C10.9453 12.3276 11.43 12.3468 11.9124 12.3483C12.1818 12.3491 12.383 12.4606 12.3846 12.7458C12.3869 13.0371 12.1888 13.134 11.9124 13.1302C11.4817 13.124 11.051 13.1202 10.6204 13.1309C9.62435 13.1563 8.93449 13.8428 8.91648 14.8168C8.91334 14.9959 8.93214 15.1773 8.91256 15.3549C8.85775 15.8646 8.92352 16.2205 9.51942 16.468C10.1874 16.7455 10.4489 17.4013 10.4536 18.1208C10.4559 18.5651 10.4536 19.0095 10.4536 19.4738H23.124C23.124 19.0979 23.1334 18.7204 23.1224 18.343C23.0918 17.3421 23.4693 16.6056 24.4731 16.2428C24.5569 16.212 24.6376 16.0575 24.6438 15.9568C24.6642 15.5993 24.654 15.2396 24.6517 14.8813C24.6454 13.8159 23.9548 13.1332 22.8601 13.1317C20.2635 13.1271 17.6662 13.1302 15.0696 13.1302C14.5998 13.1302 14.13 13.1271 13.6601 13.1302C13.4025 13.1325 13.213 13.0379 13.2036 12.7696C13.1934 12.4844 13.3884 12.356 13.6562 12.3514C14.2169 12.3422 14.7783 12.3476 15.3398 12.3476C17.858 12.3476 20.3771 12.3437 22.8953 12.3499C24.1474 12.353 25.1458 13.0933 25.3909 14.2687C25.4966 14.7745 25.4527 15.3141 25.4449 15.8384C25.441 16.0952 25.5185 16.2043 25.773 16.3043C26.5317 16.6018 26.9726 17.1837 26.9843 17.9863C27.0117 19.8305 26.993 21.6754 26.9961 23.5204C26.9961 23.8448 26.8199 23.9955 26.513 23.9963C24.6337 24.0009 22.7544 24.0009 20.8758 23.9955C20.6198 23.9955 20.4052 23.9032 20.4131 23.595C20.4209 23.2875 20.6409 23.2145 20.8954 23.2122C21.5477 23.2052 22.2 23.2098 22.853 23.2075C22.929 23.2075 23.0041 23.1899 23.102 23.1768L23.1012 23.1745ZM9.6588 23.1822C9.6588 22.7263 9.6588 22.2935 9.6588 21.8615C9.6588 20.6077 9.66976 19.3539 9.65175 18.1C9.64236 17.4428 9.21638 16.9915 8.62832 16.9469C8.0105 16.9008 7.42322 17.2721 7.40678 17.8779C7.35901 19.6375 7.38955 21.3995 7.38955 23.1814H9.65802L9.6588 23.1822ZM26.1747 23.1868C26.1896 23.1199 26.2052 23.0838 26.2052 23.0476C26.2068 21.3972 26.2154 19.7459 26.2037 18.0954C26.199 17.4174 25.6994 16.9416 25.051 16.9446C24.3956 16.9469 23.9305 17.4151 23.9266 18.1131C23.918 19.7382 23.9234 21.3633 23.925 22.9884C23.925 23.0492 23.9407 23.1091 23.9516 23.1868H26.1739H26.1747Z" fill="white"/>
<path d="M3.24805 21.8122V8.34464C2.38358 8.34464 1.53946 8.34464 0.695344 8.34464C0.018014 8.34464 -0.0908286 8.22549 0.0595151 7.56822C0.484706 5.71018 0.924774 3.85445 1.35231 1.99717C1.41731 1.71428 1.57861 1.58129 1.8699 1.58129C3.05699 1.58283 4.24486 1.58898 5.43195 1.57744C5.8039 1.5736 5.9331 1.785 6.00201 2.08481C6.22674 3.05726 6.4499 4.02972 6.67542 5.00217C6.87979 5.88776 7.08417 6.77257 7.29167 7.65739C7.41148 8.1686 7.27445 8.33926 6.73336 8.34464C6.48592 8.34695 6.2377 8.35003 5.99026 8.35541C5.96677 8.35541 5.94406 8.37462 5.87124 8.40691C5.87124 8.52145 5.87124 8.65829 5.87124 8.79512C5.87124 10.0505 5.86967 11.3058 5.87202 12.5612C5.87202 12.8348 5.85166 13.1054 5.49225 13.1147C5.11404 13.1239 5.07097 12.8525 5.07175 12.5581C5.07489 11.1759 5.07332 9.79371 5.07332 8.37847H4.08434V21.7922C4.23703 21.7999 4.38738 21.8052 4.53772 21.8145C5.44761 21.8691 6.16253 22.5648 6.21264 23.4419C6.23379 23.8193 6.11007 23.9892 5.73577 23.9923C4.35292 24.0038 2.97007 24.0038 1.58644 23.9923C1.21763 23.9892 1.09078 23.8086 1.1221 23.4342C1.2004 22.5109 1.89496 21.8544 2.83931 21.8137C2.96694 21.8083 3.09458 21.8137 3.24884 21.8137L3.24805 21.8122ZM0.891887 7.53363H6.39666C6.39666 7.45752 6.40605 7.40525 6.39509 7.35835C6.02706 5.76245 5.66217 4.16578 5.27691 2.57373C5.2542 2.48148 5.06392 2.36848 4.95038 2.36617C4.10235 2.34849 3.25354 2.36617 2.40629 2.35079C2.14005 2.34541 2.05862 2.44304 2.00459 2.68596C1.76498 3.77296 1.49718 4.85381 1.24504 5.93849C1.12445 6.45816 1.01482 6.98013 0.89267 7.53439L0.891887 7.53363ZM2.00459 23.1813H5.31763C5.14849 22.7685 4.84076 22.6101 4.45942 22.597C3.92773 22.5786 3.39448 22.5786 2.8628 22.597C2.48146 22.6101 2.17686 22.7723 2.00459 23.1813Z" fill="white"/>
<path d="M16.3749 4.89449C15.7454 4.89449 15.2552 4.41941 15.256 3.80826C15.256 3.19942 15.7501 2.71973 16.3765 2.71973C16.9935 2.71973 17.5072 3.21556 17.5064 3.81057C17.5049 4.40787 16.9974 4.89525 16.3749 4.89525V4.89449ZM16.844 3.79288C16.6106 3.65297 16.4697 3.5023 16.3601 3.52152C16.2442 3.54228 16.1001 3.71678 16.0805 3.84055C16.0688 3.91665 16.2716 4.09807 16.3765 4.09654C16.4994 4.095 16.6208 3.9474 16.844 3.79212V3.79288Z" fill="white"/>
</g>
<defs>
<clipPath id="clip0_1_178">
<rect width="27" height="24" fill="white"/>
</clipPath>
</defs>
</svg>
