<svg width="50" height="51" viewBox="0 0 50 51" fill="none" xmlns="http://www.w3.org/2000/svg">
<path d="M48.926 36.5036C47.9746 35.1054 46.3608 34.7641 44.6077 35.589L43.6785 35.9981C45.1436 32.8754 45.3254 29.3943 44.596 26.1062C43.7584 22.3297 41.7352 18.6712 38.5828 15.2324C38.3041 14.9283 37.8316 14.9077 37.5274 15.1865C37.2233 15.4652 37.2028 15.9377 37.4816 16.2419C40.4546 19.4848 42.3575 22.9125 43.1377 26.4296C43.9593 30.1344 43.4813 33.955 41.3844 37.0082L32.0866 41.1021L32.0943 40.052C32.0945 40.0255 32.0933 39.999 32.0906 39.9726C31.876 37.8143 30.2262 36.0948 28.0787 35.791C28.0723 35.79 28.066 35.7892 28.0595 35.7885L19.7958 34.837C16.6181 34.3847 15.7997 32.4804 11.4962 31.3946C11.1988 28.8715 11.5952 26.1851 12.6815 23.4919C14.3176 19.436 17.5184 15.4954 21.9556 12.0656C23.6094 13.2382 30.9878 13.3841 32.639 11.8714C33.4849 12.5138 34.2922 13.1758 35.0442 13.8459C35.1866 13.9728 35.3641 14.0351 35.5409 14.0351C35.7465 14.0351 35.9513 13.9508 36.0988 13.7851C36.3732 13.4771 36.346 13.005 36.038 12.7306C35.2136 11.9961 34.3269 11.2715 33.3968 10.5711C33.6147 9.64693 33.3097 8.56527 32.5049 7.92139C34.8436 4.37408 35.5239 2.05227 34.5842 0.835834C33.9389 0.00020633 33.136 0.392371 32.7932 0.559915C32.212 0.843604 31.8952 0.858545 31.3605 0.508715C30.3404 -0.158771 29.2682 -0.180287 28.2152 0.508715C27.6737 0.863028 27.2473 0.863028 26.706 0.508715C25.6858 -0.158771 24.614 -0.180287 23.5608 0.508715C23.0199 0.862729 22.7019 0.840815 22.1299 0.556528C21.7875 0.386294 20.9855 -0.0123446 20.336 0.823383C19.4175 2.00555 20.032 4.25415 22.213 7.68083C22.0794 7.75305 21.9521 7.83782 21.8333 7.93464C20.9659 7.01862 19.5447 6.06326 17.4896 6.29277C15.785 6.48352 14.528 5.92023 13.7735 5.41421C13.4309 5.18471 12.9669 5.27615 12.7372 5.61861C12.5075 5.96126 12.599 6.42525 12.9416 6.65495C13.9033 7.29972 15.5017 8.01751 17.6553 7.77735C19.2431 7.59925 20.3205 8.41067 20.9912 9.23644C20.982 9.26831 20.9735 9.30039 20.9657 9.33246C20.3936 9.34143 19.5387 9.39482 18.5972 9.59065C16.3328 10.0617 14.652 11.1378 13.7363 12.7029C13.528 13.0589 13.6477 13.5165 14.0037 13.7249C14.3598 13.9331 14.8174 13.8133 15.0256 13.4573C16.3877 11.1295 19.7124 10.8448 21.0329 10.827C21.0386 10.8434 21.0453 10.8597 21.0512 10.876C16.3389 14.5111 13.0581 18.5649 11.2962 22.9328C10.1826 25.6937 9.73774 28.4597 9.96356 31.0883C9.24726 30.9823 8.5227 30.9254 7.79465 30.9204V30.4687C7.79465 29.2735 6.82226 28.3012 5.62704 28.3012H2.19807C1.00285 28.3012 0.0304565 29.2736 0.0304565 30.4687V47.865C0.0304565 49.0603 1.00285 50.0326 2.19807 50.0326H5.62694C6.82216 50.0326 7.79455 49.0602 7.79455 47.865V47.6522L15.2744 50.4362C16.2795 50.8102 17.333 51 18.4055 51H29.5505C31.2544 51 32.9158 50.5179 34.3549 49.606C49.2226 40.1809 48.3198 40.7673 48.4056 40.6912C49.6032 39.6281 49.827 37.8278 48.926 36.5036ZM31.2373 10.9863C28.5058 11.676 25.85 11.676 23.1178 10.9863C21.9455 10.6899 22.2852 8.59913 23.5451 8.9151C25.9893 9.52869 28.3656 9.52869 30.81 8.9151C32.048 8.60431 32.4284 10.6853 31.2373 10.9863ZM21.4477 1.88582C21.4536 1.88871 21.4594 1.8917 21.465 1.89449C22.476 2.39692 23.3618 2.42421 24.3787 1.75892C25.6513 0.925882 25.7895 2.26155 27.4604 2.26155C28.2649 2.26155 28.7089 1.97109 29.033 1.75892C29.5746 1.40451 30.0011 1.40471 30.5426 1.75892C31.564 2.4273 32.4284 2.39433 33.4687 1.8926C33.6224 2.44663 33.2746 4.09826 31.0596 7.39595C29.9598 7.37722 28.3636 8.45749 23.8451 7.45193C21.635 4.11161 21.2932 2.44394 21.4477 1.88582ZM47.4544 39.5374L33.5554 48.3446C32.3558 49.1047 30.9709 49.5066 29.5506 49.5066H18.4056C17.5116 49.5066 16.6334 49.3485 15.7955 49.0366L7.79455 46.0586V38.0145C7.79455 37.602 7.46016 37.2676 7.04768 37.2676C6.63519 37.2676 6.3008 37.602 6.3008 38.0145V47.8654C6.3008 48.2369 5.99849 48.5391 5.62704 48.5391H2.19807C1.82652 48.5391 1.52431 48.2368 1.52431 47.8654V30.4691C1.52431 30.0976 1.82652 29.7954 2.19807 29.7954H5.62694C5.99849 29.7954 6.3007 30.0977 6.3007 30.4691V34.5226C6.3007 34.9352 6.63509 35.2696 7.04758 35.2696C7.46006 35.2696 7.79445 34.9352 7.79445 34.5226V32.4147C13.9734 32.462 15.3626 35.7187 19.5958 36.3175C19.6022 36.3185 19.6086 36.3193 19.615 36.32L27.8783 37.2714C29.3252 37.4802 30.4388 38.6324 30.6 40.083L30.5896 41.5039H22.8833C22.4708 41.5039 22.1363 41.8383 22.1363 42.2509C22.1363 42.6634 22.4707 42.9978 22.8833 42.9978H31.3311C31.4254 42.9978 31.5344 42.9769 31.6292 42.9356C31.6445 42.9288 45.2024 36.9595 45.2182 36.9525C46.1955 36.5182 47.0865 36.4562 47.6907 37.3441C48.1605 38.0341 48.0565 38.9669 47.4544 39.5374Z" fill="#323232"/>
<path d="M27.3743 33.8893C27.7868 33.8893 28.1213 33.5549 28.1213 33.1424V31.9042C30.2182 31.5639 31.4417 29.8667 31.7079 28.2833C32.0404 26.3053 31.0043 24.5852 29.0685 23.901C28.7264 23.78 28.4117 23.6644 28.1212 23.5527V18.7902C29.0048 18.9367 29.5354 19.394 29.574 19.4282C29.8774 19.7041 30.347 19.6837 30.6254 19.3818C30.9051 19.0786 30.886 18.6061 30.5828 18.3264C30.5301 18.2778 29.6153 17.4541 28.1212 17.2819V16.2196C28.1212 15.807 27.7868 15.4727 27.3742 15.4727C26.9617 15.4727 26.6274 15.807 26.6274 16.2196V17.3422C26.4473 17.3767 26.2628 17.4205 26.0732 17.4776C24.8062 17.8592 23.8591 18.9457 23.6014 20.3128C23.3676 21.5534 23.761 22.7466 24.6279 23.4265C25.1256 23.8169 25.7522 24.1743 26.6274 24.5564V30.4634C25.7635 30.4268 25.2318 30.2646 24.3042 29.6578C23.9591 29.4321 23.4961 29.5286 23.2703 29.874C23.0445 30.2191 23.1412 30.6821 23.4865 30.9079C24.7058 31.7056 25.5209 31.9137 26.6274 31.9567V33.1424C26.6274 33.5549 26.9617 33.8893 27.3743 33.8893ZM25.5499 22.2511C25.1234 21.9166 24.9393 21.2799 25.0695 20.5895C25.1902 19.9492 25.6304 19.1713 26.5041 18.9081C26.5457 18.8956 26.5865 18.8848 26.6274 18.8738V22.9085C26.1801 22.6852 25.8294 22.4704 25.5499 22.2511ZM28.5706 25.3094C30.4294 25.9664 30.3142 27.5623 30.2346 28.0358C30.0699 29.016 29.3503 30.0625 28.1212 30.3775V25.1476C28.2666 25.2008 28.4151 25.2545 28.5706 25.3094Z" fill="#323232"/>
</svg>
