<svg width="65" height="65" viewBox="0 0 65 65" fill="none" xmlns="http://www.w3.org/2000/svg">
<g clip-path="url(#clip0_53_2127)">
<path d="M38.7283 50.4324C39.5071 50.1377 40.3285 49.9441 41.0325 49.5397C45.4468 47.0079 49.8313 44.4201 54.237 41.8733C57.0405 40.2514 60.2579 41.7334 60.6376 44.8202C60.8382 46.4594 60.2749 47.9006 58.886 48.7115C52.3424 52.534 45.8266 56.4146 39.1465 59.9853C34.5444 62.4462 29.3983 62.743 24.28 62.4957C20.5207 62.3128 16.772 61.8783 13.0192 61.5599C12.8079 61.5427 12.5967 61.5578 12.298 61.5578C11.7796 63.6551 10.269 64.1843 8.32536 64.0681C7.26286 64.0036 6.19182 64.0832 5.12505 64.0487C3.2134 63.9885 2.09756 62.8398 2.09329 60.9189C2.08262 56.008 2.08049 51.0949 2.09329 46.184C2.09756 44.2997 3.29021 43.1058 5.16132 43.0822C6.51185 43.065 7.87092 42.9897 9.21078 43.1144C9.94259 43.1833 10.7981 43.4436 11.3123 43.9275C11.9076 44.4847 12.441 44.618 13.1792 44.5578C16.4606 44.2889 19.7078 44.5191 22.9166 45.2978C23.4628 45.4311 24.041 45.4656 24.6064 45.4699C27.523 45.4871 30.4374 45.4763 33.3539 45.4785C36.6438 45.4785 38.0114 46.6573 38.5171 49.9097C38.532 50.0086 38.5918 50.099 38.7262 50.4346L38.7283 50.4324ZM12.3364 59.4777C13.2453 59.5508 14.0881 59.6283 14.9351 59.6821C19.2576 59.9552 23.578 60.3446 27.9049 60.4478C31.4828 60.5339 35.0629 59.966 38.2291 58.2344C44.7812 54.6507 51.2266 50.8626 57.6848 47.1068C58.1329 46.8466 58.4614 46.1819 58.6086 45.6398C58.8305 44.8224 58.5062 44.076 57.7936 43.5769C56.9295 42.9725 56.0676 43.1037 55.195 43.6135C50.8319 46.1647 46.4688 48.7115 42.0886 51.2326C41.4187 51.6177 40.6869 52.0371 39.9487 52.1189C38.5342 52.2759 37.2668 52.5383 36.1425 53.5472C35.6816 53.9602 34.809 54.0269 34.122 54.0376C30.7809 54.0849 27.4376 54.0505 24.0965 54.0656C23.3562 54.0677 22.6393 53.9709 22.635 53.0718C22.6307 52.1812 23.3327 52.0543 24.0794 52.0586C27.3501 52.0737 30.6209 52.0737 33.8937 52.0608C35.5365 52.0543 36.5052 51.1702 36.486 49.7398C36.4668 48.3502 35.5344 47.5349 33.9129 47.5285C30.7489 47.5177 27.5848 47.5328 24.4187 47.5177C23.8895 47.5155 23.3583 47.4381 22.8356 47.3499C21.4018 47.1068 19.9809 46.7067 18.5386 46.6164C16.499 46.4895 14.4444 46.5841 12.3407 46.5841V59.4798L12.3364 59.4777ZM10.2968 53.5515C10.2968 51.1874 10.2754 48.8234 10.3053 46.4594C10.3181 45.4419 9.86365 45.0289 8.89075 45.0483C7.71944 45.0698 6.54599 45.059 5.37468 45.0526C4.44019 45.0461 4.03695 45.5 4.03908 46.4422C4.05402 51.2068 4.05188 55.9693 4.03908 60.7339C4.03695 61.6912 4.47219 62.0956 5.40668 62.0719C6.54386 62.0439 7.68103 62.074 8.81608 62.0633C10.0749 62.0504 10.2861 61.8374 10.2904 60.536C10.301 58.2086 10.2925 55.8789 10.2904 53.5515H10.2968Z" fill="white"/>
<path d="M25.7012 15.7869C25.7012 14.9803 25.6735 14.2726 25.7055 13.567C25.7909 11.6956 26.8598 10.5362 28.7117 10.4867C31.2335 10.4178 33.7596 10.4178 36.2815 10.4867C38.1334 10.5362 39.2044 11.6956 39.294 13.5627C39.3282 14.2683 39.3004 14.9781 39.3004 15.7869C40.8558 15.7869 42.2724 15.7826 43.687 15.7869C46.4606 15.7998 47.7941 17.1507 47.7962 19.96C47.8005 24.6537 47.8026 29.3495 47.7962 34.0431C47.7919 36.7492 46.4137 38.1173 43.6998 38.1194C36.2345 38.1216 28.7714 38.1216 21.3061 38.1194C18.5944 38.1194 17.2098 36.7471 17.2055 34.0475C17.1991 29.3172 17.1991 24.587 17.2055 19.8568C17.2098 17.1894 18.5667 15.8106 21.2037 15.7891C22.6567 15.7783 24.1075 15.7891 25.7012 15.7891V15.7869ZM19.1918 23.5695C19.1918 27.2414 19.1854 30.6789 19.1939 34.1163C19.1982 35.6048 19.6911 36.1103 21.1995 36.1125C28.7351 36.1232 36.2708 36.1232 43.8086 36.1125C45.3127 36.1125 45.8056 35.6027 45.8099 34.112C45.8184 30.8854 45.8141 27.6609 45.8099 24.4343C45.8099 24.2063 45.7693 23.9761 45.7352 23.6212C42.8976 25.1463 40.0706 26.4348 37.4912 28.1126C34.1117 30.3089 31.0074 30.4143 27.5958 28.1621C24.9993 26.4498 22.134 25.1549 19.1918 23.5695ZM32.488 17.7874C29.8254 17.7874 27.1627 17.7874 24.5001 17.7874C23.2925 17.7874 22.0849 17.781 20.8794 17.7961C20.0431 17.8068 19.4414 18.1854 19.2366 19.0372C18.9145 20.3709 19.1833 21.3002 19.9898 21.7368C23.4589 23.6104 26.9387 25.4646 30.395 27.3619C31.7946 28.1298 33.1409 28.1664 34.5448 27.4006C38.0694 25.4819 41.6089 23.5868 45.1357 21.6723C45.3746 21.5432 45.6669 21.3711 45.7651 21.1453C46.531 19.3642 45.492 17.7917 43.5675 17.7874C39.8743 17.781 36.1812 17.7874 32.4902 17.7874H32.488ZM37.3269 15.7224C37.3269 14.933 37.3376 14.2575 37.3248 13.5842C37.3098 12.8443 36.9066 12.4721 36.1855 12.47C33.7404 12.4635 31.2975 12.4657 28.8525 12.4678C28.1996 12.4678 27.7345 12.7432 27.694 13.4423C27.6513 14.1801 27.6854 14.9222 27.6854 15.7224H37.3269Z" fill="white"/>
<path d="M7.66608 19.4024C6.51823 18.6646 5.43226 18.0171 4.4231 17.2664C4.25882 17.1438 4.28868 16.4339 4.47644 16.2296C4.70473 15.9843 5.28505 15.7929 5.56028 15.9177C6.5225 16.3565 7.45273 16.8921 8.31468 17.5051C8.55577 17.6772 8.65818 18.2795 8.5707 18.6194C8.49816 18.9012 8.05438 19.084 7.66608 19.4002V19.4024Z" fill="white"/>
<path d="M57.3073 19.4067C56.919 19.0754 56.5051 18.8861 56.4112 18.5936C56.3152 18.2903 56.4112 17.7052 56.6288 17.5568C57.5612 16.92 58.5512 16.3543 59.5689 15.8725C59.7993 15.7628 60.3689 16.0037 60.5396 16.251C60.7124 16.5006 60.7316 17.1696 60.5588 17.2965C59.5432 18.0407 58.4551 18.6796 57.3052 19.4067H57.3073Z" fill="white"/>
<path d="M19.3877 7.64935C19.0378 8.04085 18.8351 8.45816 18.5364 8.55066C18.2335 8.6453 17.6638 8.53775 17.5059 8.30974C16.8787 7.40628 16.3197 6.44475 15.846 5.4531C15.7287 5.20788 15.925 4.64215 16.1597 4.4421C16.3858 4.25065 17.0579 4.18182 17.1731 4.33454C17.9497 5.37351 18.6282 6.48562 19.3898 7.64935H19.3877Z" fill="white"/>
<path d="M47.0192 8.64324C46.1146 8.68411 45.594 7.94629 45.9397 7.25149C46.3834 6.35879 46.8571 5.4661 47.4545 4.67665C47.6678 4.39486 48.3463 4.23568 48.6834 4.36474C48.9522 4.468 49.2573 5.19936 49.14 5.46825C48.7133 6.44269 48.1329 7.35044 47.5654 8.25605C47.4331 8.469 47.1259 8.5701 47.0192 8.64109V8.64324Z" fill="white"/>
<path d="M62.6282 31.6552C63.089 31.6552 63.6117 31.5175 63.9915 31.6939C64.399 31.8832 64.67 32.3693 65.0007 32.7242C64.6614 33.0318 64.3521 33.5524 63.9808 33.6019C63.0421 33.7288 62.0628 33.7266 61.1219 33.5997C60.7635 33.5503 60.1682 32.9501 60.2194 32.7156C60.3026 32.3134 60.7528 31.8595 61.156 31.6939C61.5806 31.5175 62.1311 31.6552 62.6282 31.6552Z" fill="white"/>
<path d="M31.5491 2.32744C31.5491 1.83054 31.4211 1.28201 31.5875 0.849644C31.7304 0.477507 32.1827 0.0494425 32.5454 0.00211878C32.81 -0.0322985 33.3754 0.486111 33.4095 0.804471C33.5226 1.82408 33.5333 2.87166 33.4095 3.88912C33.369 4.22684 32.7865 4.74095 32.4686 4.72804C32.1507 4.71513 31.7155 4.19457 31.5811 3.80953C31.4275 3.36641 31.5448 2.82649 31.5448 2.32744C31.5448 2.32744 31.5469 2.32744 31.5491 2.32744Z" fill="white"/>
<path d="M2.47917 31.6552C2.94002 31.6552 3.4606 31.5176 3.84464 31.6918C4.24788 31.8746 4.69806 32.3135 4.7834 32.7157C4.83247 32.9502 4.23721 33.5525 3.87878 33.5998C2.94002 33.7289 1.96072 33.7289 1.01983 33.602C0.648596 33.5525 0.339233 33.0319 0 32.7243C0.330699 32.3672 0.599525 31.8682 1.00703 31.694C1.42734 31.5154 1.98206 31.6552 2.47917 31.6531V31.6552Z" fill="white"/>
</g>
<defs>
<clipPath id="clip0_53_2127">
<rect width="65.0004" height="64.0849" fill="white"/>
</clipPath>
</defs>
</svg>
