<svg width="33" height="33" viewBox="0 0 33 33" fill="none" xmlns="http://www.w3.org/2000/svg">
<g clip-path="url(#clip0_1_799)">
<path d="M9.74263 13.8135H30.5526C31.1629 13.8135 31.7134 14.0623 32.1134 14.462V14.4658C32.513 14.8657 32.7621 15.4162 32.7621 16.0228V30.1277C32.7621 30.7341 32.513 31.2884 32.1134 31.688C31.7134 32.0882 31.1629 32.3368 30.5526 32.3368H9.74263C9.13605 32.3368 8.58177 32.0882 8.1821 31.688C7.78217 31.2884 7.53333 30.7376 7.53333 30.1277V16.0228C7.53333 15.4162 7.78217 14.8619 8.1821 14.462C8.58202 14.0623 9.13605 13.8135 9.74263 13.8135ZM30.5526 14.8235H9.74263C9.41294 14.8235 9.11483 14.9602 8.89756 15.1775C8.68004 15.395 8.54337 15.6931 8.54337 16.0228V30.1277C8.54337 30.4574 8.68004 30.7588 8.89756 30.9764C9.11458 31.1934 9.41294 31.3268 9.74263 31.3268H30.5526C30.8823 31.3268 31.1837 31.1936 31.4012 30.9764C31.6185 30.7588 31.7521 30.4572 31.7521 30.1277V16.0228C31.7521 15.6931 31.6187 15.3917 31.4012 15.1742V15.1777C31.1837 14.9604 30.8823 14.8235 30.5526 14.8235Z" fill="#B82426"/>
<path d="M15.9288 9.60181H24.3699C24.8504 9.60181 25.292 9.79811 25.6078 10.1172C25.9234 10.4363 26.1234 10.8748 26.1234 11.3551V14.3183V14.8233H25.6182H23.4862H22.9814V14.3183V12.6774H17.3175V14.3185V14.8236H16.8123H14.6803H14.1752V14.3185V11.3551C14.1752 10.8748 14.3715 10.4327 14.6871 10.1172C15.0062 9.79811 15.445 9.60181 15.9288 9.60181ZM24.3696 10.6118H15.9288C15.7252 10.6118 15.5395 10.6957 15.4026 10.8327C15.2694 10.966 15.1855 11.1517 15.1855 11.3551V13.8133H16.3075V12.1721V11.6674H16.8125H23.4862H23.9914V12.1721V13.8135H25.1134V11.3554C25.1134 11.1517 25.0293 10.966 24.8961 10.8329H24.8924C24.759 10.696 24.5733 10.6118 24.3696 10.6118Z" fill="#B82426"/>
<path d="M6.00416 27.4093C6.2813 27.4093 6.50918 27.6334 6.50918 27.9141C6.50918 28.191 6.2813 28.4189 6.00416 28.4189H1.93999C1.52617 28.4189 1.14747 28.2471 0.870325 27.9737V27.9702C0.59672 27.6966 0.424927 27.3181 0.424927 26.9005V1.51432C0.424927 1.1005 0.59672 0.7218 0.870325 0.44491C1.14368 0.171305 1.52238 -0.000488281 1.93999 -0.000488281H16.146C16.3635 -0.000488281 16.5669 0.0417021 16.7566 0.12583C16.9426 0.209958 17.1108 0.332487 17.2616 0.490385L21.0737 4.56895C21.084 4.57956 21.0911 4.58992 21.1017 4.60053C21.224 4.73721 21.3119 4.88829 21.3751 5.04593C21.4382 5.21798 21.4734 5.40013 21.4734 5.59314V8.06898C21.4734 8.34941 21.2455 8.574 20.9683 8.574C20.6879 8.574 20.4598 8.34941 20.4598 8.06898V5.59314C20.4598 5.52291 20.453 5.46 20.4317 5.40366C20.4108 5.35819 20.3863 5.316 20.3547 5.27381C20.3476 5.26699 20.3403 5.26345 20.3335 5.25638L16.525 1.17781C16.4722 1.12172 16.4128 1.07953 16.3496 1.04795C16.2903 1.02345 16.2236 1.00955 16.1463 1.00955H1.93999C1.80331 1.00955 1.67699 1.06564 1.58579 1.16038L1.58226 1.15684C1.49105 1.24779 1.43497 1.37765 1.43497 1.51432V26.9005C1.43497 27.0407 1.49105 27.1671 1.58226 27.2583L1.58579 27.2618C1.67699 27.3497 1.80306 27.4093 1.93999 27.4093H6.00416Z" fill="#B82426"/>
<path d="M18.3171 23.0193L9.65168 21.3741C9.06607 21.2655 8.52568 21.0096 8.13687 20.6202C7.76474 20.2486 7.53333 19.7613 7.53333 19.1754H8.54337C8.54337 19.4735 8.66286 19.7191 8.85209 19.9086C9.09411 20.1468 9.44831 20.3118 9.83762 20.3853L18.5031 22.03L18.3171 23.0193ZM32.7619 19.1754C32.7619 19.761 32.5305 20.2451 32.1586 20.6167V20.6202C31.7693 21.0096 31.2294 21.2657 30.6473 21.3741L21.9816 23.0329L21.7924 22.0441L30.4578 20.3853C30.8507 20.3082 31.2049 20.1471 31.4467 19.9086C31.6361 19.7191 31.7518 19.4733 31.7518 19.1754H32.7619Z" fill="#B82426"/>
<path d="M13.2949 4.51318C13.5753 4.51318 13.7999 4.73778 13.7999 5.0182C13.7999 5.29535 13.5753 5.52323 13.2949 5.52323H6.24635C5.96567 5.52323 5.74107 5.29535 5.74107 5.0182C5.74107 4.73778 5.96567 4.51318 6.24635 4.51318H13.2949ZM3.84024 4.51318C4.12092 4.51318 4.34905 4.73778 4.34905 5.0182C4.34905 5.29535 4.12117 5.52323 3.84024 5.52323H3.46179C3.18439 5.52323 2.95651 5.29535 2.95651 5.0182C2.95651 4.73778 3.18439 4.51318 3.46179 4.51318H3.84024Z" fill="#B82426"/>
<path d="M9.97375 9.0968C10.2509 9.0968 10.4788 9.32443 10.4788 9.60182C10.4788 9.88225 10.2509 10.1066 9.97375 10.1066H6.2461C5.96567 10.1066 5.74107 9.88225 5.74107 9.60182C5.74107 9.32468 5.96567 9.0968 6.2461 9.0968H9.97375ZM3.84049 9.0968C4.12092 9.0968 4.34905 9.32443 4.34905 9.60182C4.34905 9.88225 4.12117 10.1066 3.84049 10.1066H3.46179C3.18464 10.1066 2.95651 9.88225 2.95651 9.60182C2.95651 9.32468 3.18439 9.0968 3.46179 9.0968H3.84049Z" fill="#B82426"/>
<path d="M13.2949 6.80664C13.5753 6.80664 13.7999 7.03123 13.7999 7.31166C13.7999 7.58855 13.5753 7.81668 13.2949 7.81668H6.24635C5.96567 7.81668 5.74107 7.5888 5.74107 7.31166C5.74107 7.03123 5.96567 6.80664 6.24635 6.80664H13.2949ZM3.84024 6.80664C4.12092 6.80664 4.34905 7.03123 4.34905 7.31166C4.34905 7.58855 4.12117 7.81668 3.84024 7.81668H3.46179C3.18439 7.81668 2.95651 7.5888 2.95651 7.31166C2.95651 7.03123 3.18439 6.80664 3.46179 6.80664H3.84024Z" fill="#B82426"/>
<path d="M16.6652 0.185688L21.2624 5.17602C21.4483 5.37939 21.438 5.69847 21.2308 5.8877C21.1361 5.97536 21.0138 6.02109 20.8908 6.02109H17.7242C17.1843 6.02109 16.6967 5.80003 16.3425 5.44609C16.3322 5.43548 16.3213 5.42512 16.311 5.41451C15.9742 5.0636 15.7673 4.58687 15.7673 4.06417V0.505021C15.7673 0.227878 15.9919 0 16.2726 0C16.43 0 16.5704 0.0735173 16.6652 0.185688ZM19.7408 5.0113L16.7773 1.79877V4.06442C16.7773 4.3168 16.8756 4.54468 17.0335 4.71294C17.0403 4.72001 17.0477 4.72709 17.0547 4.73416C17.2265 4.90595 17.4648 5.01105 17.7242 5.01105L19.7408 5.0113Z" fill="#B82426"/>
<path d="M23.3879 2.72129C23.3319 2.99464 23.0656 3.16997 22.792 3.1106C22.5184 3.05426 22.343 2.78799 22.3991 2.51766L22.5921 1.59882L22.8445 0.403095C22.8935 0.164858 23.104 -0.000366211 23.3389 -0.000366211H24.2226H25.1064C25.3623 -0.000366211 25.573 0.189111 25.6079 0.437959L25.9795 2.20541C26.2389 2.27918 26.4916 2.36684 26.7369 2.4684C26.986 2.57021 27.2278 2.68946 27.4592 2.81931L29.0058 1.80927C29.2057 1.67942 29.4687 1.711 29.6334 1.87597H29.6372L30.2614 2.50023C30.2682 2.51084 30.2789 2.51792 30.2862 2.52828L30.8857 3.12803C31.0608 3.29983 31.0787 3.57343 30.942 3.76973L29.9423 5.30197C30.0755 5.53364 30.1914 5.77542 30.2965 6.02452C30.3948 6.26983 30.4825 6.52246 30.556 6.78192L32.3586 7.16416C32.6077 7.21317 32.7759 7.43777 32.762 7.68308V8.53926V9.42299C32.762 9.67891 32.5728 9.89289 32.3237 9.92447L30.5563 10.2961C30.4827 10.5591 30.3948 10.8117 30.2968 11.0535C30.1495 11.4077 29.9742 11.7442 29.7743 12.0567C29.6273 12.295 29.3151 12.3652 29.0766 12.2144C28.8416 12.0635 28.7716 11.7515 28.9222 11.5163C29.0942 11.2465 29.2415 10.9623 29.3643 10.668C29.4836 10.3802 29.578 10.0857 29.6483 9.78426C29.6799 9.58442 29.834 9.41945 30.0411 9.37397L31.752 9.01624V8.53926H31.7555V8.06582L30.0406 7.70455C29.8549 7.66615 29.697 7.52215 29.6513 7.32231C29.5846 7.0103 29.4866 6.70866 29.3638 6.4108C29.241 6.11622 29.0937 5.83201 28.9217 5.56219C28.8201 5.40076 28.8166 5.19031 28.9252 5.01852L29.883 3.55272L29.574 3.24071C29.5636 3.23389 29.5568 3.22656 29.546 3.21595L29.2094 2.87944L27.775 3.81571C27.6103 3.94178 27.3821 3.95593 27.2002 3.84022C26.9302 3.66842 26.6462 3.52114 26.3516 3.39836C26.0639 3.27911 25.766 3.18437 25.4644 3.11439C25.2681 3.08281 25.0996 2.93199 25.0576 2.72154L24.6958 1.00993H24.2226H23.7454L23.5807 1.80245L23.3879 2.72129ZM24.2226 5.41111C23.942 5.41111 23.7174 5.18652 23.7174 4.90609C23.7174 4.62567 23.942 4.40107 24.2226 4.40107C25.3656 4.40107 26.4001 4.86415 27.1507 5.61449C27.8978 6.36153 28.3606 7.39608 28.3606 8.53926C28.3606 8.84091 28.329 9.13902 28.2658 9.42299C28.2027 9.71377 28.108 9.9947 27.9857 10.2645C27.8697 10.5172 27.5716 10.6293 27.3157 10.5136C27.0633 10.3977 26.9544 10.0995 27.0704 9.84716C27.1613 9.65086 27.2316 9.43688 27.2806 9.21229C27.3263 8.99502 27.3508 8.77042 27.3508 8.53901C27.3508 7.67625 27.0001 6.89409 26.4355 6.32616C25.8673 5.76203 25.0852 5.41111 24.2226 5.41111Z" fill="#B82426"/>
<path d="M18.4819 19.1899H21.8167C22.08 19.1899 22.3182 19.2986 22.4902 19.4701L22.4938 19.4737C22.6658 19.646 22.7742 19.8877 22.7742 20.1507V23.847C22.7742 24.5693 22.4799 25.2252 22.0026 25.7019C21.5295 26.1791 20.8701 26.4737 20.1475 26.4737C19.425 26.4737 18.7691 26.1791 18.2924 25.7019C17.8187 25.2252 17.5206 24.5696 17.5206 23.847V20.1507C17.5206 19.8877 17.6295 19.6454 17.8048 19.4737V19.4701C17.9802 19.2986 18.2189 19.1899 18.4819 19.1899ZM21.7644 20.2H18.5344V23.847C18.5344 24.2887 18.7133 24.6957 19.0079 24.9869C19.3025 25.2815 19.7059 25.4637 20.1475 25.4637C20.5932 25.4637 20.9961 25.2815 21.2907 24.9869C21.5818 24.6959 21.7644 24.2887 21.7644 23.847V20.2Z" fill="#B82426"/>
<path d="M20.1474 24.2849C20.4263 24.2849 20.6524 24.0588 20.6524 23.7799C20.6524 23.501 20.4263 23.2749 20.1474 23.2749C19.8684 23.2749 19.6423 23.501 19.6423 23.7799C19.6423 24.0588 19.8684 24.2849 20.1474 24.2849Z" fill="#B82426"/>
</g>
<defs>
<clipPath id="clip0_1_799">
<rect width="32.3375" height="32.3375" fill="white" transform="translate(0.424927)"/>
</clipPath>
</defs>
</svg>
