<svg width="23" height="23" viewBox="0 0 23 23" fill="none" xmlns="http://www.w3.org/2000/svg">
<path d="M13.9834 16.5417C13.7749 16.5417 13.6359 16.4027 13.6359 16.1941V8.23478C13.6359 8.02623 13.7749 7.88721 13.9834 7.88721C14.192 7.88721 14.331 8.02623 14.331 8.23478V16.1941C14.331 16.4027 14.1572 16.5417 13.9834 16.5417Z" fill="white"/>
<path d="M21.908 8.58212H13.9834C13.7749 8.58212 13.6359 8.44309 13.6359 8.23455V0.692296C13.6359 0.483754 13.7749 0.344727 13.9834 0.344727H20.5177C21.4909 0.344727 22.2556 1.14414 22.2556 2.08257V8.23455C22.2556 8.44309 22.1166 8.58212 21.908 8.58212ZM14.331 7.88698H21.5604V2.08257C21.5604 1.49171 21.0738 1.03987 20.5177 1.03987H14.331V7.88698Z" fill="white"/>
<path d="M20.622 19.1135H1.64468C0.741004 19.1135 0.0111084 18.4531 0.0111084 17.6884V1.76976C0.0111084 0.970352 0.741004 0.344727 1.64468 0.344727H20.622C21.5257 0.344727 22.2555 1.00511 22.2555 1.76976V17.6884C22.2555 18.4878 21.5257 19.1135 20.622 19.1135ZM1.64468 1.03987C1.12333 1.03987 0.706247 1.35268 0.706247 1.76976V17.6884C0.706247 18.1055 1.12333 18.4183 1.64468 18.4183H20.622C21.1433 18.4183 21.5604 18.0708 21.5604 17.6884V1.76976C21.5604 1.35268 21.1433 1.03987 20.622 1.03987H1.64468Z" fill="white"/>
<path d="M20.622 19.1136H1.64467C0.740989 19.1136 0.0110931 18.4532 0.0110931 17.6886V16.194C0.0110931 15.9855 0.150121 15.8464 0.358663 15.8464H21.908C22.1165 15.8464 22.2555 15.9855 22.2555 16.194V17.6886C22.2555 18.488 21.5256 19.1136 20.622 19.1136ZM0.706232 16.5416V17.6886C0.706232 18.1056 1.12332 18.4184 1.64467 18.4184H20.622C21.1433 18.4184 21.5604 18.0709 21.5604 17.6886V16.5416H0.706232Z" fill="white"/>
<path d="M11.3766 17.8277H10.89C10.6815 17.8277 10.5425 17.6887 10.5425 17.4801C10.5425 17.2716 10.6815 17.1326 10.89 17.1326H11.3766C11.5852 17.1326 11.7242 17.2716 11.7242 17.4801C11.7242 17.6887 11.5852 17.8277 11.3766 17.8277Z" fill="white"/>
<path d="M16.1036 22.3807H6.16314C5.95459 22.3807 5.81557 22.2417 5.81557 22.0332C5.81557 21.8246 5.95459 21.6856 6.16314 21.6856C7.37963 21.6856 8.38758 20.6777 8.38758 19.4612V18.766C8.38758 18.5575 8.52661 18.4185 8.73515 18.4185H13.5664C13.7749 18.4185 13.9139 18.5575 13.9139 18.766V19.4612C13.9139 20.6777 14.9219 21.6856 16.1384 21.6856C16.3469 21.6856 16.4859 21.8246 16.4859 22.0332C16.4859 22.2417 16.3122 22.3807 16.1036 22.3807ZM8.04001 21.6856H14.2267C13.6011 21.1643 13.2188 20.3648 13.2188 19.4612V19.1136H9.04796V19.4612C9.04796 20.3648 8.66564 21.1643 8.04001 21.6856Z" fill="white"/>
<path d="M5.29418 9.24269C5.22466 9.24269 5.1899 9.24269 5.15515 9.20793L2.02702 7.64387C1.92275 7.57435 1.81848 7.47008 1.81848 7.33105V3.78585C1.81848 3.68158 1.888 3.54255 1.99227 3.47303C2.09654 3.40352 2.23556 3.40352 2.33984 3.47303L5.46796 5.0371C5.57223 5.10661 5.6765 5.21088 5.6765 5.34991V8.89512C5.6765 8.99939 5.60699 9.13841 5.50272 9.20793C5.39845 9.24269 5.36369 9.24269 5.29418 9.24269ZM2.47886 7.12251L4.91185 8.339V5.59321L2.47886 4.37671V7.12251Z" fill="white"/>
<path d="M5.29415 9.24231C5.22463 9.24231 5.15512 9.20756 5.12036 9.20756C5.01609 9.13804 4.94658 9.03377 4.94658 8.89474V5.38429C4.94658 5.24527 5.01609 5.141 5.15512 5.07148L8.28325 3.50742C8.38752 3.43791 8.52654 3.47266 8.63081 3.50742C8.73509 3.57693 8.8046 3.6812 8.8046 3.82023V7.36544C8.8046 7.50447 8.73509 7.60874 8.59606 7.67825L5.46793 9.24231C5.39842 9.24231 5.32891 9.24231 5.29415 9.24231ZM5.64172 5.59284V8.33863L8.0747 7.12214V4.37634L5.64172 5.59284Z" fill="white"/>
<path d="M5.29418 5.73205C5.22466 5.73205 5.1899 5.73205 5.15515 5.6973L2.02702 4.13323C1.92275 4.06372 1.81848 3.95945 1.81848 3.82042C1.81848 3.68139 1.888 3.57712 2.02702 3.50761L5.15515 1.94355C5.25942 1.90879 5.36369 1.90879 5.46796 1.94355L8.59608 3.50761C8.70036 3.57712 8.80463 3.68139 8.80463 3.82042C8.80463 3.95945 8.70036 4.06372 8.59608 4.09848L5.46796 5.66254C5.39845 5.6973 5.32893 5.73205 5.29418 5.73205ZM2.9307 3.78567L5.29418 4.9674L7.65765 3.78567L5.29418 2.60393L2.9307 3.78567Z" fill="white"/>
<path d="M11.1334 9.20758C10.9248 9.20758 10.7858 9.06855 10.7858 8.86001V2.18668C10.7858 1.97814 10.9248 1.83911 11.1334 1.83911C11.3419 1.83911 11.4809 1.97814 11.4809 2.18668V8.86001C11.4809 9.0338 11.3419 9.20758 11.1334 9.20758Z" fill="white"/>
<path d="M12.4193 3.78534C12.315 3.78534 12.2455 3.75059 12.176 3.68107L11.1333 2.63837L10.0906 3.68107C9.95155 3.8201 9.74301 3.8201 9.60398 3.68107C9.46495 3.54205 9.46495 3.3335 9.60398 3.19448L10.89 1.90847C11.029 1.76944 11.2376 1.76944 11.3766 1.90847L12.6626 3.19448C12.8016 3.3335 12.8016 3.54205 12.6626 3.68107C12.5931 3.75059 12.4888 3.78534 12.4193 3.78534Z" fill="white"/>
<path d="M11.1333 9.31171C11.029 9.31171 10.9595 9.27695 10.89 9.20744L9.604 7.92143C9.46497 7.78241 9.46497 7.57386 9.604 7.43484C9.74302 7.29581 9.95157 7.29581 10.0906 7.43484L11.1333 8.47755L12.176 7.43484C12.315 7.29581 12.5236 7.29581 12.6626 7.43484C12.8016 7.57386 12.8016 7.78241 12.6626 7.92143L11.3766 9.20744C11.3071 9.27695 11.2376 9.31171 11.1333 9.31171Z" fill="white"/>
<path d="M8.24853 16.5415H5.50273C5.39846 16.5415 5.32895 16.5068 5.25943 16.4373C5.18992 16.3677 5.15516 16.2635 5.15516 16.1592C5.22468 15.3598 4.39051 14.0738 4.04294 13.6567C3.93867 13.5524 3.93867 13.3786 4.04294 13.2396L6.61495 9.52062C6.68447 9.41635 6.78874 9.38159 6.89301 9.38159C6.99728 9.38159 7.10155 9.45111 7.17106 9.52062L9.70832 13.2396C9.77783 13.3786 9.77783 13.5177 9.70832 13.6567C9.39551 14.0738 8.52658 15.3598 8.5961 16.1592C8.5961 16.2635 8.56134 16.3677 8.49183 16.4373C8.42231 16.5068 8.31804 16.5415 8.24853 16.5415ZM5.81554 15.8464H7.90096C8.00523 14.9079 8.66561 13.8652 8.97842 13.4134L6.85825 10.32L4.73808 13.4482C5.05089 13.8652 5.71127 14.9427 5.81554 15.8464Z" fill="white"/>
<path d="M6.89304 13.0311C6.6845 13.0311 6.54547 12.892 6.54547 12.6835V9.72916C6.54547 9.52062 6.6845 9.38159 6.89304 9.38159C7.10158 9.38159 7.24061 9.52062 7.24061 9.72916V12.6835C7.24061 12.892 7.06683 13.0311 6.89304 13.0311Z" fill="white"/>
<path d="M7.48389 13.0311H6.23264C6.0241 13.0311 5.88507 12.892 5.88507 12.6835C5.88507 12.475 6.0241 12.3359 6.23264 12.3359H7.48389C7.69243 12.3359 7.83146 12.475 7.83146 12.6835C7.83146 12.892 7.65767 13.0311 7.48389 13.0311Z" fill="white"/>
<path d="M20.1354 3.02107H15.7213C15.5127 3.02107 15.3737 2.88204 15.3737 2.6735C15.3737 2.46496 15.5127 2.32593 15.7213 2.32593H20.1354C20.3439 2.32593 20.483 2.46496 20.483 2.6735C20.483 2.88204 20.3439 3.02107 20.1354 3.02107Z" fill="white"/>
<path d="M20.1354 4.82868H15.7213C15.5127 4.82868 15.3737 4.68966 15.3737 4.48111C15.3737 4.27257 15.5127 4.13354 15.7213 4.13354H20.1354C20.344 4.13354 20.483 4.27257 20.483 4.48111C20.483 4.68966 20.344 4.82868 20.1354 4.82868Z" fill="white"/>
<path d="M17.9805 6.60139H15.7213C15.5127 6.60139 15.3737 6.46236 15.3737 6.25382C15.3737 6.04528 15.5127 5.90625 15.7213 5.90625H17.9805C18.189 5.90625 18.3281 6.04528 18.3281 6.25382C18.3281 6.46236 18.189 6.60139 17.9805 6.60139Z" fill="white"/>
<path d="M19.5445 13.3786C19.475 13.3786 19.4055 13.3438 19.336 13.3091C19.2317 13.2396 19.1969 13.1005 19.1969 12.9963C19.1969 12.9615 19.1969 12.9615 19.1969 12.9268C19.1969 12.7182 19.336 12.5792 19.5445 12.5792H19.6488C19.9963 12.3359 20.2049 11.9536 20.2049 11.5365C20.2049 10.8413 19.6488 10.2852 18.9536 10.2852C18.6756 10.2852 18.3975 10.3895 18.189 10.5633C18.05 10.6676 17.8067 10.6676 17.7024 10.4938C17.5981 10.3547 17.5981 10.1114 17.7719 10.0072C18.1195 9.72912 18.5366 9.59009 18.9884 9.59009C20.0659 9.59009 20.9348 10.459 20.9348 11.5365C20.9348 12.3359 20.4482 13.031 19.7183 13.3438C19.614 13.3438 19.5793 13.3786 19.5445 13.3786Z" fill="white"/>
<path d="M16.3468 13.3786C16.3121 13.3786 16.2426 13.3786 16.2078 13.3438C15.4779 13.031 14.9913 12.3359 14.9913 11.5365C14.9913 10.459 15.8602 9.59009 16.9377 9.59009C17.3895 9.59009 17.8066 9.72912 18.1542 10.0072C18.2237 10.0767 18.2932 10.181 18.2932 10.2852C18.2932 10.3895 18.2585 10.4938 18.1542 10.5633C17.8761 10.7718 17.7024 11.1194 17.7024 11.467C17.7024 11.6755 17.5286 11.8145 17.32 11.7798C17.1115 11.7798 16.9725 11.606 17.0072 11.3974C17.042 11.0151 17.181 10.6676 17.3895 10.3547C17.2505 10.32 17.1115 10.2852 16.9377 10.2852C16.2426 10.2852 15.6865 10.8413 15.6865 11.5365C15.6865 12.0578 15.9993 12.5097 16.4511 12.6835C16.6249 12.753 16.7292 12.9615 16.6597 13.1353C16.6249 13.2743 16.4859 13.3786 16.3468 13.3786Z" fill="white"/>
<path d="M17.9457 14.8383C16.8682 14.8383 15.9993 13.9694 15.9993 12.8919C15.9993 11.8145 16.8682 10.9456 17.9457 10.9456C19.0231 10.9456 19.8921 11.8145 19.8921 12.8919C19.8921 13.9694 19.0231 14.8383 17.9457 14.8383ZM17.9457 11.6755C17.2505 11.6755 16.6944 12.2316 16.6944 12.9267C16.6944 13.6218 17.2505 14.178 17.9457 14.178C18.6408 14.178 19.1969 13.6218 19.1969 12.9267C19.1969 12.2316 18.6408 11.6755 17.9457 11.6755Z" fill="white"/>
<path d="M17.9457 14.8383C16.9377 14.8383 16.0688 14.0389 15.9993 13.031C15.9993 12.9962 15.9993 12.9615 15.9993 12.8919C15.9993 12.0925 16.4859 11.3974 17.2158 11.0846C17.6676 10.9108 18.189 10.876 18.6756 11.0846C19.4055 11.3974 19.8921 12.0925 19.8921 12.8919V13.031C19.8225 14.0737 18.9536 14.8383 17.9457 14.8383ZM17.9457 11.6755C17.7719 11.6755 17.6329 11.7102 17.4938 11.7797C17.0072 11.9535 16.6944 12.4053 16.6944 12.9267V12.9962C16.7292 13.6566 17.2853 14.178 17.9457 14.178C18.6061 14.178 19.1274 13.6566 19.1969 13.031C19.1969 12.9962 19.1969 12.9615 19.1969 12.9615C19.1969 12.4401 18.8841 11.9883 18.4323 11.8145C18.2585 11.7102 18.0847 11.6755 17.9457 11.6755Z" fill="white"/>
</svg>
