<svg width="40" height="41" viewBox="0 0 40 41" fill="none" xmlns="http://www.w3.org/2000/svg">
<g clip-path="url(#clip0_1_492)">
<path d="M0.00463703 20.9077C0.00463703 20.1759 -0.00692126 19.443 0.00694869 18.7112C0.0312211 17.473 0.894625 16.6222 2.13599 16.6095C2.98321 16.6002 3.83159 16.5875 4.67881 16.6164C5.03712 16.6291 5.17813 16.4823 5.29718 16.1725C5.59191 15.4025 5.94098 14.6522 6.22762 13.8788C6.28888 13.7147 6.24727 13.421 6.13284 13.2985C5.54684 12.6615 4.91344 12.0673 4.31126 11.4442C3.40162 10.502 3.40509 9.30082 4.32859 8.3621C5.3411 7.33205 6.36054 6.30777 7.39385 5.29737C8.3058 4.40489 9.51364 4.40721 10.4348 5.29275C11.0463 5.88003 11.6461 6.47887 12.231 7.09159C12.4483 7.31933 12.6205 7.3702 12.9257 7.228C13.655 6.88812 14.404 6.58292 15.1576 6.30084C15.4939 6.17483 15.6314 6.01413 15.6176 5.63726C15.5864 4.79102 15.5979 3.94247 15.6106 3.09507C15.628 1.89045 16.4833 1.01994 17.6923 1.00491C19.1949 0.986413 20.6974 0.985257 22.2 1.00491C23.4067 1.0211 24.2586 1.89277 24.2759 3.0997C24.2886 3.94709 24.3025 4.79564 24.269 5.64188C24.2539 6.02685 24.4134 6.17367 24.7405 6.29737C25.493 6.58407 26.2246 6.92974 26.9805 7.20604C27.1585 7.27078 27.4718 7.22916 27.6058 7.10777C28.2323 6.53783 28.8125 5.91818 29.4193 5.32628C30.3625 4.40721 31.5657 4.38871 32.5019 5.302C33.5503 6.32396 34.587 7.35864 35.6065 8.40834C36.4722 9.30082 36.4687 10.5089 35.6111 11.4083C35.0263 12.0222 34.4264 12.621 33.8126 13.2049C33.5688 13.4372 33.511 13.6187 33.6693 13.947C34.0091 14.6557 34.3039 15.3875 34.5743 16.1262C34.7061 16.4881 34.876 16.6326 35.2782 16.6152C36.1243 16.5794 36.9727 16.5933 37.8199 16.6083C38.9653 16.628 39.8495 17.4615 39.8738 18.6048C39.9062 20.1644 39.9073 21.7262 39.8738 23.2857C39.8495 24.4244 38.9584 25.2545 37.8106 25.273C36.9438 25.2869 36.0769 25.2961 35.21 25.2672C34.8517 25.2557 34.7096 25.399 34.5917 25.71C34.3073 26.4637 34.0033 27.2117 33.667 27.9435C33.5329 28.236 33.5399 28.4152 33.7791 28.6418C34.394 29.2244 34.9893 29.8279 35.5787 30.4371C36.4699 31.3585 36.4872 32.5654 35.5995 33.4799C34.594 34.5169 33.5584 35.525 32.5389 36.5492C32.2315 36.8579 31.8847 37.0186 31.5345 36.6683C31.1877 36.3215 31.3334 35.977 31.6466 35.6649C32.6302 34.688 33.6092 33.7065 34.5847 32.7204C35.1522 32.147 35.1499 31.7816 34.5778 31.2024C33.86 30.4764 33.1423 29.7516 32.4106 29.0395C32.0685 28.7065 32.0523 28.3874 32.2465 27.9539C32.7331 26.8684 33.1885 25.769 33.6081 24.6557C33.7791 24.2025 34.0311 24.014 34.5015 24.021C35.5418 24.036 36.582 24.0302 37.6222 24.0233C38.3377 24.0187 38.6082 23.7562 38.6128 23.0545C38.6197 21.6476 38.6197 20.2418 38.6128 18.8349C38.6093 18.1262 38.3435 17.8592 37.6361 17.8534C36.6155 17.8453 35.5938 17.8326 34.5732 17.858C34.0207 17.8719 33.7618 17.6441 33.5757 17.1227C33.1943 16.058 32.7551 15.0118 32.2789 13.9852C32.0604 13.5135 32.0546 13.1725 32.4407 12.8037C33.1781 12.0985 33.8947 11.3702 34.6102 10.6419C35.1476 10.0962 35.143 9.71816 34.5951 9.16441C33.6462 8.20719 32.6926 7.25343 31.7368 6.30431C31.1565 5.72743 30.7901 5.72396 30.2192 6.28812C29.4933 7.00604 28.7663 7.7228 28.0578 8.4569C27.7052 8.82221 27.3712 8.81643 26.9216 8.61297C25.8559 8.12973 24.7729 7.68349 23.6783 7.27309C23.2299 7.10546 23.0218 6.86962 23.0288 6.39217C23.0438 5.35171 23.038 4.31125 23.0311 3.27079C23.0264 2.52282 22.7687 2.26733 22.0209 2.26386C20.6339 2.25808 19.2469 2.25808 17.8599 2.26386C17.1202 2.26733 16.8659 2.52745 16.8612 3.28236C16.8543 4.30316 16.8428 5.32512 16.8659 6.34592C16.8774 6.88003 16.6382 7.11933 16.1481 7.29736C15.0859 7.68465 14.0341 8.11239 13.0112 8.59216C12.513 8.82568 12.1674 8.81065 11.7848 8.40719C11.0971 7.68002 10.3782 6.98176 9.66506 6.27887C9.11141 5.73321 8.73346 5.73205 8.18791 6.27194C7.21701 7.23378 6.25074 8.20141 5.28793 9.1725C4.74354 9.72163 4.74469 10.0962 5.28793 10.6488C6.00455 11.376 6.72232 12.102 7.45627 12.8106C7.81689 13.1586 7.84 13.4881 7.63195 13.9436C7.14766 15.0083 6.69804 16.0904 6.29119 17.1863C6.11435 17.6626 5.85891 17.8626 5.3619 17.8545C4.34131 17.836 3.32071 17.8453 2.29896 17.8511C1.54305 17.8557 1.27952 18.1089 1.27605 18.8441C1.27027 20.2511 1.26911 21.6568 1.27605 23.0638C1.27952 23.7412 1.54767 24.0129 2.21921 24.0198C3.2398 24.0302 4.26156 24.0453 5.28215 24.0152C5.85776 23.9979 6.13284 24.2256 6.3224 24.7747C6.67262 25.7886 7.08756 26.784 7.53486 27.7597C7.88624 28.525 7.91398 28.5932 7.30254 29.2059C6.62176 29.888 5.9352 30.5631 5.26135 31.251C4.747 31.7759 4.75047 32.1608 5.27059 32.6868C6.25883 33.6868 7.254 34.6799 8.24917 35.6718C8.56471 35.9862 8.69069 36.3307 8.3451 36.6764C8.04574 36.9747 7.70708 36.8984 7.42506 36.6163C6.33396 35.5284 5.22436 34.4568 4.16909 33.3354C3.41318 32.5331 3.46634 31.3285 4.23844 30.5111C4.83369 29.8811 5.44975 29.2707 6.07736 28.673C6.3224 28.4395 6.37441 28.258 6.21837 27.9308C5.87856 27.2221 5.58267 26.4903 5.31452 25.7516C5.18275 25.3886 5.01053 25.2464 4.60946 25.2638C3.78304 25.2996 2.95316 25.2822 2.12558 25.2718C0.888846 25.2568 0.0300653 24.4002 0.00810452 23.1574C-0.0046096 22.406 0.00579286 21.6545 0.00579286 20.9031L0.00463703 20.9077Z" fill="#858484"/>
<path d="M18.024 32.8474C18.1731 32.0705 18.3164 31.415 18.4123 30.7526C18.4366 30.5873 18.3256 30.3873 18.2401 30.2231C17.9095 29.593 17.5559 28.9746 17.2276 28.3433C16.9132 27.7399 17.149 27.2948 17.8298 27.2832C19.2341 27.2578 20.6408 27.2578 22.0451 27.2832C22.7536 27.296 22.9755 27.7422 22.6415 28.3838C22.4727 28.7075 22.3375 29.0613 22.1121 29.3422C21.2499 30.4208 21.5007 31.556 21.9168 32.8115C22.3005 31.8127 22.6565 30.8913 23.0067 29.9688C23.2656 29.2867 23.535 28.6069 23.765 27.9144C23.921 27.4451 24.2111 27.311 24.6838 27.3422C27.051 27.4994 29.4852 29.4659 30.1972 31.8867C30.3902 32.5422 30.4988 33.2427 30.5115 33.926C30.552 35.9468 30.5289 37.9699 30.5254 39.9907C30.5254 40.7167 30.3613 40.8855 29.6516 40.8855C23.1836 40.8878 16.7144 40.8878 10.2464 40.8855C9.52515 40.8855 9.35987 40.7213 9.35871 40.0046C9.35524 37.9445 9.34022 35.8832 9.36333 33.8231C9.39801 30.763 11.5155 28.1561 14.5033 27.4532C15.7204 27.1665 15.8672 27.2405 16.2983 28.3861C16.7999 29.7167 17.2969 31.0485 17.7986 32.3792C17.8448 32.5005 17.9095 32.615 18.0216 32.8474H18.024ZM10.6082 39.5861H19.1983C17.8067 35.9225 16.4254 32.2855 15.0477 28.6589C12.721 29.0035 10.7272 31.1514 10.6371 33.4485C10.577 34.9872 10.6139 36.5294 10.6082 38.0693C10.6058 38.5653 10.6082 39.0601 10.6082 39.5849V39.5861ZM29.2367 39.5976C29.2367 37.4069 29.3465 35.2659 29.2066 33.141C29.0621 30.9422 26.9308 28.8798 24.8341 28.6717C23.4575 32.2959 22.0786 35.9294 20.6858 39.5976H29.2378H29.2367ZM18.7706 28.5653C19.0307 29.0497 19.2861 29.4208 19.4341 29.8289C19.5693 30.2058 19.6872 30.6358 19.6398 31.0219C19.5288 31.9341 19.419 32.8682 19.1232 33.7306C18.5857 35.2994 19.4306 36.5202 19.9473 37.9838C20.2744 37.1364 20.5726 36.4312 20.8118 35.7052C20.9135 35.3953 20.9632 35.0335 20.9112 34.7144C20.7217 33.541 20.4917 32.3734 20.2501 31.2092C20.1403 30.6774 20.1669 30.1977 20.4755 29.7283C20.7078 29.3746 20.8823 28.9826 21.1066 28.5642H18.7695L18.7706 28.5653Z" fill="#858484"/>
<path d="M10.6163 20.9953C10.607 22.9213 11.1722 24.6682 12.2587 26.252C12.3235 26.3468 12.3986 26.4369 12.4575 26.5352C12.661 26.8751 12.6702 27.1988 12.3223 27.4496C11.9582 27.7109 11.623 27.5687 11.4369 27.2392C10.9087 26.3063 10.288 25.3942 9.94938 24.3907C7.84693 18.1595 11.6091 11.6844 18.0899 10.5202C24.054 9.44858 29.0391 13.3838 30.2296 18.4485C30.9647 21.5745 30.4052 24.482 28.5478 27.1202C28.3282 27.4323 28.0855 27.7155 27.6463 27.497C27.2209 27.2855 27.1839 26.8936 27.5457 26.378C28.7316 24.6855 29.3072 22.8161 29.2737 20.741C29.2032 16.3561 26.0293 12.5954 21.6556 11.7561C15.9181 10.6555 10.6117 15.0971 10.6163 20.9942V20.9953Z" fill="#858484"/>
<path d="M14.2086 21.0001C14.2155 17.8394 16.7988 15.2648 19.9531 15.2741C23.1374 15.2833 25.6929 17.8729 25.679 21.0775C25.6652 24.2301 23.068 26.7908 19.9057 26.77C16.7422 26.7492 14.2028 24.1758 14.2097 21.0001H14.2086ZM19.9496 25.5064C22.4231 25.5041 24.4296 23.5029 24.4342 21.0313C24.4388 18.5677 22.4381 16.5492 19.9658 16.5249C17.4958 16.4995 15.443 18.5573 15.4546 21.044C15.4673 23.5191 17.4703 25.5087 19.9484 25.5064H19.9496Z" fill="#858484"/>
</g>
<defs>
<clipPath id="clip0_1_492">
<rect width="39.8969" height="39.8969" fill="white" transform="translate(0 0.989746)"/>
</clipPath>
</defs>
</svg>
