<svg width="40" height="40" viewBox="0 0 40 40" fill="none" xmlns="http://www.w3.org/2000/svg">
<g clip-path="url(#clip0_1_467)">
<path d="M36.3602 16.1892C37.2483 16.1892 38.112 16.1857 38.9769 16.1892C39.6938 16.1926 39.8949 16.3973 39.8961 17.1234C39.8996 19.0116 39.8996 20.8998 39.8961 22.7868C39.8949 23.4991 39.6868 23.7014 38.9595 23.7049C38.1131 23.7095 37.2668 23.7049 36.4366 23.7049C36.0723 24.727 35.7474 25.7272 35.3566 26.7019C35.1138 27.3066 34.8143 27.8975 34.4617 28.4432C34.2142 28.826 34.2952 29.0341 34.5923 29.3081C35.1161 29.7915 35.611 30.3037 36.1093 30.8147C36.5649 31.2819 36.5684 31.5259 36.1093 31.9895C34.738 33.3701 33.3632 34.746 31.9815 36.1162C31.5305 36.5637 31.2785 36.5521 30.8079 36.0919C30.2575 35.5531 29.7256 34.9946 29.1637 34.4685C29.0561 34.368 28.7948 34.2835 28.6942 34.3437C27.1483 35.2675 25.4995 35.9324 23.7096 36.3556C23.7096 37.247 23.713 38.1108 23.7084 38.9757C23.7038 39.6937 23.5014 39.8926 22.773 39.8937C20.8848 39.896 18.9966 39.8972 17.1096 39.8937C16.3985 39.8926 16.1961 39.6833 16.1927 38.9572C16.1892 38.1108 16.1927 37.2644 16.1927 36.433C15.1705 36.07 14.1704 35.7451 13.1956 35.3554C12.5909 35.1137 12.0001 34.8131 11.4543 34.4593C11.0704 34.2107 10.8623 34.2939 10.5894 34.59C10.1061 35.1126 9.59388 35.6098 9.08396 36.107C8.62146 36.5579 8.36592 36.5614 7.90689 36.107C6.52631 34.7368 5.15035 33.3608 3.77902 31.9803C3.33386 31.5316 3.34542 31.2773 3.80562 30.8078C4.34559 30.2574 4.90291 29.7267 5.43017 29.1648C5.53192 29.0572 5.61633 28.7948 5.5562 28.6953C4.63003 27.1505 3.96749 25.4994 3.54314 23.7083C2.65398 23.7083 1.79025 23.7118 0.926517 23.7083C0.207321 23.7049 0.0061306 23.5014 0.00497434 22.7764C0.00150554 20.8882 0.00150554 19 0.00497434 17.113C0.0061306 16.3973 0.211946 16.1961 0.93808 16.1926C1.78447 16.188 2.63085 16.1926 3.46452 16.1926C3.82758 15.1728 4.15018 14.1715 4.54216 13.1979C4.79191 12.5758 5.10757 11.9723 5.46601 11.4057C5.6857 11.06 5.61286 10.8784 5.3527 10.6321C4.80694 10.1165 4.29009 9.5707 3.75358 9.0446C3.3778 8.67575 3.37202 8.32424 3.7478 7.94961C5.15382 6.54938 6.55637 5.14567 7.9566 3.74081C8.33355 3.36271 8.68736 3.38584 9.05274 3.75816C9.6066 4.32126 10.1604 4.88436 10.7363 5.42433C10.845 5.52608 11.1051 5.61627 11.2034 5.5573C12.7482 4.62882 14.3993 3.96975 16.1927 3.54309C16.1927 2.65624 16.1892 1.79251 16.1927 0.928776C16.1961 0.207267 16.3985 0.0060772 17.1223 0.00492093C19.0105 0.00145214 20.8987 0.00145214 22.7857 0.00492093C23.5037 0.0060772 23.7049 0.210736 23.7084 0.935714C23.713 1.7821 23.7084 2.62849 23.7084 3.461C24.7444 3.83331 25.7608 4.16747 26.7528 4.56638C27.3564 4.8092 27.9461 5.11214 28.4942 5.46249C28.8387 5.68218 29.0203 5.61512 29.2677 5.3538C29.7695 4.82076 30.2922 4.30854 30.816 3.79747C31.2808 3.34421 31.534 3.33843 31.993 3.79284C33.3748 5.16302 34.7507 6.53897 36.1197 7.92071C36.5672 8.37165 36.5568 8.62487 36.0955 9.09547C35.5566 9.64585 34.9982 10.1777 34.4709 10.7385C34.3692 10.8461 34.2836 11.1074 34.3437 11.2068C35.2734 12.7504 35.9278 14.4039 36.3591 16.1926L36.3602 16.1892ZM22.433 38.5964C22.433 37.7466 22.4515 36.9406 22.4261 36.1359C22.4088 35.5762 22.6365 35.2906 23.1892 35.1796C25.0566 34.8015 26.7956 34.0881 28.3843 33.0382C28.9081 32.6925 29.2897 32.7561 29.6909 33.2036C30.2251 33.7991 30.7882 34.3691 31.2889 34.8975C32.5388 33.6684 33.7008 32.5249 34.9068 31.3385C34.3322 30.7801 33.7644 30.2042 33.169 29.6585C32.7365 29.2619 32.7041 28.8884 33.0302 28.3958C34.0778 26.806 34.7947 25.0693 35.1751 23.2019C35.2861 22.6561 35.5566 22.4099 36.1232 22.4272C36.9442 22.4526 37.7651 22.4341 38.5791 22.4341V17.4657C37.7246 17.4657 36.9164 17.4506 36.1082 17.4715C35.5763 17.4853 35.293 17.268 35.1855 16.7395C34.8016 14.8537 34.0836 13.0973 33.0221 11.4913C32.6914 10.9917 32.7527 10.6206 33.1794 10.2298C33.776 9.68517 34.346 9.11282 34.8502 8.62603C33.643 7.40733 32.4868 6.24066 31.312 5.05548C30.787 5.5839 30.2147 6.1285 29.6805 6.70779C29.2677 7.15526 28.8862 7.19573 28.3705 6.85232C26.85 5.84059 25.1769 5.17111 23.402 4.75139C22.4423 4.52476 22.4319 4.50973 22.4307 3.5165C22.4307 2.77417 22.4307 2.03185 22.4307 1.30803H17.4623C17.4623 2.16714 17.4507 2.99271 17.4669 3.81712C17.4761 4.32241 17.268 4.59992 16.765 4.70398C14.8607 5.09364 13.0881 5.81862 11.4647 6.89048C10.9906 7.20382 10.623 7.14601 10.2483 6.73669C9.69563 6.13081 9.11981 5.54574 8.60527 5.00576C7.35882 6.23141 6.19677 7.37611 4.99079 8.56128C5.55042 9.10472 6.1193 9.64932 6.68009 10.2043C7.21544 10.7339 7.23394 10.912 6.82693 11.5491C5.82214 13.1216 5.10641 14.8144 4.7341 16.6424C4.61269 17.2402 4.33056 17.5004 3.71311 17.4738C2.91298 17.4402 2.10938 17.4657 1.31733 17.4657V22.4341C2.19147 22.4341 3.01936 22.4422 3.84724 22.4307C4.32709 22.4237 4.59534 22.6284 4.69478 23.1071C5.09023 25.0311 5.81983 26.821 6.90556 28.4594C7.20503 28.9115 7.14144 29.2711 6.75409 29.6296C6.14821 30.1915 5.56198 30.772 4.9746 31.3374C6.18752 32.5491 7.34263 33.7043 8.56711 34.9287C9.12559 34.3448 9.70603 33.7586 10.261 33.1504C10.6415 32.7341 11.0115 32.7099 11.4786 33.0174C13.0858 34.0766 14.8398 34.7981 16.7257 35.1843C17.2483 35.2918 17.4831 35.5601 17.4692 36.0977C17.4484 36.921 17.4634 37.7442 17.4634 38.5964H22.4319H22.433Z" fill="#858484"/>
<path d="M8.09502 19.8981C8.11584 13.3884 13.4566 8.08573 19.9814 8.09498C26.4866 8.10539 31.8239 13.4658 31.7996 19.9664C31.7753 26.5131 26.438 31.8134 19.8831 31.8007C13.393 31.788 8.07421 26.4183 8.09502 19.8981ZM20.5827 16.1611C20.5827 15.9472 20.5827 15.7587 20.5827 15.5702C20.5827 14.3758 20.5885 13.1814 20.5804 11.987C20.5769 11.4898 20.8035 11.2631 21.3007 11.2111C22.5876 11.0781 23.7428 11.2319 24.5359 12.424C24.714 12.6911 25.0274 12.8669 25.2112 13.1305C25.3754 13.3664 25.5373 13.6659 25.5431 13.9399C25.5743 15.4419 25.5801 16.945 25.5407 18.447C25.5326 18.7546 25.3627 19.113 25.1534 19.3478C24.6053 19.9664 23.9717 20.5098 23.4213 21.1272C23.2282 21.3446 23.0791 21.6869 23.0756 21.9736C23.049 24.4584 23.0594 26.9433 23.0617 29.4292C23.0617 29.6142 23.0802 29.8004 23.0906 29.9946C26.7606 29.0962 31.0261 24.9233 30.4919 18.9673C29.9947 13.4335 25.1696 9.05237 19.2634 9.3715C13.8463 9.66519 9.43745 14.3076 9.36229 19.8114C9.28482 25.5257 13.696 29.3552 16.804 29.9646C16.8156 29.8698 16.8352 29.7761 16.8352 29.6824C16.8375 27.0623 16.8433 24.4423 16.8248 21.8222C16.8237 21.6048 16.693 21.3435 16.5392 21.1781C15.9888 20.5861 15.4223 20.0057 14.8256 19.4611C14.4499 19.1177 14.3076 18.7407 14.3308 18.2389C14.3654 17.4896 14.4348 16.7219 14.3215 15.9888C14.0348 14.1272 14.6522 12.6992 16.1669 11.6251C16.2293 11.5811 16.2687 11.499 16.3346 11.469C16.5369 11.3765 16.7439 11.2412 16.9555 11.2285C17.4931 11.1938 18.0331 11.2157 18.5731 11.2169C19.0668 11.2192 19.3212 11.4574 19.3154 11.9627C19.3096 12.5408 19.3154 13.119 19.3154 13.6959C19.3154 14.5169 19.3154 15.3367 19.3154 16.1588H20.5827V16.1611ZM21.8338 30.441C21.8338 30.1334 21.8338 29.9253 21.8338 29.716C21.8338 26.9814 21.8199 24.248 21.8523 21.5134C21.8557 21.1746 22.0361 20.7746 22.2616 20.5133C22.7877 19.9028 23.4121 19.3767 23.952 18.7766C24.1336 18.5742 24.2619 18.2539 24.2758 17.9822C24.3163 17.1173 24.2249 16.2432 24.3082 15.3852C24.4076 14.3596 24.0931 13.6104 23.3103 12.9293C22.8386 12.5189 22.4223 12.424 21.8395 12.5431C21.8395 13.9145 21.8453 15.2604 21.8372 16.6051C21.8338 17.2179 21.6037 17.4526 21.0093 17.4607C20.2971 17.4711 19.5848 17.4723 18.8726 17.4607C18.306 17.4515 18.069 17.2168 18.0632 16.6456C18.0516 15.5483 18.0597 14.451 18.0597 13.3525C18.0597 13.0727 18.0597 12.7929 18.0597 12.5223C17.4897 12.461 17.0919 12.5027 16.6572 12.8576C15.7796 13.5757 15.4281 14.4198 15.6084 15.5159C15.6119 15.5344 15.6084 15.554 15.6084 15.5737C15.6188 16.5357 15.3737 17.6006 15.7113 18.4285C16.0397 19.2356 16.9509 19.8126 17.6307 20.4647C17.9476 20.7676 18.0759 21.0902 18.0736 21.5308C18.0574 24.2653 18.0655 26.9988 18.0655 29.7333C18.0655 29.9403 18.0655 30.1473 18.0655 30.4398H21.8361L21.8338 30.441Z" fill="#858484"/>
<path d="M19.9236 5.67029V6.83465C16.3554 6.94681 13.2508 8.16551 10.7221 10.6862C8.19099 13.2091 6.95495 16.3045 6.83932 19.9039H5.69924C5.30843 12.8611 11.7164 5.47835 19.9236 5.67029Z" fill="#858484"/>
<path d="M19.9826 34.2162V33.1582C27.903 32.3106 32.2829 27.9446 33.1559 19.9849H34.2162C34.4891 27.6902 27.5573 34.5052 19.9826 34.2173V34.2162Z" fill="#858484"/>
</g>
<defs>
<clipPath id="clip0_1_467">
<rect width="39.8969" height="39.8969" fill="white"/>
</clipPath>
</defs>
</svg>
