<svg width="38" height="39" viewBox="0 0 38 39" fill="none" xmlns="http://www.w3.org/2000/svg">
<path d="M11.8316 33.3865C11.8316 32.878 11.825 32.3849 11.8338 31.8918C11.8404 31.5123 11.9469 31.1704 12.4027 31.1671C12.8717 31.1638 12.9497 31.5123 12.9497 31.8929C12.9497 32.4389 12.9497 32.985 12.9497 33.5531C16.8781 33.916 20.733 34.2734 24.6812 34.6385C24.6812 34.237 24.6768 33.8961 24.6812 33.5564C24.7032 32.1709 25.6411 31.3259 27.003 31.5002C28.1627 31.6491 29.3203 31.8278 30.4756 32.0098C31.9297 32.2404 32.805 31.5013 32.8083 30.0143C32.8116 28.673 32.8029 27.3305 32.8105 25.9891C32.8182 24.586 33.5606 23.7841 34.962 23.644C35.8362 23.5568 36.2305 22.8806 35.8593 22.0655C35.3805 21.0142 34.8489 19.9861 34.4008 18.9227C34.1998 18.4451 34.0768 17.9101 34.0384 17.3916C33.9231 15.8738 34.0329 14.3217 33.7583 12.8381C32.8622 7.99882 30.0627 4.62667 25.4885 2.87606C21.8335 1.47624 18.2422 1.86011 14.7925 3.70669C14.5575 3.83244 14.1753 3.8876 13.9524 3.7817C13.568 3.60079 13.6668 3.09337 14.116 2.82642C15.6613 1.90534 17.3328 1.30195 19.1076 1.09236C24.4638 0.458082 28.8601 2.27267 32.201 6.52178C34.0922 8.92762 35.1421 11.7196 35.0773 14.7872C35.0301 17.0287 35.4376 19.0683 36.5841 20.9756C36.7434 21.2403 36.862 21.5349 36.9696 21.8261C37.477 23.2016 36.5929 24.6147 35.1399 24.7603C34.2042 24.8541 33.9341 25.1442 33.9297 26.095C33.9242 27.4188 33.9352 28.7425 33.9264 30.0651C33.9121 32.2216 32.3635 33.4836 30.2615 33.1019C29.1468 32.8989 28.0221 32.7533 26.8975 32.6077C26.176 32.5139 25.8366 32.8305 25.8091 33.5586C25.8048 33.6865 25.8201 33.8178 25.8048 33.9447C25.7433 34.4808 25.8333 34.772 26.5054 34.8547C27.5323 34.9805 28.0705 36.0174 27.9277 37.2947C27.8157 38.2964 27.0667 38.9979 26.0376 39.0023C23.5665 39.0145 21.0965 39.0056 18.6254 39.0045C16.3378 39.0034 14.0501 39.0012 11.7624 38.9979C10.3281 38.9957 9.61205 38.271 9.60876 36.8226C9.60766 36.3814 9.60656 35.9401 9.60876 35.4989C9.61645 34.205 10.2908 33.4968 11.5812 33.4207C11.6504 33.4163 11.7185 33.4019 11.8316 33.3865ZM18.8023 37.8871V37.9003C21.1262 37.9003 23.4512 37.9025 25.7751 37.9003C26.5065 37.9003 26.7932 37.6499 26.8294 37.0057C26.8712 36.249 26.6482 35.9865 25.886 35.8949C25.6312 35.864 25.3775 35.8309 25.1227 35.8067C22.5012 35.5574 19.8797 35.307 17.257 35.0643C15.4361 34.8955 13.6141 34.729 11.7921 34.5811C10.9629 34.5138 10.7158 34.772 10.7114 35.6225C10.7092 36.0085 10.7103 36.3946 10.7114 36.7807C10.7147 37.6345 10.9662 37.886 11.8305 37.8871C14.1544 37.8893 16.4795 37.8871 18.8034 37.8871H18.8023Z" fill="#858484"/>
<path d="M11.6789 29.6481C11.3132 29.6481 10.9474 29.6548 10.5806 29.6481C9.17265 29.6184 8.193 28.8738 7.75919 27.5445C7.69439 27.346 7.49122 27.1982 7.38029 27.0095C7.16723 26.6444 6.84105 26.2815 6.80151 25.8932C6.71365 25.0383 6.75538 24.168 6.78504 23.3054C6.79382 23.0439 6.86301 22.7163 7.02995 22.5431C7.35393 22.2067 7.26388 21.9077 7.13318 21.5514C6.64666 20.2266 5.90094 19.064 5.041 17.9543C1.79675 13.7647 3.26512 7.52452 8.0667 5.30951C11.0946 3.913 14.0665 4.20201 16.6858 6.29127C19.2997 8.37611 20.3298 11.1691 19.7423 14.5104C19.4974 15.9014 18.8637 17.106 17.9796 18.1892C17.09 19.2791 16.3915 20.4781 15.9829 21.8316C15.9357 21.9872 15.9994 22.1901 16.051 22.3589C16.1598 22.7174 16.3772 23.0616 16.4014 23.4223C16.4563 24.2088 16.4157 25.0019 16.4189 25.7917C16.4211 26.2815 16.2586 26.6808 15.8676 26.9941C15.7545 27.0846 15.6655 27.2423 15.626 27.3857C15.2339 28.8341 14.2576 29.6173 12.7738 29.6503C12.4081 29.6581 12.0424 29.6514 11.6756 29.6514L11.6789 29.6481ZM8.4434 21.9927C10.4664 21.9927 12.4784 21.9982 14.4882 21.9783C14.6123 21.9772 14.8078 21.7985 14.8484 21.6651C15.3503 19.9806 16.2542 18.5323 17.3459 17.1777C18.096 16.2456 18.5529 15.1568 18.7165 13.9754C19.3996 9.02804 15.1658 4.7337 10.0985 5.79818C5.0454 6.85936 2.69952 12.9804 5.81308 17.1049C6.93879 18.5974 7.92393 20.1428 8.4445 21.9927H8.4434ZM7.93711 26.0344C8.02607 26.062 8.07659 26.0907 8.12711 26.0907C10.3939 26.0951 12.6607 26.0929 14.9275 26.1028C15.257 26.1039 15.3251 25.9429 15.3196 25.6572C15.3086 25.0152 15.2877 24.3698 15.3262 23.7301C15.3547 23.2557 15.2251 23.0958 14.7254 23.1024C12.642 23.1311 10.5575 23.1134 8.47306 23.1156C8.29844 23.1156 8.12491 23.1366 7.93711 23.1487V26.0333V26.0344ZM8.85306 27.2335C9.11005 28.0266 9.60097 28.4689 10.339 28.5131C11.2319 28.5671 12.1303 28.5572 13.0242 28.5164C13.7853 28.4822 14.3828 27.8865 14.3982 27.2335H8.85306Z" fill="#858484"/>
<path d="M22.0859 13.3731C21.9036 13.3731 21.6796 13.4393 21.5478 13.3576C21.3435 13.2319 21.0733 13.0046 21.0711 12.8182C21.0689 12.6351 21.3402 12.3417 21.5412 12.2887C21.8838 12.1994 22.2825 12.1917 22.6241 12.2821C22.847 12.3406 23.0106 12.6307 23.2006 12.8171C23.0117 13.0046 22.847 13.2319 22.6252 13.3643C22.4901 13.4448 22.2682 13.3786 22.0859 13.3786C22.0859 13.3764 22.0859 13.3742 22.0859 13.372V13.3731Z" fill="#858484"/>
<path d="M1.07959 12.2679C1.28057 12.2679 1.52328 12.1973 1.67265 12.2855C1.87582 12.4057 2.1416 12.6506 2.13501 12.8337C2.12842 13.0202 1.85056 13.3004 1.64409 13.3522C1.30034 13.4393 0.899473 13.4471 0.559013 13.3533C0.339361 13.2937 0.184507 12.9948 0 12.8029C0.19549 12.6208 0.370113 12.4068 0.593059 12.2712C0.713867 12.1973 0.914848 12.2579 1.07959 12.2579C1.07959 12.2612 1.07959 12.2634 1.07959 12.2668V12.2679Z" fill="#858484"/>
<path d="M3.67909 21.2172C3.59672 21.1499 3.38805 21.0572 3.32106 20.9028C3.25517 20.7483 3.26285 20.4781 3.3584 20.3545C3.6121 20.028 3.91192 19.7258 4.23701 19.4699C4.36111 19.3717 4.63677 19.3551 4.78174 19.4268C4.93001 19.5007 5.06509 19.717 5.09475 19.8912C5.15186 20.2299 4.13597 21.2238 3.67799 21.2183L3.67909 21.2172Z" fill="#858484"/>
<path d="M5.11008 5.74964C5.0969 6.1644 4.60269 6.45672 4.27101 6.19859C3.91408 5.92172 3.5857 5.58527 3.31992 5.21905C3.07941 4.88812 3.35617 4.4535 3.76472 4.43585C4.13593 4.42041 5.12107 5.38231 5.11008 5.74853V5.74964Z" fill="#858484"/>
<path d="M19.9509 4.90802C19.9256 5.34925 19.0184 6.2946 18.689 6.26813C18.5143 6.25379 18.2848 6.14458 18.2013 6.00449C18.1179 5.8644 18.1069 5.57208 18.1991 5.45294C18.466 5.10878 18.7757 4.78557 19.1217 4.52524C19.2513 4.42707 19.55 4.47119 19.7268 4.55061C19.8542 4.60797 19.908 4.8319 19.9509 4.90691V4.90802Z" fill="#858484"/>
<path d="M18.5331 19.354C18.9944 19.3463 19.9465 20.2619 19.8949 20.6016C19.8686 20.7759 19.7357 20.9987 19.5874 21.0726C19.4402 21.1465 19.1635 21.1278 19.0339 21.0296C18.7308 20.8002 18.454 20.5211 18.2245 20.2166C18.1278 20.0876 18.1147 19.8195 18.1794 19.664C18.2442 19.5095 18.4551 19.4169 18.532 19.3529L18.5331 19.354Z" fill="#858484"/>
<path d="M9.96891 9.06987C10.3072 7.85316 10.6696 7.54981 11.6789 7.56525C12.5586 7.57959 12.9441 7.93589 13.2176 9.05773C14.1346 8.34183 14.9473 8.49626 15.6293 9.37984C16.1345 10.034 16.0071 10.676 15.5865 11.1922C16.028 11.5276 16.5189 11.7669 16.799 12.1585C17.0021 12.442 16.978 12.9285 16.9648 13.3212C16.9417 13.9886 16.5002 14.3614 15.5107 14.5964C16.1828 15.5152 16.0686 16.3348 15.1812 17.0199C14.5267 17.5251 13.8886 17.3861 13.3746 16.9846C13.0407 17.4247 12.8013 17.9156 12.4125 18.1957C12.1292 18.3998 11.6459 18.3789 11.255 18.3645C10.5993 18.3403 10.2534 17.9244 9.97879 16.9062C9.0903 17.5526 8.29187 17.4622 7.59887 16.6051C7.05413 15.9311 7.21777 15.2858 7.61315 14.7342C7.18373 14.4232 6.70599 14.2003 6.42154 13.8297C6.21836 13.565 6.21836 13.0995 6.22715 12.7255C6.24362 11.9864 6.6368 11.6324 7.70101 11.34C6.99922 10.4454 7.1398 9.64568 7.98655 8.95184C8.6532 8.40581 9.30117 8.55472 9.97001 9.06877L9.96891 9.06987ZM8.90579 16.1903C8.93655 16.1771 9.00354 16.1528 9.06724 16.1219C10.2852 15.5516 10.6762 15.7259 11.1792 17.011C11.2286 17.1379 11.4845 17.2438 11.6459 17.246C11.77 17.2471 11.9721 17.0949 12.0117 16.9702C12.3708 15.8252 13.055 15.5307 14.0841 16.0701C14.2214 16.1418 14.5058 16.0833 14.6288 15.9774C14.7255 15.8947 14.7529 15.6046 14.6848 15.4733C14.1445 14.4397 14.4399 13.7481 15.5733 13.3907C15.7029 13.3499 15.8479 13.1138 15.8468 12.9704C15.8457 12.8237 15.6996 12.5876 15.57 12.5468C14.4311 12.1916 14.1445 11.5154 14.6848 10.473C14.754 10.3395 14.6892 10.0571 14.5827 9.93469C14.4992 9.83872 14.2148 9.80784 14.0896 9.87623C13.066 10.4322 12.3521 10.131 12.0117 9.00037C11.971 8.86359 11.7426 8.68489 11.6185 8.69702C11.4548 8.71357 11.2132 8.87131 11.1693 9.01802C10.8431 10.1189 10.115 10.4355 9.13313 9.89939C8.99695 9.82549 8.70481 9.85527 8.60048 9.95675C8.49614 10.0582 8.45661 10.355 8.53019 10.4884C9.06943 11.4801 8.75314 12.2368 7.67245 12.5435C7.52419 12.5854 7.34297 12.8292 7.34297 12.9792C7.34297 13.1226 7.53627 13.3521 7.68673 13.3951C8.74106 13.6951 9.07053 14.4916 8.51152 15.4623C8.34898 15.7447 8.55216 16.1639 8.90579 16.1903Z" fill="#858484"/>
<path d="M9.68991 12.9837C9.68662 11.8927 10.5015 11.061 11.5811 11.0533C12.6673 11.0456 13.5613 11.9324 13.5437 12.9969C13.5261 14.036 12.6267 14.9273 11.5954 14.9251C10.5487 14.9229 9.69211 14.0504 9.68881 12.9837H9.68991ZM11.5998 13.7834C12.038 13.7834 12.3993 13.4326 12.4114 12.9947C12.4235 12.5314 12.0578 12.174 11.5811 12.1839C11.1111 12.1939 10.8068 12.5116 10.8123 12.987C10.8178 13.4481 11.1495 13.7823 11.5998 13.7834Z" fill="#858484"/>
</svg>
