<svg width="26" height="23" viewBox="0 0 26 23" fill="none" xmlns="http://www.w3.org/2000/svg">
<path d="M15.2814 13.3577C14.3418 13.3577 13.5775 12.5934 13.5775 11.6538C13.5775 10.7143 14.3418 9.94995 15.2814 9.94995C16.221 9.94995 16.9853 10.7143 16.9853 11.6538C16.9853 12.5934 16.221 13.3577 15.2814 13.3577ZM15.2814 10.7659C14.7918 10.7659 14.3935 11.1644 14.3935 11.6539C14.3935 12.1435 14.7918 12.5419 15.2814 12.5419C15.7709 12.5419 16.1693 12.1435 16.1693 11.6539C16.1693 11.1643 15.7709 10.7659 15.2814 10.7659Z" fill="white"/>
<path d="M21.9437 13.3577C21.0041 13.3577 20.2398 12.5934 20.2398 11.6538C20.2398 10.7143 21.0041 9.94995 21.9437 9.94995C22.8833 9.94995 23.6476 10.7143 23.6476 11.6538C23.6476 12.5934 22.8833 13.3577 21.9437 13.3577ZM21.9437 10.7659C21.4541 10.7659 21.0557 11.1644 21.0557 11.6539C21.0557 12.1435 21.4541 12.5419 21.9437 12.5419C22.4332 12.5419 22.8317 12.1435 22.8317 11.6539C22.8317 11.1643 22.4333 10.7659 21.9437 10.7659Z" fill="white"/>
<path d="M25.4093 12.0619H23.2397C23.0143 12.0619 22.8317 11.8794 22.8317 11.654C22.8317 11.1645 22.4333 10.766 21.9437 10.766C21.4542 10.766 21.0558 11.1645 21.0558 11.654C21.0558 11.8793 20.8731 12.0619 20.6478 12.0619H16.5773C16.352 12.0619 16.1694 11.8794 16.1694 11.654C16.1694 11.1645 15.771 10.766 15.2814 10.766C14.7919 10.766 14.3935 11.1645 14.3935 11.654C14.3935 11.8793 14.2108 12.0619 13.9855 12.0619H12.0847C11.8594 12.0619 11.6767 11.8794 11.6767 11.654V6.42192C11.6767 5.99927 12.0206 5.65576 12.4432 5.65576H24.2443C24.3941 5.65576 24.5318 5.73765 24.603 5.86927L25.6582 7.81758C25.7623 8.0098 25.8173 8.22652 25.8173 8.44518V11.654C25.8173 11.8794 25.6347 12.0619 25.4093 12.0619ZM23.5982 11.2461H25.0014V8.44518C25.0014 8.36197 24.9805 8.27945 24.9408 8.20645L24.0012 6.47164H12.4927V11.2461H13.627C13.8102 10.5028 14.4824 9.95014 15.2814 9.95014C16.0805 9.95014 16.7527 10.5028 16.9359 11.2461H20.2893C20.4726 10.5028 21.1447 9.95014 21.9437 9.95014C22.7428 9.95014 23.415 10.5028 23.5982 11.2461Z" fill="white"/>
<path d="M22.3621 9.35098H12.0847C11.8594 9.35098 11.6767 9.16839 11.6767 8.94301C11.6767 8.7177 11.8594 8.53504 12.0847 8.53504H21.9541V6.06373C21.9541 5.83835 22.1368 5.65576 22.3621 5.65576C22.5875 5.65576 22.7701 5.83835 22.7701 6.06373V8.94301C22.7701 9.16839 22.5874 9.35098 22.3621 9.35098Z" fill="white"/>
<path d="M13.9071 9.35073C13.6817 9.35073 13.4991 9.16814 13.4991 8.94277V7.55347C13.4991 7.3281 13.6817 7.14551 13.9071 7.14551C14.1324 7.14551 14.315 7.3281 14.315 7.55347V8.94277C14.315 9.16814 14.1324 9.35073 13.9071 9.35073Z" fill="white"/>
<path d="M15.9836 9.35073C15.7582 9.35073 15.5756 9.16814 15.5756 8.94277V7.55347C15.5756 7.3281 15.7582 7.14551 15.9836 7.14551C16.2089 7.14551 16.3915 7.3281 16.3915 7.55347V8.94277C16.3915 9.16814 16.2089 9.35073 15.9836 9.35073Z" fill="white"/>
<path d="M18.0598 9.35073C17.8345 9.35073 17.6518 9.16814 17.6518 8.94277V7.55347C17.6518 7.3281 17.8345 7.14551 18.0598 7.14551C18.2851 7.14551 18.4678 7.3281 18.4678 7.55347V8.94277C18.4678 9.16814 18.2851 9.35073 18.0598 9.35073Z" fill="white"/>
<path d="M20.1364 9.35073C19.911 9.35073 19.7284 9.16814 19.7284 8.94277V7.55347C19.7284 7.3281 19.911 7.14551 20.1364 7.14551C20.3617 7.14551 20.5443 7.3281 20.5443 7.55347V8.94277C20.5443 9.16814 20.3617 9.35073 20.1364 9.35073Z" fill="white"/>
<path d="M17.9743 22.1225H4.59892C4.3736 22.1225 4.19095 21.9399 4.19095 21.7145V21.0982C4.19095 19.6209 5.39294 18.419 6.87043 18.419C7.15293 18.419 7.38277 18.1892 7.38277 17.9065V15.9898C7.38277 15.7644 7.56537 15.5818 7.79074 15.5818H14.7825C15.0078 15.5818 15.1905 15.7644 15.1905 15.9898V17.9065C15.1905 18.1892 15.4203 18.419 15.7028 18.419C17.1802 18.419 18.3823 19.6209 18.3823 21.0982V21.7145C18.3822 21.9399 18.1996 22.1225 17.9743 22.1225ZM5.00683 21.3066H17.5662V21.0981C17.5662 20.0709 16.7302 19.2349 15.7027 19.2349C14.9703 19.2349 14.3744 18.6389 14.3744 17.9065V16.3977H8.19865V17.9065C8.19865 18.6389 7.60281 19.2349 6.87043 19.2349C5.84283 19.2349 5.00683 20.0709 5.00683 21.0981V21.3066Z" fill="white"/>
<path d="M20.938 16.3977H1.63512C0.739703 16.3977 0.0111084 15.6691 0.0111084 14.7738V2.513C0.0111084 1.61775 0.739703 0.88916 1.63512 0.88916H20.938C21.8335 0.88916 22.5619 1.61775 22.5619 2.513V3.81747C22.5619 4.04285 22.3792 4.22544 22.1539 4.22544C21.9286 4.22544 21.7459 4.04279 21.7459 3.81747V2.513C21.7459 2.06741 21.3835 1.70504 20.938 1.70504H1.63512C1.18953 1.70504 0.827043 2.06741 0.827043 2.513V14.7738C0.827043 15.2194 1.18959 15.5818 1.63512 15.5818H20.938C21.3836 15.5818 21.7459 15.2194 21.7459 14.7738V12.9498C21.7459 12.7245 21.9285 12.5418 22.1539 12.5418C22.3793 12.5418 22.5619 12.7245 22.5619 12.9498V14.7738C22.5619 15.6691 21.8335 16.3977 20.938 16.3977Z" fill="white"/>
<path d="M12.1142 19.2349H6.87046C6.64509 19.2349 6.46249 19.0523 6.46249 18.8269C6.46249 18.6015 6.64514 18.4189 6.87046 18.4189H12.1142C12.3395 18.4189 12.5221 18.6015 12.5221 18.8269C12.5221 19.0523 12.3395 19.2349 12.1142 19.2349Z" fill="white"/>
<path d="M24.1721 13.3577H0.41906C0.193686 13.3577 0.0110931 13.175 0.0110931 12.9497C0.0110931 12.7244 0.193744 12.5417 0.41906 12.5417H24.1721C24.3974 12.5417 24.58 12.7244 24.58 12.9497C24.58 13.175 24.3974 13.3577 24.1721 13.3577Z" fill="white"/>
<path d="M4.59892 13.3578C4.3736 13.3578 4.19095 13.1752 4.19095 12.9499V3.81764C4.19095 3.59232 4.37354 3.40967 4.59892 3.40967H22.1539C22.3793 3.40967 22.5619 3.59232 22.5619 3.81764C22.5619 4.04301 22.3793 4.2256 22.1539 4.2256H5.00683V12.9499C5.00683 13.1752 4.82423 13.3578 4.59892 13.3578Z" fill="white"/>
<path d="M9.49223 13.3578C9.26685 13.3578 9.08426 13.1752 9.08426 12.9499V3.81764C9.08426 3.59232 9.26691 3.40967 9.49223 3.40967C9.71754 3.40967 9.90019 3.59232 9.90019 3.81764V12.9499C9.90014 13.1752 9.71749 13.3578 9.49223 13.3578Z" fill="white"/>
<path d="M8.2131 6.4717H6.08518C5.85987 6.4717 5.67722 6.2891 5.67722 6.06373C5.67722 5.83835 5.85981 5.65576 6.08518 5.65576H8.2131C8.43842 5.65576 8.62107 5.83835 8.62107 6.06373C8.62107 6.2891 8.43842 6.4717 8.2131 6.4717Z" fill="white"/>
<path d="M8.2131 7.91115H6.08518C5.85987 7.91115 5.67722 7.72856 5.67722 7.50318C5.67722 7.27781 5.85981 7.09521 6.08518 7.09521H8.2131C8.43842 7.09521 8.62107 7.27781 8.62107 7.50318C8.62101 7.72856 8.43842 7.91115 8.2131 7.91115Z" fill="white"/>
<path d="M8.2131 9.35085H6.08518C5.85987 9.35085 5.67722 9.16825 5.67722 8.94288C5.67722 8.71756 5.85981 8.53491 6.08518 8.53491H8.2131C8.43842 8.53491 8.62107 8.71756 8.62107 8.94288C8.62101 9.16825 8.43842 9.35085 8.2131 9.35085Z" fill="white"/>
<path d="M8.2131 10.7905H6.08518C5.85987 10.7905 5.67722 10.6079 5.67722 10.3826C5.67722 10.1573 5.85981 9.97461 6.08518 9.97461H8.2131C8.43842 9.97461 8.62107 10.1573 8.62107 10.3826C8.62101 10.6079 8.43842 10.7905 8.2131 10.7905Z" fill="white"/>
<path d="M19.7175 22.1226H2.85568C2.63036 22.1226 2.44771 21.9399 2.44771 21.7146C2.44771 21.4893 2.63036 21.3066 2.85568 21.3066H19.7175C19.9428 21.3066 20.1255 21.4893 20.1255 21.7146C20.1255 21.94 19.9428 22.1226 19.7175 22.1226Z" fill="white"/>
</svg>
