<svg width="21" height="25" viewBox="0 0 21 25" fill="none" xmlns="http://www.w3.org/2000/svg">
<path d="M18.9116 0H1.33283C0.982408 0.000430886 0.646445 0.156725 0.398657 0.434592C0.150869 0.712458 0.0114927 1.0892 0.0111085 1.48216V16.5033C0.010984 16.8968 0.150073 17.2744 0.39786 17.553C0.645647 17.8317 0.981896 17.9888 1.33283 17.9898H8.78472L8.19463 21.5977H7.06688C6.82812 21.598 6.59922 21.7045 6.43037 21.8938C6.26153 22.0831 6.16653 22.3398 6.16622 22.6075V23.8617C6.16621 23.9149 6.17554 23.9676 6.19369 24.0167C6.21183 24.0658 6.23843 24.1105 6.27196 24.1481C6.3055 24.1857 6.34531 24.2155 6.38913 24.2359C6.43294 24.2562 6.47991 24.2667 6.52733 24.2667H13.7182C13.7656 24.2667 13.8126 24.2562 13.8564 24.2359C13.9002 24.2155 13.94 24.1857 13.9735 24.1481C14.0071 24.1105 14.0337 24.0658 14.0518 24.0167C14.07 23.9676 14.0793 23.9149 14.0793 23.8617V22.6075C14.079 22.3398 13.984 22.0831 13.8151 21.8938C13.6463 21.7045 13.4174 21.598 13.1786 21.5977H12.4614L11.871 17.9898H18.7102C19.1141 17.9893 19.5012 17.8091 19.7867 17.4889C20.0723 17.1686 20.2329 16.7345 20.2333 16.2817V1.48216C20.2329 1.0892 20.0936 0.712458 19.8458 0.434592C19.598 0.156725 19.262 0.000430886 18.9116 0ZM1.33283 0.809891H18.9116C19.0705 0.81011 19.2229 0.88101 19.3353 1.00704C19.4477 1.13307 19.5109 1.30393 19.5111 1.48216V13.2879H0.733331V1.48216C0.733527 1.30393 0.796751 1.13307 0.909137 1.00704C1.02152 0.88101 1.1739 0.81011 1.33283 0.809891ZM13.3571 22.6075V23.4568H6.88844V22.6075C6.88853 22.5545 6.90737 22.5037 6.94082 22.4662C6.97427 22.4288 7.0196 22.4077 7.06688 22.4076H13.1786C13.2259 22.4077 13.2712 22.4288 13.3047 22.4662C13.3381 22.5037 13.357 22.5545 13.3571 22.6075ZM11.7272 21.5977H8.92875L9.5188 17.9898H11.1368L11.7272 21.5977ZM18.7102 17.1799H1.33283C1.17338 17.1791 1.02073 17.1074 0.908341 16.9806C0.795956 16.8538 0.733018 16.6821 0.733331 16.5033V14.0978H19.5111V16.2817C19.5109 16.5198 19.4264 16.7481 19.2763 16.9165C19.1262 17.0849 18.9226 17.1796 18.7102 17.1799Z" fill="white"/>
<path d="M11.2328 15.021H9.01285C8.9183 15.0231 8.82824 15.0666 8.76202 15.1424C8.69581 15.2181 8.65872 15.3199 8.65872 15.426C8.65873 15.532 8.69582 15.6338 8.76204 15.7095C8.82826 15.7853 8.91832 15.8288 9.01287 15.8309H11.2328C11.3273 15.8288 11.4174 15.7852 11.4836 15.7095C11.5498 15.6338 11.5869 15.532 11.5869 15.4259C11.5869 15.3199 11.5498 15.2181 11.4836 15.1424C11.4174 15.0666 11.3273 15.0231 11.2328 15.021Z" fill="white"/>
<path d="M12.0321 3.54329H15.6993C15.7939 3.54122 15.8839 3.49764 15.9501 3.42192C16.0163 3.3462 16.0534 3.24438 16.0534 3.13833C16.0534 3.03228 16.0163 2.93046 15.9501 2.85474C15.8839 2.77903 15.7938 2.73546 15.6993 2.7334H12.0321C11.9376 2.73547 11.8475 2.77904 11.7813 2.85475C11.7151 2.93047 11.678 3.03229 11.678 3.13834C11.678 3.2444 11.7151 3.34622 11.7813 3.42193C11.8475 3.49765 11.9376 3.54122 12.0321 3.54329Z" fill="white"/>
<path d="M11.5177 6.10408H16.214C16.3097 6.10408 16.4016 6.06142 16.4693 5.98547C16.537 5.90953 16.5751 5.80653 16.5751 5.69913C16.5751 5.59174 16.537 5.48874 16.4693 5.4128C16.4016 5.33685 16.3097 5.29419 16.214 5.29419H11.5177C11.4232 5.29626 11.3331 5.33983 11.2669 5.41555C11.2007 5.49126 11.1636 5.59308 11.1636 5.69913C11.1636 5.80519 11.2007 5.90701 11.2669 5.98272C11.3331 6.05844 11.4232 6.10201 11.5177 6.10408Z" fill="white"/>
<path d="M8.16291 8.48901H3.46706C3.3725 8.49108 3.28245 8.53466 3.21623 8.61038C3.15002 8.6861 3.11293 8.78792 3.11293 8.89397C3.11293 9.00002 3.15003 9.10184 3.21625 9.17756C3.28247 9.25327 3.37253 9.29684 3.46708 9.2989H8.16291C8.25747 9.29684 8.34753 9.25327 8.41374 9.17755C8.47996 9.10183 8.51705 9.00001 8.51705 8.89396C8.51705 8.78791 8.47996 8.68609 8.41374 8.61037C8.34753 8.53465 8.25747 8.49108 8.16291 8.48901Z" fill="white"/>
<path d="M7.62271 10.8367H3.95517C3.86062 10.8387 3.77056 10.8823 3.70435 10.958C3.63813 11.0338 3.60104 11.1356 3.60104 11.2416C3.60105 11.3477 3.63814 11.4495 3.70436 11.5252C3.77058 11.6009 3.86064 11.6445 3.95519 11.6466H7.62271C7.71726 11.6445 7.80732 11.6009 7.87354 11.5252C7.93976 11.4495 7.97685 11.3477 7.97685 11.2416C7.97685 11.1356 7.93976 11.0337 7.87354 10.958C7.80732 10.8823 7.71726 10.8387 7.62271 10.8367Z" fill="white"/>
<path d="M14.445 7.59863C14.3976 7.59862 14.3506 7.60908 14.3068 7.62943C14.263 7.64978 14.2232 7.6796 14.1896 7.71721C14.1561 7.75481 14.1295 7.79946 14.1113 7.8486C14.0932 7.89773 14.0839 7.9504 14.0839 8.00358V10.6019C14.0816 10.8374 13.9966 11.0624 13.8473 11.228C13.6979 11.3937 13.4964 11.4866 13.2864 11.4866C13.0763 11.4866 12.8748 11.3937 12.7255 11.228C12.5762 11.0624 12.4911 10.8374 12.4889 10.6019V8.00358C12.487 7.89755 12.4482 7.79656 12.3806 7.7223C12.3131 7.64805 12.2223 7.60646 12.1277 7.60646C12.0332 7.60647 11.9424 7.64806 11.8748 7.72232C11.8073 7.79658 11.7685 7.89757 11.7666 8.0036V10.6019C11.7702 11.0512 11.9319 11.4808 12.2166 11.7971C12.5012 12.1134 12.8857 12.2909 13.2864 12.2909C13.6871 12.2909 14.0716 12.1134 14.3562 11.7971C14.6408 11.4808 14.8025 11.0512 14.8061 10.6019V8.00358C14.8061 7.9504 14.7968 7.89773 14.7786 7.8486C14.7605 7.79946 14.7339 7.75481 14.7004 7.71721C14.6668 7.6796 14.627 7.64977 14.5832 7.62943C14.5394 7.60908 14.4924 7.59862 14.445 7.59863Z" fill="white"/>
<path d="M15.6037 7.59863C15.5563 7.59862 15.5093 7.60908 15.4655 7.62943C15.4217 7.64977 15.3819 7.6796 15.3483 7.71721C15.3148 7.75481 15.2882 7.79946 15.2701 7.8486C15.2519 7.89773 15.2426 7.9504 15.2426 8.00358V11.9012C15.2426 12.0086 15.2806 12.1116 15.3484 12.1875C15.4161 12.2635 15.5079 12.3061 15.6037 12.3061C15.6995 12.3061 15.7913 12.2635 15.8591 12.1875C15.9268 12.1116 15.9648 12.0086 15.9648 11.9012V8.00358C15.9648 7.9504 15.9555 7.89773 15.9374 7.8486C15.9192 7.79946 15.8926 7.75481 15.8591 7.71721C15.8255 7.6796 15.7857 7.64978 15.7419 7.62943C15.6981 7.60908 15.6511 7.59862 15.6037 7.59863Z" fill="white"/>
<path d="M4.41698 6.17081C4.77727 6.17033 5.12268 6.00958 5.37741 5.72386C5.63214 5.43813 5.7754 5.05076 5.77574 4.64673V2.40885C5.77574 2.30145 5.73769 2.19845 5.66997 2.12251C5.60225 2.04657 5.5104 2.00391 5.41462 2.00391C5.31885 2.00391 5.227 2.04657 5.15928 2.12251C5.09156 2.19845 5.05351 2.30145 5.05351 2.40885V4.64673C5.05351 4.83609 4.98643 5.0177 4.86703 5.1516C4.74762 5.2855 4.58567 5.36073 4.41681 5.36073C4.24794 5.36073 4.08599 5.2855 3.96659 5.1516C3.84718 5.0177 3.7801 4.83609 3.7801 4.64673V2.40885C3.7801 2.30145 3.74205 2.19845 3.67433 2.12251C3.60661 2.04657 3.51476 2.00391 3.41899 2.00391C3.32322 2.00391 3.23136 2.04657 3.16364 2.12251C3.09592 2.19845 3.05788 2.30145 3.05788 2.40885V4.64673C3.0583 5.0508 3.20162 5.43818 3.45642 5.7239C3.71121 6.00962 4.05666 6.17034 4.41698 6.17081Z" fill="white"/>
<path d="M6.78714 4.12508L6.05277 5.40487C6.00297 5.49515 5.98678 5.60374 6.00767 5.70728C6.02856 5.81081 6.08488 5.90101 6.16448 5.95844C6.24409 6.01588 6.34063 6.03597 6.43331 6.01438C6.52599 5.99279 6.60741 5.93126 6.66004 5.84302L7.21651 4.87324L7.81634 5.91838C7.86899 6.00658 7.9504 6.06808 8.04307 6.08964C8.13574 6.1112 8.23226 6.09111 8.31185 6.03367C8.39144 5.97624 8.44774 5.88607 8.46864 5.78255C8.48953 5.67904 8.47336 5.57046 8.42359 5.48019L7.64584 4.12504L8.46664 2.69463C8.51644 2.60436 8.53263 2.49576 8.51174 2.39223C8.49085 2.28869 8.43454 2.1985 8.35493 2.14106C8.27532 2.08362 8.17878 2.06354 8.0861 2.08512C7.99342 2.10671 7.912 2.16825 7.85937 2.25648L7.21646 3.37688L6.61666 2.33179C6.56402 2.24358 6.4826 2.18208 6.38992 2.16051C6.29725 2.13894 6.20073 2.15903 6.12113 2.21647C6.04154 2.2739 5.98524 2.36408 5.96434 2.4676C5.94344 2.57112 5.95963 2.6797 6.00941 2.76998L6.78714 4.12508Z" fill="white"/>
</svg>
