<svg width="27" height="25" viewBox="0 0 27 25" fill="none" xmlns="http://www.w3.org/2000/svg">
<g clip-path="url(#clip0_1_35)">
<path d="M0.422088 21.8324C0.194716 21.8324 0.0110931 21.6629 0.0110931 21.453C0.0110931 20.1976 1.11705 19.1768 2.47706 19.1768C2.70444 19.1768 2.88806 19.3464 2.88806 19.5561C2.88806 19.766 2.70444 19.9355 2.47706 19.9355C1.57039 19.9355 0.833083 20.6161 0.833083 21.453C0.833083 21.6629 0.648858 21.8324 0.422088 21.8324Z" fill="white"/>
<path d="M3.71011 19.9355H2.47713C2.24975 19.9355 2.06613 19.766 2.06613 19.5561C2.06613 19.3464 2.24975 19.1768 2.47713 19.1768H3.71011C3.93748 19.1768 4.12111 19.3464 4.12111 19.5561C4.12111 19.766 3.93688 19.9355 3.71011 19.9355Z" fill="white"/>
<path d="M0.422088 22.9706C0.194716 22.9706 0.0110931 22.8011 0.0110931 22.5913V21.4531C0.0110931 21.2434 0.194716 21.0737 0.422088 21.0737C0.64946 21.0737 0.833083 21.2434 0.833083 21.4531V22.5913C0.833083 22.8011 0.648858 22.9706 0.422088 22.9706Z" fill="white"/>
<path d="M0.833083 23.3502C0.379744 23.3502 0.0110931 23.0099 0.0110931 22.5914C0.0110931 22.3901 0.182876 22.2446 0.400816 22.2337C0.629994 22.2196 0.808399 22.3915 0.833083 22.5911C1.05985 22.5911 1.24408 22.7611 1.24408 22.9704C1.24408 23.1803 1.05985 23.3502 0.833083 23.3502Z" fill="white"/>
<path d="M10.2859 21.8324C10.0586 21.8324 9.87495 21.6629 9.87495 21.453C9.87495 20.6161 9.13765 19.9355 8.23097 19.9355C8.0036 19.9355 7.81998 19.766 7.81998 19.5561C7.81998 19.3464 8.0036 19.1768 8.23097 19.1768C9.59099 19.1768 10.6969 20.1976 10.6969 21.453C10.6969 21.6629 10.5127 21.8324 10.2859 21.8324Z" fill="white"/>
<path d="M8.23102 19.9355H6.99803C6.77066 19.9355 6.58704 19.766 6.58704 19.5561C6.58704 19.3464 6.77066 19.1768 6.99803 19.1768H8.23102C8.45839 19.1768 8.64201 19.3464 8.64201 19.5561C8.64201 19.766 8.45779 19.9355 8.23102 19.9355Z" fill="white"/>
<path d="M10.286 22.9706C10.0586 22.9706 9.87502 22.8011 9.87502 22.5913V21.4531C9.87502 21.2434 10.0586 21.0737 10.286 21.0737C10.5134 21.0737 10.697 21.2434 10.697 21.4531V22.5913C10.697 22.8011 10.5128 22.9706 10.286 22.9706Z" fill="white"/>
<path d="M9.875 23.3498C9.64763 23.3498 9.464 23.1803 9.464 22.9704C9.464 22.7607 9.64763 22.5911 9.875 22.5911C9.875 22.3814 10.0586 22.2117 10.286 22.2117C10.5134 22.2117 10.697 22.3814 10.697 22.5911C10.697 23.0095 10.3279 23.3498 9.875 23.3498Z" fill="white"/>
<path d="M9.87499 23.3498H0.833099C0.605727 23.3498 0.422104 23.1803 0.422104 22.9704C0.422104 22.7607 0.605727 22.5911 0.833099 22.5911H9.87499C10.1024 22.5911 10.286 22.7607 10.286 22.9704C10.286 23.1803 10.1018 23.3498 9.87499 23.3498Z" fill="white"/>
<path d="M3.71007 19.9354C3.4827 19.9354 3.29907 19.7659 3.29907 19.556V18.0627C3.29907 17.853 3.4827 17.6833 3.71007 17.6833C3.93744 17.6833 4.12106 17.853 4.12106 18.0627V19.556C4.12106 19.7659 3.93684 19.9354 3.71007 19.9354Z" fill="white"/>
<path d="M6.99803 19.9354C6.77066 19.9354 6.58704 19.7659 6.58704 19.556V18.0627C6.58704 17.853 6.77066 17.6833 6.99803 17.6833C7.2254 17.6833 7.40903 17.853 7.40903 18.0627V19.556C7.40903 19.7659 7.2248 19.9354 6.99803 19.9354Z" fill="white"/>
<path d="M5.35363 18.7974C3.08734 18.7974 1.24408 17.096 1.24408 15.0044C1.24408 14.7947 1.4277 14.625 1.65507 14.625C1.88245 14.625 2.06607 14.7947 2.06607 15.0044C2.06607 16.6775 3.54068 18.0387 5.35363 18.0387C7.16698 18.0387 8.64199 16.6775 8.64199 15.0044C8.64199 14.7947 8.82561 14.625 9.05299 14.625C9.28036 14.625 9.46398 14.7947 9.46398 15.0044C9.46398 17.096 7.61992 18.7974 5.35363 18.7974Z" fill="white"/>
<path d="M1.65507 15.4024C1.4277 15.4024 1.24408 15.2327 1.24408 15.023V12.7273C1.24408 12.518 1.4277 12.3479 1.65507 12.3479C1.88245 12.3479 2.06607 12.518 2.06607 12.7273V15.023C2.06607 15.2327 1.88184 15.4024 1.65507 15.4024Z" fill="white"/>
<path d="M9.05302 15.3837C8.82565 15.3837 8.64203 15.2142 8.64203 15.0043V12.7273C8.64203 12.518 8.82565 12.3479 9.05302 12.3479C9.2804 12.3479 9.46402 12.518 9.46402 12.7273V15.0043C9.46402 15.2142 9.27979 15.3837 9.05302 15.3837Z" fill="white"/>
<path d="M9.05304 13.1062C8.82567 13.1062 8.64204 12.9367 8.64204 12.7269C8.64204 12.0994 8.08876 11.5891 7.40906 11.5891C7.18169 11.5891 6.99806 11.4192 6.99806 11.2097C6.99806 11.0004 7.18169 10.8303 7.40906 10.8303C8.5421 10.8303 9.46403 11.6813 9.46403 12.7269C9.46403 12.9367 9.27981 13.1062 9.05304 13.1062Z" fill="white"/>
<path d="M7.40906 11.5893C7.18169 11.5893 6.99806 11.4194 6.99806 11.2099V9.69237C6.99806 9.48304 7.18169 9.31299 7.40906 9.31299C7.63643 9.31299 7.82005 9.48304 7.82005 9.69237V11.2099C7.82005 11.4194 7.63583 11.5893 7.40906 11.5893Z" fill="white"/>
<path d="M7.40902 10.0717H4.94305C4.71568 10.0717 4.53206 9.90188 4.53206 9.69237C4.53206 9.48304 4.71568 9.31299 4.94305 9.31299H7.40902C7.6364 9.31299 7.82002 9.48304 7.82002 9.69237C7.82002 9.90188 7.63579 10.0717 7.40902 10.0717Z" fill="white"/>
<path d="M1.65507 13.1068C1.4277 13.1068 1.24408 12.9373 1.24408 12.7274C1.24408 10.845 2.90331 9.31299 4.94304 9.31299C5.17041 9.31299 5.35403 9.48304 5.35403 9.69237C5.35403 9.90188 5.17041 10.0717 4.94304 10.0717C3.35705 10.0717 2.06607 11.2631 2.06607 12.7274C2.06607 12.9373 1.88184 13.1068 1.65507 13.1068Z" fill="white"/>
<path d="M9.0526 14.2543C8.97373 14.2543 8.89346 14.2332 8.82282 14.1895L7.58984 13.4213C7.4016 13.3036 7.35223 13.068 7.47886 12.8942C7.60589 12.7208 7.86156 12.6745 8.0498 12.7922L9.28278 13.5606C9.47102 13.678 9.52039 13.9136 9.39376 14.0874C9.31389 14.1959 9.18445 14.2543 9.0526 14.2543Z" fill="white"/>
<path d="M5.55955 13.8653C4.07511 13.8653 2.81122 13.483 2.75865 13.4667C2.54372 13.4002 2.42692 13.1859 2.49796 12.9871C2.5696 12.7883 2.80179 12.6794 3.01752 12.7463C3.02956 12.75 4.21278 13.1062 5.55995 13.1062C6.86619 13.1062 7.63138 12.7692 7.63921 12.7659C7.8423 12.674 8.08874 12.7515 8.18868 12.9393C8.28862 13.1268 8.20634 13.3528 8.00425 13.4461C7.96592 13.4632 7.07409 13.8653 5.55955 13.8653Z" fill="white"/>
<path d="M1.65545 14.2543C1.5236 14.2543 1.39356 14.1959 1.31429 14.0874C1.18726 13.9136 1.23663 13.678 1.42487 13.5606L2.65785 12.7922C2.84649 12.6745 3.10176 12.7208 3.22879 12.8942C3.35582 13.068 3.30605 13.3036 3.11781 13.4213L1.88483 14.1895C1.81419 14.2336 1.73432 14.2543 1.65545 14.2543Z" fill="white"/>
<path d="M4.53167 20.315C4.47006 20.315 4.40705 20.3022 4.34845 20.2752L3.52646 19.8958C3.32337 19.8021 3.24109 19.574 3.34264 19.3868C3.44418 19.1993 3.69122 19.1246 3.89431 19.2171L4.7163 19.5965C4.91919 19.6902 5.00147 19.9182 4.89992 20.1057C4.82707 20.2383 4.68258 20.315 4.53167 20.315Z" fill="white"/>
<path d="M4.53247 20.315C4.38156 20.315 4.23646 20.2383 4.16422 20.1053C4.06267 19.9178 4.14495 19.6898 4.34784 19.5961L5.16983 19.2167C5.37292 19.124 5.61996 19.1989 5.72151 19.3864C5.82305 19.5736 5.74077 19.8017 5.53768 19.8954L4.71569 20.2748C4.65669 20.3022 4.59408 20.315 4.53247 20.315Z" fill="white"/>
<path d="M6.1765 20.315C6.02558 20.315 5.88049 20.2383 5.80825 20.1053C5.7067 19.9178 5.78898 19.6898 5.99187 19.5961L6.81386 19.2167C7.01655 19.124 7.26359 19.1989 7.36553 19.3864C7.46708 19.5736 7.3848 19.8017 7.18171 19.8954L6.35972 20.2748C6.30072 20.3022 6.23811 20.315 6.1765 20.315Z" fill="white"/>
<path d="M6.17562 20.315C6.11401 20.315 6.051 20.3022 5.9924 20.2752L5.17041 19.8958C4.96732 19.8021 4.88504 19.574 4.98659 19.3868C5.08853 19.1993 5.33477 19.1246 5.53826 19.2171L6.36025 19.5965C6.56314 19.6902 6.64542 19.9182 6.54387 20.1057C6.47103 20.2383 6.32654 20.315 6.17562 20.315Z" fill="white"/>
<path d="M17.2581 15.3676C17.0309 15.3676 16.8471 15.1981 16.8471 14.9882V13.3494C16.8471 13.1395 17.0309 12.97 17.2581 12.97C17.4854 12.97 17.6691 13.1395 17.6691 13.3494V14.9882C17.6691 15.1981 17.4854 15.3676 17.2581 15.3676Z" fill="white"/>
<path d="M24.6559 15.3831C24.4288 15.3831 24.2449 15.2136 24.2449 15.0037V13.2961C24.2449 13.0864 24.4288 12.9167 24.6559 12.9167C24.8833 12.9167 25.0669 13.0864 25.0669 13.2961V15.0037C25.0669 15.2136 24.8833 15.3831 24.6559 15.3831Z" fill="white"/>
<path d="M24.656 13.6755C24.4288 13.6755 24.245 13.506 24.245 13.2961C24.245 11.5179 22.6779 10.0717 20.7511 10.0717C18.8248 10.0717 17.2581 11.5183 17.2581 13.2961C17.2581 13.506 17.0744 13.6755 16.8471 13.6755C16.6199 13.6755 16.4361 13.506 16.4361 13.2961C16.4361 11.0999 18.3718 9.31299 20.7511 9.31299C23.1308 9.31299 25.067 11.0999 25.067 13.2961C25.067 13.506 24.8833 13.6755 24.656 13.6755Z" fill="white"/>
<path d="M24.6564 14.2447C24.5328 14.2447 24.4107 14.1936 24.3297 14.0959C23.3186 12.877 22.8637 13.0022 21.6484 13.3368C20.6024 13.6245 19.1692 14.0191 16.7831 13.6702C16.5591 13.6376 16.4058 13.4435 16.4415 13.2364C16.4768 13.0295 16.6865 12.8865 16.9117 12.9211C19.113 13.2412 20.4425 12.8759 21.4138 12.6095C22.7005 12.2565 23.6289 12.0017 24.9827 13.6343C25.121 13.8005 25.0868 14.0387 24.9064 14.1661C24.8316 14.2193 24.7435 14.2447 24.6564 14.2447Z" fill="white"/>
<path d="M22.6096 13.1171C22.5299 13.1171 22.4491 13.0956 22.3782 13.0511C22.1908 12.9328 22.1428 12.6968 22.2707 12.5237L23.495 10.8697C23.6236 10.6967 23.8793 10.6524 24.0665 10.7704C24.254 10.8882 24.3021 11.1246 24.1743 11.2976L22.95 12.9522C22.8699 13.0595 22.7408 13.1171 22.6096 13.1171Z" fill="white"/>
<path d="M16.0251 21.8324C15.7979 21.8324 15.6141 21.6629 15.6141 21.453C15.6141 20.1976 16.72 19.1768 18.08 19.1768C18.3074 19.1768 18.491 19.3464 18.491 19.5561C18.491 19.766 18.3074 19.9355 18.08 19.9355C17.1734 19.9355 16.4361 20.6161 16.4361 21.453C16.4361 21.6629 16.2524 21.8324 16.0251 21.8324Z" fill="white"/>
<path d="M19.313 19.9355H18.08C17.8528 19.9355 17.669 19.766 17.669 19.5561C17.669 19.3464 17.8528 19.1768 18.08 19.1768H19.313C19.5403 19.1768 19.724 19.3464 19.724 19.5561C19.724 19.766 19.5403 19.9355 19.313 19.9355Z" fill="white"/>
<path d="M16.0251 22.9706C15.7979 22.9706 15.6141 22.8011 15.6141 22.5913V21.4531C15.6141 21.2434 15.7979 21.0737 16.0251 21.0737C16.2524 21.0737 16.4361 21.2434 16.4361 21.4531V22.5913C16.4361 22.8011 16.2524 22.9706 16.0251 22.9706Z" fill="white"/>
<path d="M16.4361 23.3502C15.9827 23.3502 15.6141 23.0099 15.6141 22.5914C15.6141 22.3901 15.7859 22.2446 16.0038 22.2337C16.2286 22.2196 16.4118 22.3915 16.4361 22.5911C16.663 22.5911 16.8471 22.7611 16.8471 22.9704C16.8471 23.1803 16.6634 23.3502 16.4361 23.3502Z" fill="white"/>
<path d="M25.8889 21.8324C25.6618 21.8324 25.4779 21.6629 25.4779 21.453C25.4779 20.6161 24.7406 19.9355 23.834 19.9355C23.6068 19.9355 23.423 19.766 23.423 19.5561C23.423 19.3464 23.6068 19.1768 23.834 19.1768C25.194 19.1768 26.2999 20.1976 26.2999 21.453C26.2999 21.6629 26.1163 21.8324 25.8889 21.8324Z" fill="white"/>
<path d="M23.834 19.9355H22.601C22.3739 19.9355 22.19 19.766 22.19 19.5561C22.19 19.3464 22.3739 19.1768 22.601 19.1768H23.834C24.0614 19.1768 24.245 19.3464 24.245 19.5561C24.245 19.766 24.0614 19.9355 23.834 19.9355Z" fill="white"/>
<path d="M25.8889 22.9706C25.6618 22.9706 25.478 22.8011 25.478 22.5913V21.4531C25.478 21.2434 25.6618 21.0737 25.8889 21.0737C26.1163 21.0737 26.2999 21.2434 26.2999 21.4531V22.5913C26.2999 22.8011 26.1163 22.9706 25.8889 22.9706Z" fill="white"/>
<path d="M25.478 23.3498C25.2508 23.3498 25.067 23.1803 25.067 22.9704C25.067 22.7607 25.2508 22.5911 25.478 22.5911C25.478 22.3814 25.6618 22.2117 25.889 22.2117C26.1164 22.2117 26.3 22.3814 26.3 22.5911C26.3 23.0095 25.9313 23.3498 25.478 23.3498Z" fill="white"/>
<path d="M25.4779 23.3498H16.436C16.2089 23.3498 16.025 23.1803 16.025 22.9704C16.025 22.7607 16.2089 22.5911 16.436 22.5911H25.4779C25.7053 22.5911 25.8889 22.7607 25.8889 22.9704C25.8889 23.1803 25.7053 23.3498 25.4779 23.3498Z" fill="white"/>
<path d="M19.313 19.9354C19.0859 19.9354 18.9021 19.7659 18.9021 19.556V18.0627C18.9021 17.853 19.0859 17.6833 19.313 17.6833C19.5404 17.6833 19.724 17.853 19.724 18.0627V19.556C19.724 19.7659 19.5404 19.9354 19.313 19.9354Z" fill="white"/>
<path d="M22.601 19.9354C22.3739 19.9354 22.19 19.7659 22.19 19.556V18.0627C22.19 17.853 22.3739 17.6833 22.601 17.6833C22.8284 17.6833 23.012 17.853 23.012 18.0627V19.556C23.012 19.7659 22.8284 19.9354 22.601 19.9354Z" fill="white"/>
<path d="M20.9566 18.7974C18.6905 18.7974 16.8471 17.096 16.8471 15.0044C16.8471 14.7947 17.0309 14.625 17.2581 14.625C17.4854 14.625 17.6691 14.7947 17.6691 15.0044C17.6691 16.6775 19.1437 18.0387 20.9566 18.0387C22.77 18.0387 24.245 16.6775 24.245 15.0044C24.245 14.7947 24.4288 14.625 24.656 14.625C24.8834 14.625 25.067 14.7947 25.067 15.0044C25.067 17.096 23.2233 18.7974 20.9566 18.7974Z" fill="white"/>
<path d="M20.1346 20.315C20.073 20.315 20.0102 20.3022 19.9514 20.2752L19.1294 19.8958C18.9263 19.8021 18.8443 19.574 18.9456 19.3868C19.0471 19.1993 19.2942 19.1246 19.4973 19.2171L20.3193 19.5965C20.5222 19.6902 20.6044 19.9182 20.5029 20.1057C20.4306 20.2383 20.286 20.315 20.1346 20.315Z" fill="white"/>
<path d="M20.1354 20.315C19.9847 20.315 19.8396 20.2383 19.7672 20.1053C19.6656 19.9178 19.7479 19.6898 19.951 19.5961L20.773 19.2167C20.9759 19.124 21.2229 19.1989 21.3244 19.3864C21.426 19.5736 21.3437 19.8017 21.1408 19.8954L20.3188 20.2748C20.26 20.3022 20.1976 20.315 20.1354 20.315Z" fill="white"/>
<path d="M21.7794 20.315C21.6286 20.315 21.4835 20.2383 21.4111 20.1053C21.3096 19.9178 21.3918 19.6898 21.5949 19.5961L22.4169 19.2167C22.6194 19.124 22.8664 19.1989 22.9684 19.3864C23.0699 19.5736 22.9877 19.8017 22.7848 19.8954L21.9628 20.2748C21.904 20.3022 21.8416 20.315 21.7794 20.315Z" fill="white"/>
<path d="M21.7786 20.315C21.717 20.315 21.6542 20.3022 21.5954 20.2752L20.7734 19.8958C20.5703 19.8021 20.4882 19.574 20.5896 19.3868C20.6915 19.1993 20.9377 19.1246 21.1412 19.2171L21.9632 19.5965C22.1661 19.6902 22.2484 19.9182 22.1468 20.1057C22.0746 20.2383 21.9299 20.315 21.7786 20.315Z" fill="white"/>
<path d="M10.3316 15.0457C10.2264 15.0457 10.1212 15.0087 10.041 14.9346C9.88043 14.7864 9.88043 14.5465 10.041 14.3983C10.1965 14.2547 10.282 14.0643 10.282 13.8618C10.282 13.6592 10.1965 13.4687 10.041 13.3253C9.88043 13.1773 9.88043 12.9373 10.041 12.7889C10.2017 12.6405 10.4614 12.6409 10.6221 12.7889C10.933 13.0753 11.104 13.4561 11.104 13.8622C11.104 14.2673 10.933 14.6482 10.6221 14.9349C10.5421 15.009 10.4369 15.0457 10.3316 15.0457Z" fill="white"/>
<path d="M11.4939 16.119C11.3887 16.119 11.2834 16.0819 11.2033 16.0078C11.0425 15.8594 11.0425 15.6197 11.2033 15.4714C12.165 14.5837 12.165 13.1397 11.2033 12.252C11.0425 12.1036 11.0425 11.8639 11.2033 11.7155C11.364 11.5672 11.6237 11.5672 11.7845 11.7155C13.0664 12.8989 13.0664 14.8245 11.7845 16.0078C11.7044 16.0823 11.599 16.119 11.4939 16.119Z" fill="white"/>
<path d="M12.6566 17.1923C12.5514 17.1923 12.4461 17.1551 12.366 17.0812C12.2053 16.9328 12.2053 16.6931 12.366 16.5447C13.9684 15.0655 13.9684 12.6583 12.366 11.1791C12.2053 11.0307 12.2053 10.791 12.366 10.6426C12.5267 10.4944 12.7864 10.4944 12.9472 10.6426C14.8701 12.4178 14.8701 15.306 12.9472 17.0812C12.8669 17.1551 12.7617 17.1923 12.6566 17.1923Z" fill="white"/>
<path d="M17.2655 9.31294C17.2027 9.31294 17.1396 9.29961 17.0818 9.27312L15.5246 8.55418H9.04556C8.81839 8.55418 8.63457 8.38431 8.63457 8.1748V2.10472C8.63457 1.8954 8.81839 1.72534 9.04556 1.72534H19.3204C19.5478 1.72534 19.7314 1.8954 19.7314 2.10472V8.1748C19.7314 8.38431 19.5478 8.55418 19.3204 8.55418H17.6765V8.93356C17.6765 9.06527 17.6024 9.18698 17.4812 9.25644C17.4156 9.29405 17.3407 9.31294 17.2655 9.31294ZM9.45656 7.79542H15.6215C15.6853 7.79542 15.7485 7.80913 15.8053 7.83525L16.8545 8.31966V8.1748C16.8545 7.96548 17.0383 7.79542 17.2655 7.79542H18.9094V2.4841H9.45656V7.79542Z" fill="white"/>
<path d="M16.0325 4.00168H10.6826C10.4554 4.00168 10.2716 3.83181 10.2716 3.6223C10.2716 3.41297 10.4554 3.24292 10.6826 3.24292H16.0325C16.2599 3.24292 16.4435 3.41297 16.4435 3.6223C16.4435 3.83181 16.2599 4.00168 16.0325 4.00168Z" fill="white"/>
<path d="M17.6765 4.00168H17.2655C17.0383 4.00168 16.8545 3.83181 16.8545 3.6223C16.8545 3.41297 17.0383 3.24292 17.2655 3.24292H17.6765C17.9038 3.24292 18.0875 3.41297 18.0875 3.6223C18.0875 3.83181 17.9038 4.00168 17.6765 4.00168Z" fill="white"/>
<path d="M13.5666 5.51926H10.6826C10.4554 5.51926 10.2716 5.34939 10.2716 5.13988C10.2716 4.93055 10.4554 4.7605 10.6826 4.7605H13.5666C13.7939 4.7605 13.9776 4.93055 13.9776 5.13988C13.9776 5.34939 13.7939 5.51926 13.5666 5.51926Z" fill="white"/>
<path d="M17.6765 5.51926H14.7995C14.5724 5.51926 14.3885 5.34939 14.3885 5.13988C14.3885 4.93055 14.5724 4.7605 14.7995 4.7605H17.6765C17.9039 4.7605 18.0875 4.93055 18.0875 5.13988C18.0875 5.34939 17.9039 5.51926 17.6765 5.51926Z" fill="white"/>
<path d="M15.2106 7.03659H10.6826C10.4554 7.03659 10.2716 6.86672 10.2716 6.65721C10.2716 6.44789 10.4554 6.27783 10.6826 6.27783H15.2106C15.4379 6.27783 15.6216 6.44789 15.6216 6.65721C15.6216 6.86672 15.4379 7.03659 15.2106 7.03659Z" fill="white"/>
<path d="M17.6765 7.03659H16.4435C16.2163 7.03659 16.0325 6.86672 16.0325 6.65721C16.0325 6.44789 16.2163 6.27783 16.4435 6.27783H17.6765C17.9039 6.27783 18.0875 6.44789 18.0875 6.65721C18.0875 6.86672 17.9039 7.03659 17.6765 7.03659Z" fill="white"/>
</g>
<defs>
<clipPath id="clip0_1_35">
<rect width="26.2889" height="24.2667" fill="white" transform="translate(0.0111084 0.411133)"/>
</clipPath>
</defs>
</svg>
